<?xml version="1.0" encoding="UTF-8"?>
<svg xmlns="http://www.w3.org/2000/svg" viewBox="0 0 1670.6 1579.4">
  <defs>
    <style>
      .cls-1 {
        fill: #f991f4;
      }

      .cls-2, .cls-3, .cls-4, .cls-5, .cls-6 {
        opacity: .5;
      }

      .cls-2, .cls-7 {
        fill: #ff7271;
      }

      .cls-3, .cls-8 {
        fill: #6b3d6b;
      }

      .cls-4, .cls-5 {
        mix-blend-mode: multiply;
      }

      .cls-4, .cls-9 {
        fill: #231f20;
      }

      .cls-8 {
        opacity: .4;
      }

      .cls-10 {
        fill: #f2c0f1;
      }

      .cls-5 {
        fill: #014675;
      }

      .cls-11 {
        isolation: isolate;
      }

      .cls-12 {
        fill: #8cc8db;
      }

      .cls-6, .cls-13 {
        fill: #fff;
        mix-blend-mode: soft-light;
      }

      .cls-14 {
        fill: #240b4a;
      }

      .cls-15 {
        mix-blend-mode: overlay;
        opacity: .3;
      }

      .cls-16 {
        fill: #6ea2ff;
      }

      .cls-17 {
        fill: #af08af;
      }
    </style>
  </defs>
  <g class="cls-11">
    <g id="OBJECTS">
      <g>
        <g>
          <path class="cls-17" d="M1119.88,430.56c0,205.05-86.36,328.43-371.28,328.43s-371.28-123.38-371.28-328.43S543.55,59.28,748.6,59.28s371.28,166.23,371.28,371.28Z"/>
          <path class="cls-5" d="M1056.47,222.97c24.14,49.26,40.28,104.68,37.74,163.18-8.7,200.77-107.5,307.21-371.28,314.61-163.65,4.59-261.78-26.98-315.66-100.53,45.24,101.42,147.14,158.77,341.33,158.77,284.93,0,371.28-123.38,371.28-328.43,0-76.9-23.38-148.33-63.41-207.59Z"/>
          <path class="cls-13" d="M766.93,89.13c-31.09-3.33-65.55.68-85.43,5.05-72.87,16.03-156.29,62.73-184.69,136.26-20.11,52.06,51.97,83.88,170.1,46.94,118.12-36.93,155.35-88.98,163.77-119.02,13.25-47.25-22.25-64.79-63.75-69.24Z"/>
          <g>
            <path class="cls-10" d="M1118.93,405.3c-14.05,13.84-28.14,27.62-42.03,41.63-37.34,37.82-75,75.3-111.67,113.81-37.07,38.1-73.41,76.94-109.69,115.86-24.76,27.04-49.35,54.24-73.68,81.73,4.46-.16,8.9-.34,13.25-.57,25.61-21.41,51.02-43.03,76.31-64.77,40.03-35.04,79.98-70.16,119.22-106.02,39.63-35.46,78.27-71.93,117.23-108.07,3.67-3.42,7.27-6.92,10.93-10.35.72-12.33,1.08-24.98,1.08-37.97,0-8.5-.39-16.91-.95-25.26Z"/>
            <path class="cls-10" d="M965.22,395.2l81.33-5.78,70.27-5.9c-1.98-15.63-4.81-30.98-8.67-45.94l-65.72,6.42-81.04,8.97c-8.45.96-16.91,1.89-25.37,2.83l21.45-20.85,61.69-61.55,42.04-43.07c-3.09-4.81-6.28-9.54-9.58-14.19l-48.81,39.26-67.17,55.51-66.41,56.35-42.69,36.22,57.32-2.92c27.16-1.38,54.25-3.51,81.36-5.37Z"/>
          </g>
          <g>
            <path class="cls-10" d="M561.57,310.91l-67.17-55.51-48.81-39.26c-3.3,4.65-6.49,9.38-9.58,14.19l42.04,43.07,61.69,61.55,21.45,20.85c-8.46-.94-16.91-1.87-25.37-2.82l-81.04-8.97-65.73-6.42c-3.85,14.96-6.69,30.31-8.67,45.94l70.27,5.9,81.33,5.78c27.11,1.86,54.21,3.98,81.36,5.37l57.32,2.92-42.69-36.22-66.41-56.35Z"/>
            <path class="cls-10" d="M641.66,676.6c-36.27-38.92-72.62-77.76-109.69-115.86-36.67-38.5-74.33-75.99-111.67-113.81-13.88-14.01-27.98-27.79-42.03-41.63-.56,8.36-.95,16.76-.95,25.26,0,12.99.35,25.65,1.08,37.97,3.66,3.43,7.26,6.93,10.93,10.35,38.96,36.14,77.6,72.62,117.23,108.07,39.23,35.86,79.19,70.98,119.22,106.02,25.28,21.74,50.7,43.36,76.31,64.77,4.35.23,8.79.41,13.25.57-24.33-27.49-48.92-54.69-73.68-81.73Z"/>
          </g>
          <g>
            <path class="cls-12" d="M740.29,350.93h-314.22s16.59,183.07,106.33,242.77c89.74,59.7,326.04,59.7,415.79,0,89.74-59.7,106.33-242.77,106.33-242.77h-314.22Z"/>
            <g>
              <path class="cls-6" d="M783.67,350.93h-141.06c-31.96,51.09-75.68,121.75-136.32,219.92,7.94,8.74,16.58,16.52,26.1,22.85,20.34,13.53,48.25,23.96,80.23,31.36,56.73-91.69,129.27-208.29,171.05-274.13Z"/>
              <path class="cls-6" d="M866.18,350.93c-33.69,53.09-88.12,140.6-177.6,285.47,22.59,1.8,45.77,2.43,68.78,1.84,60.81-98.28,139.16-224.17,179.44-287.31h-70.62Z"/>
            </g>
          </g>
        </g>
        <g>
          <path class="cls-1" d="M638.6,818.38l-4.56,7.35-4.14,6.2c-2.75,4.08-5.58,7.83-8.41,11.68-5.73,7.5-11.65,14.7-17.82,21.62-12.3,13.86-25.57,26.58-39.75,38.17-28.1,23.51-60.2,41.86-94.44,54.96-35.77,14.38-80.5,17.74-122.19,5.84-20.99-5.68-41.06-15.13-59.67-26.96-9.31-5.95-18.28-12.52-26.95-19.75-4.3-3.69-8.6-7.41-12.82-11.55-2.1-1.95-4.27-4.21-6.42-6.43-1.04-1.06-2.16-2.25-3.36-3.61-1.14-1.27-2.18-2.39-4.2-4.88-20.35-26.2-18.74-64.35,3.6-85.21,22.34-20.86,56.95-16.53,77.31,9.67-.65-.76-.24-.21.05.19.22.34.56.78,1.02,1.33.83,1.01,1.6,2.03,2.63,3.13,1.85,2.19,4,4.33,6.11,6.52,4.35,4.28,9.01,8.34,13.83,12.05,9.68,7.38,19.98,13.44,30.64,17.33,10.66,3.72,21.6,6.84,32.95,6.81,5.66.66,11.41-.52,17.22-.55l8.75-1.69c2.93-.53,5.81-.88,9.2-2.06,26.2-7.38,51.72-18.77,74.9-34.93,11.68-7.89,22.87-16.84,33.28-26.7,5.21-4.91,10.22-10.04,15.03-15.3,2.31-2.66,4.72-5.31,6.86-7.98,2.11-2.45,4.57-5.83,5.57-7.03l3.97-4.72c14.14-16.84,38.72-16.84,54.89,0,14.81,15.41,17.42,39.6,6.9,56.5Z"/>
          <path class="cls-16" d="M527.11,812.55c-4.91,3.85-9.88,7.6-15.01,11.06-6.14,4.28-12.46,8.18-18.9,11.8,23.93,29.08,60.14,45.59,86.25,54.23,8.39-7.75,16.56-15.78,24.22-24.41,2.54-2.85,4.88-5.96,7.34-8.91-16.86-4.01-59.43-16.48-83.9-43.77Z"/>
          <g>
            <path class="cls-1" d="M954.23,792.06c22.83,3.48,48.26,6.08,71.68,6.76,23.6.81,46.96-.21,66.02-4.22l6.88-1.59c1.21-.64,2.37-1.18,3.59-1.59,1.27-.19,2.35-1.42,3.56-1.99,1.21-.58,2.43-1.34,3.59-2.49,4.83-3.55,9.83-9.08,14.36-16.22,4.57-7.01,8.77-15.36,12.27-24.45,1.73-4.56,3.35-9.26,4.71-14.04.72-2.39,1.31-4.76,1.9-7.11.49-2.05,1.17-5.22,1.15-5.65-1.58-31.65,22.04-56.01,52.77-54.42,30.73,1.59,56.92,28.54,58.51,60.18.29,5.77-.26,11.29-1.54,16.46l-3.19,12.59c-1.48,5.86-2.51,8.91-3.83,13.02-1.28,3.79-2.59,7.55-4.02,11.18-2.79,7.33-5.92,14.45-9.34,21.5-6.89,14.05-15.15,27.75-25.53,40.77-10.27,12.97-23.02,25.39-39.23,35.04-3.84,2.56-8.07,4.75-12.6,6.66-4.5,1.89-8.68,4.15-13.61,5.34-4.78,1.38-9.63,2.67-14.44,3.81l-11.81,1.71c-31.11,3.62-59.59,1.94-87.59-1.13-28.24-3.19-54.57-7.9-83.21-14.6-23.24-5.44-39.7-28.91-36.77-52.41,2.79-22.32,22.06-36.65,43.9-33.38l1.8.28Z"/>
            <path class="cls-16" d="M1053.49,891.54c14.42,1,29.15,1.32,44.41.54-.84-41.24-10.62-75.3-19.46-97.8-14.69,1.83-31.01,2.28-47.55,1.85,7.31,15.04,21.41,49.86,22.6,95.42Z"/>
          </g>
          <g>
            <path class="cls-9" d="M884.78,1430.03s47.51,35.87,83.66,47.24c36.14,11.37,41.97,27.29,43.14,37.52,1.16,10.23-60.63,17.05-138.75,17.05s-101.59-12.51-102.76-34.11c-1.17-21.6,20.29-67.7,20.29-67.7,0,0,64.41-29.04,94.43,0Z"/>
            <path class="cls-4" d="M890.03,1516.75c-78.12,0-101.59-12.51-102.76-34.11-.82-15.23,9.57-42.57,15.79-57.41-7.71,2.59-12.7,4.81-12.7,4.81,0,0-21.45,46.1-20.29,67.7,1.17,21.6,24.64,34.11,102.76,34.11s139.92-6.82,138.75-17.05c-.21-1.86-.59-3.91-1.26-6.09-23.81,5.03-68.38,8.05-120.29,8.05Z"/>
          </g>
          <g>
            <path class="cls-9" d="M592.89,1430.03s-47.51,35.87-83.66,47.24c-36.14,11.37-41.97,27.29-43.14,37.52-1.17,10.23,60.63,17.05,138.75,17.05s101.59-12.51,102.76-34.11c1.17-21.6-20.28-67.7-20.28-67.7,0,0-64.41-29.04-94.43,0Z"/>
            <path class="cls-4" d="M587.64,1516.75c78.12,0,101.6-12.51,102.76-34.11.82-15.23-9.57-42.57-15.79-57.41,7.71,2.59,12.71,4.81,12.71,4.81,0,0,21.45,46.1,20.28,67.7-1.17,21.6-24.64,34.11-102.76,34.11s-139.92-6.82-138.75-17.05c.21-1.86.59-3.91,1.26-6.09,23.81,5.03,68.38,8.05,120.29,8.05Z"/>
          </g>
          <path class="cls-1" d="M930.52,1127.24h-375.41s-14,246.91,48.36,315.32c0,0,75.28,19.89,92.98-25.63,3.55-18.49,3.86-104.52,19.42-129.11,10.91-17.26,35.99-17.26,46.91,0,15.56,24.59,15.86,110.62,19.42,129.11,17.7,45.52,92.98,25.63,92.98,25.63,62.35-68.41,55.34-315.32,55.34-315.32Z"/>
          <path class="cls-1" d="M938.29,779.06c-51.05-69.01-139.69-93.92-179.49-101.93-13.53-2.72-27.21-2.72-40.75,0-39.8,8.01-128.44,32.92-179.5,101.93-29.68,43.08-14.17,280.62,30.94,348.17h337.85c45.12-67.56,60.62-305.09,30.94-348.17Z"/>
          <path class="cls-3" d="M938.29,779.06c-6.16-8.32-12.89-15.98-19.99-23.07,1.15,10,1.97,20.95,2.39,32.8,5.19,146.92-93.14,268.97-214.72,268.97h-162.75c7.07,29.2,15.87,53.89,26.28,69.47h337.85c45.12-67.56,60.62-305.09,30.94-348.17Z"/>
          <rect class="cls-9" x="728.24" y="758.32" width="20.36" height="348.8"/>
          <path class="cls-9" d="M742.37,1152.51c-104.12,0-180.03-13.04-184.77-13.87-13.6-2.4-22.81-16.16-20.59-30.75,2.21-14.59,15.15-24.49,28.65-22.11,1.69.3,170.2,29.13,346.57-.03,13.65-2.3,26.36,7.78,28.46,22.39,2.1,14.62-7.24,28.3-20.86,30.55-62.72,10.37-123.83,13.84-177.46,13.84Z"/>
          <path class="cls-4" d="M940.69,1108.12c-1.11-7.72-5.23-14.11-10.84-18.14.06.31.18.59.22.91,2.13,14.61-7.17,28.32-20.78,30.6-62.69,10.52-123.8,14.14-177.43,14.27-104.12.26-180.06-12.6-184.8-13.42-3.59-.62-6.86-2.08-9.71-4.1,2.22,10.26,9.97,18.59,20.25,20.39,4.74.83,80.65,13.87,184.77,13.87,53.63,0,114.75-3.46,177.46-13.83,13.62-2.25,22.96-15.93,20.86-30.55Z"/>
          <g>
            <path class="cls-1" d="M1119.88,430.56c0,205.05-86.36,328.43-371.28,328.43s-371.28-123.38-371.28-328.43S543.55,59.28,748.6,59.28s371.28,166.23,371.28,371.28Z"/>
            <path class="cls-8" d="M1056.47,222.97c24.14,49.26,40.28,104.68,37.74,163.18-8.7,200.77-107.5,307.21-371.28,314.61-163.65,4.59-261.78-26.98-315.66-100.53,45.24,101.42,147.14,158.77,341.33,158.77,284.93,0,371.28-123.38,371.28-328.43,0-76.9-23.38-148.33-63.41-207.59Z"/>
            <path class="cls-13" d="M766.93,89.13c-31.09-3.33-65.55.68-85.43,5.05-72.87,16.03-156.29,62.73-184.69,136.26-20.11,52.06,51.97,83.88,170.1,46.94,118.12-36.93,155.35-88.98,163.77-119.02,13.25-47.25-22.25-64.79-63.75-69.24Z"/>
            <g>
              <path class="cls-16" d="M1118.93,405.3c-14.05,13.84-28.14,27.62-42.03,41.63-37.34,37.82-75,75.3-111.67,113.81-37.07,38.1-73.41,76.94-109.69,115.86-24.76,27.04-49.35,54.24-73.68,81.73,4.46-.16,8.9-.34,13.25-.57,25.61-21.41,51.02-43.03,76.31-64.77,40.03-35.04,79.98-70.16,119.22-106.02,39.63-35.46,78.27-71.93,117.23-108.07,3.67-3.42,7.27-6.92,10.93-10.35.72-12.33,1.08-24.98,1.08-37.97,0-8.5-.39-16.91-.95-25.26Z"/>
              <path class="cls-16" d="M965.22,395.2l81.33-5.78,70.27-5.9c-1.98-15.63-4.81-30.98-8.67-45.94l-65.72,6.42-81.04,8.97c-8.45.96-16.91,1.89-25.37,2.83l21.45-20.85,61.69-61.55,42.04-43.07c-3.09-4.81-6.28-9.54-9.58-14.19l-48.81,39.26-67.17,55.51-66.41,56.35-42.69,36.22,57.32-2.92c27.16-1.38,54.25-3.51,81.36-5.37Z"/>
            </g>
            <g>
              <path class="cls-16" d="M561.57,310.91l-67.17-55.51-48.81-39.26c-3.3,4.65-6.49,9.38-9.58,14.19l42.04,43.07,61.69,61.55,21.45,20.85c-8.46-.94-16.91-1.87-25.37-2.82l-81.04-8.97-65.73-6.42c-3.85,14.96-6.69,30.31-8.67,45.94l70.27,5.9,81.33,5.78c27.11,1.86,54.21,3.98,81.36,5.37l57.32,2.92-42.69-36.22-66.41-56.35Z"/>
              <path class="cls-16" d="M641.66,676.6c-36.27-38.92-72.62-77.76-109.69-115.86-36.67-38.5-74.33-75.99-111.67-113.81-13.88-14.01-27.98-27.79-42.03-41.63-.56,8.36-.95,16.76-.95,25.26,0,12.99.35,25.65,1.08,37.97,3.66,3.43,7.26,6.93,10.93,10.35,38.96,36.14,77.6,72.62,117.23,108.07,39.23,35.86,79.19,70.98,119.22,106.02,25.28,21.74,50.7,43.36,76.31,64.77,4.35.23,8.79.41,13.25.57-24.33-27.49-48.92-54.69-73.68-81.73Z"/>
            </g>
            <g>
              <path class="cls-12" d="M740.29,350.93h-314.22s16.59,183.07,106.33,242.77c89.74,59.7,326.04,59.7,415.79,0,89.74-59.7,106.33-242.77,106.33-242.77h-314.22Z"/>
              <g>
                <path class="cls-6" d="M783.67,350.93h-141.06c-31.96,51.09-75.68,121.75-136.32,219.92,7.94,8.74,16.58,16.52,26.1,22.85,20.34,13.53,48.25,23.96,80.23,31.36,56.73-91.69,129.27-208.29,171.05-274.13Z"/>
                <path class="cls-6" d="M866.18,350.93c-33.69,53.09-88.12,140.6-177.6,285.47,22.59,1.8,45.77,2.43,68.78,1.84,60.81-98.28,139.16-224.17,179.44-287.31h-70.62Z"/>
              </g>
            </g>
          </g>
          <path class="cls-9" d="M1297.84,653.21s59.14-95.5-19.64-131.86c-78.78-36.35-154.81,52.52-152.22,114.74,2.59,62.22,23.35,85.05,55.49,101.54,32.14,16.48,98.49,22.92,119.14-21.29,20.65-44.21-17.52-42.28-17.52-42.28l14.75-20.85Z"/>
          <path class="cls-16" d="M907.67,1375.16c3.64-16.62,9.31-34.83,11.02-53.36-55.19,20.22-120.26,5.28-146.34-3.33,2.92,16.17,4.69,35.26,5.99,52.6,19.64,5.01,45.08,9.54,73.17,9.54,17.03,0,37.96-1.23,56.16-5.45Z"/>
          <path class="cls-16" d="M572.33,1375.59c18.2,4.22,37.78,5.03,54.81,5.03,28.1,0,53.53-4.53,73.18-9.54,1.3-17.32,3.07-36.38,5.98-52.54-26,8.67-88.97,23.2-144.4,2.79,1.71,18.52,5.99,37.54,10.43,54.26Z"/>
          <path class="cls-3" d="M843.62,1417.67c-45.9-3.19-48.62-76.98-62.6-113.88-13.97-36.9-41.69-28.9-41.69-28.9,0,0-27.72-8-41.7,28.9-13.97,36.9-16.7,110.69-62.6,113.88-21.44,1.49-37.29.06-48.18-1.88,4.66,10.51,10.12,19.65,16.61,26.77,0,0,75.28,19.9,92.98-25.63,3.55-18.49,3.86-104.52,19.42-129.11,10.91-17.26,35.99-17.26,46.91,0,15.56,24.59,15.86,110.62,19.42,129.11,17.7,45.52,92.98,25.63,92.98,25.63,6.49-7.12,11.95-16.26,16.61-26.77-10.88,1.94-26.73,3.37-48.17,1.88Z"/>
          <path class="cls-9" d="M133.81,834.33s-83.72-74.89-18.43-132.03c65.29-57.14,163.34,6.62,178.45,67.03,15.1,60.42,1.64,88.18-24.52,113.08-26.17,24.9-87.99,49.82-120.3,13.26-32.3-36.57,4.85-45.51,4.85-45.51l-20.05-15.83Z"/>
        </g>
        <g>
          <path class="cls-7" d="M763.25,527.2l-24.83,3.93-24.83-3.93c-24.89,50.1-8.51,79.9,24.83,79.9s49.71-29.8,24.83-79.9Z"/>
          <g>
            <ellipse class="cls-2" cx="529.27" cy="507.04" rx="40.18" ry="21.71"/>
            <ellipse class="cls-2" cx="947.58" cy="507.04" rx="40.18" ry="21.71"/>
            <path class="cls-14" d="M677.54,472.53c0,48.23-30.83-45.36-97.33-45.36s-77.31,93.59-77.31,45.36,39.09-87.32,87.32-87.32,87.32,39.09,87.32,87.32Z"/>
            <path class="cls-14" d="M799.3,472.53c0,48.23,25.83-45.36,92.32-45.36s82.32,93.59,82.32,45.36-39.09-87.32-87.32-87.32-87.32,39.09-87.32,87.32Z"/>
            <path class="cls-14" d="M854.07,324.65c5.04,8.12,30.74-6.91,51.18,2.64,20.44,9.54,28.1,14.83,31.49,12.85,3.4-1.99-4.57-31.2-40.44-40.19-35.87-8.98-53.5,6.54-42.23,24.7Z"/>
            <path class="cls-14" d="M622.77,324.65c-5.04,8.12-30.74-6.91-51.18,2.64-20.44,9.54-28.1,14.83-31.49,12.85-3.4-1.99,4.57-31.2,40.44-40.19,35.87-8.98,53.5,6.54,42.23,24.7Z"/>
          </g>
          <path class="cls-14" d="M525.1,425.9c-9.67-2.64-20.52-26.67-29.31-23.45-8.79,3.22,3.81,26.08,21.4,32.82,17.59,6.74,7.91-9.38,7.91-9.38Z"/>
          <path class="cls-14" d="M516.65,442c-10.02.38-27.56-19.31-34.98-13.6-7.42,5.71,11.44,23.74,30.24,24.91,18.8,1.17,4.74-11.31,4.74-11.31Z"/>
          <path class="cls-14" d="M951.75,425.9c9.67-2.64,20.52-26.67,29.31-23.45,8.79,3.22-3.81,26.08-21.4,32.82-17.59,6.74-7.91-9.38-7.91-9.38Z"/>
          <path class="cls-14" d="M960.19,442c10.02.38,27.56-19.31,34.98-13.6,7.42,5.71-11.44,23.74-30.24,24.91-18.8,1.17-4.74-11.31-4.74-11.31Z"/>
          <path class="cls-14" d="M783.31,493.22c-6.72-5.3-2.39,29.95-44.89,29.95s-38.18-35.25-44.89-29.95c-6.72,5.3-1.06,46.31,44.89,46.31s51.61-41,44.89-46.31Z"/>
          <g class="cls-15">
            <path d="M743.14,531.13c-.69,15.74-1.85,31.46-3.48,47.16-.08.68-.69,1.18-1.38,1.1-.59-.07-1.04-.53-1.1-1.1-1.63-15.69-2.79-31.41-3.48-47.16-.05-6.44,9.48-6.47,9.44,0h0Z"/>
          </g>
        </g>
      </g>
    </g>
  </g>
</svg>