<?xml version="1.0" encoding="UTF-8"?>
<svg xmlns="http://www.w3.org/2000/svg" viewBox="0 0 1771.08 1544.17">
  <defs>
    <style>
      .cls-1 {
        fill: #f991f4;
      }

      .cls-2 {
        fill: #ff7271;
      }

      .cls-2, .cls-3, .cls-4 {
        opacity: .5;
      }

      .cls-5, .cls-4, .cls-6 {
        fill: #fff;
      }

      .cls-3, .cls-7 {
        fill: #6b3d6b;
      }

      .cls-8 {
        fill: #c1b49a;
      }

      .cls-7 {
        opacity: .4;
      }

      .cls-9, .cls-10 {
        fill: #231f20;
      }

      .cls-11 {
        isolation: isolate;
      }

      .cls-12 {
        fill: #8cc8db;
      }

      .cls-4, .cls-6 {
        mix-blend-mode: soft-light;
      }

      .cls-13 {
        fill: #240b4a;
      }

      .cls-10 {
        mix-blend-mode: multiply;
      }

      .cls-14 {
        fill: #6ea2ff;
      }
    </style>
  </defs>
  <g class="cls-11">
    <g id="OBJECTS">
      <g>
        <g>
          <path class="cls-1" d="M1209.6,753.71c.06-.13.63.98,1.11,1.86.42.85,1,1.83,1.61,2.84,1.13,1.98,2.31,3.96,3.72,5.96,2.49,4.04,5.69,7.82,8.56,11.67,6.47,7.28,13.09,14.37,20.81,20.07,15.05,11.83,32.27,19.92,50.53,24.92l14.07,2.87c4.57,1.17,9.74.94,14.51,1.54,9.48,1.45,19.84.25,29.7.22,10.04-.58,20.41-2.7,30.47-3.78l30.79-7.37,3.86-.92c27.99-6.7,56.11,10.55,62.82,38.54,6.7,27.99-10.55,56.11-38.54,62.82-2.22.53-4.74.94-6.95,1.17l-41.28,4.13c-14.23-.1-28.14.59-42.4-.5-14.39-1.66-28.53-2.37-42.9-6.24-7.14-1.81-14.26-2.8-21.28-5.42l-20.93-7.47c-27.44-11.61-52.98-28.53-73.49-49.96-10.47-10.49-19.18-22.5-27.14-34.76-3.66-6.41-7.42-12.63-10.49-19.43-1.64-3.27-3.13-6.75-4.54-10.3-.72-1.73-1.43-3.5-2.11-5.49-.68-1.93-1.31-3.61-2.23-6.63-5.62-17.05,3.64-35.42,20.69-41.04,17.05-5.62,35.42,3.64,41.04,20.69Z"/>
          <path class="cls-3" d="M1373.95,886.07c-22.46,19.7-118.5-5.88-95.55-15.5,13.3-5.58,42.96-27.31,65.58-44.62-6.61.25-13.22.45-19.47-.5-4.77-.6-9.94-.37-14.51-1.54l-14.07-2.87c-18.26-5-35.48-13.1-50.53-24.93-7.72-5.7-14.34-12.78-20.81-20.07-2.87-3.85-6.07-7.63-8.56-11.67-1.41-2-2.59-3.98-3.72-5.96-.61-1.01-1.19-1.99-1.61-2.84-.48-.88-1.04-2-1.11-1.86-5.62-17.05-24-26.31-41.04-20.69-17.05,5.62-26.31,24-20.69,41.04.92,3.01,1.55,4.7,2.23,6.63.68,1.99,1.39,3.76,2.11,5.49,1.41,3.55,2.9,7.03,4.54,10.3,3.07,6.8,6.83,13.02,10.49,19.43,7.96,12.26,16.67,24.26,27.14,34.76,20.51,21.43,46.04,38.34,73.49,49.96l20.93,7.47c7.02,2.61,14.14,3.6,21.28,5.42,14.37,3.87,28.5,4.57,42.9,6.24,14.26,1.08,28.17.4,42.4.49l41.28-4.13c2.21-.24,4.73-.64,6.95-1.17,15.55-3.72,27.57-14.16,34.23-27.41-31.34-6.41-87.89-15.5-103.88-1.47Z"/>
        </g>
        <path class="cls-9" d="M1472.97,1231.72s41.59,32.19,73.23,42.4c31.64,10.21,36.74,24.49,37.76,33.68,1.02,9.18-53.07,15.31-121.45,15.31s-88.93-11.23-89.95-30.62c-1.02-19.39,17.76-60.77,17.76-60.77,0,0,56.38-26.07,82.65,0Z"/>
        <path class="cls-10" d="M1482.92,1308.33c-68.38,0-88.93-11.23-89.95-30.62-.73-13.87,8.64-38.92,14.05-52.1-9.9,3-16.71,6.11-16.71,6.11,0,0-18.78,41.38-17.76,60.77,1.02,19.39,21.57,30.62,89.95,30.62s122.47-6.12,121.45-15.31c-.19-1.72-.53-3.62-1.15-5.63-21.81,3.87-58.14,6.16-99.89,6.16Z"/>
        <path class="cls-9" d="M866.3,1251.72s-41.59,32.19-73.23,42.4c-31.64,10.21-36.74,24.49-37.76,33.68-1.02,9.19,53.07,15.31,121.45,15.31s88.93-11.23,89.95-30.62c1.02-19.39-17.76-60.77-17.76-60.77,0,0-56.38-26.07-82.65,0Z"/>
        <path class="cls-10" d="M948.96,1251.72s-3.31-1.52-8.63-3.45c5.49,13.65,13.77,36.64,13.08,49.7-1.02,19.39-21.57,30.62-89.95,30.62-46.38,0-86.12-2.82-106.62-7.5-.86,2.41-1.31,4.69-1.53,6.71-1.02,9.19,53.07,15.31,121.45,15.31s88.93-11.23,89.95-30.62c1.02-19.39-17.76-60.77-17.76-60.77Z"/>
        <path class="cls-1" d="M1462.1,1194.1c-19.19-52.73-121.88-163.67-323.75-170.31-9.59-3.38-203.33-38.04-277.32,55.25-73.99,93.3-42.09,152.18-19.57,177.91,22.52,25.74,131.56,23.28,115.48-53.93-12.87-67.56,104.7-35.42,149.74-44.84,0,0,145.56,20.8,227.39,81.1,49.53,34.45,156.03,9,128.04-45.18Z"/>
        <path class="cls-1" d="M1262.68,768.37c-44.96-55.41-123.02-75.42-158.07-81.85-11.92-2.19-23.96-2.19-35.88,0-35.05,6.43-113.12,26.44-158.08,81.85-26.14,34.6-12.48,225.34,27.25,279.59h297.54c39.73-54.25,53.39-244.99,27.25-279.59Z"/>
        <path class="cls-3" d="M1262.68,768.37c-5.42-6.69-11.35-12.83-17.6-18.52,1.01,8.03,1.73,16.83,2.1,26.34,4.57,117.98-82.02,215.98-189.1,215.98h-143.33c6.22,23.45,13.98,43.27,23.14,55.79h297.54c39.73-54.25,53.39-244.99,27.25-279.59Z"/>
        <path class="cls-9" d="M1090.37,1070.21c-98.41,0-170.17-11.48-174.64-12.22-12.85-2.11-21.56-14.23-19.46-27.08,2.09-12.85,14.32-21.57,27.08-19.47,1.59.26,160.87,25.65,327.57-.03,12.91-2.02,24.92,6.85,26.9,19.72,1.98,12.87-6.85,24.92-19.72,26.9-59.28,9.14-117.04,12.18-167.73,12.18Z"/>
        <path class="cls-10" d="M1277.82,1031.12c-1.03-6.68-4.8-12.24-9.96-15.8.64,1.62,1.15,3.31,1.43,5.1,1.98,12.87-6.85,24.92-19.72,26.9-59.28,9.14-117.04,12.18-167.74,12.18-98.41,0-170.17-11.48-174.64-12.22-3.54-.58-6.71-1.97-9.48-3.88,2.96,7.43,9.55,13.19,18.02,14.58,4.48.73,76.23,12.22,174.64,12.22,50.69,0,108.46-3.05,167.73-12.18,12.87-1.98,21.7-14.03,19.72-26.9Z"/>
        <rect class="cls-9" x="1090.2" y="742.73" width="16.89" height="290.1"/>
        <g>
          <path class="cls-1" d="M1415.01,463.45c0,174.72-73.58,279.85-316.36,279.85s-316.36-105.13-316.36-279.85,141.64-316.36,316.36-316.36,316.36,141.64,316.36,316.36Z"/>
          <path class="cls-7" d="M1360.98,286.57c20.57,41.97,34.32,89.19,32.16,139.04-7.41,171.08-91.6,261.76-316.36,268.07-139.44,3.91-223.05-22.99-268.97-85.66,38.55,86.42,125.37,135.29,290.84,135.29,242.78,0,316.36-105.13,316.36-279.85,0-65.52-19.92-126.39-54.03-176.88Z"/>
          <path class="cls-6" d="M1114.27,172.53c-26.49-2.84-55.85.58-72.79,4.31-62.09,13.66-133.17,53.45-157.37,116.11-17.13,44.36,44.29,71.47,144.94,40,100.64-31.47,132.37-75.82,139.54-101.41,11.29-40.26-18.96-55.21-54.32-59Z"/>
          <g>
            <path class="cls-14" d="M1414.2,441.93c-11.97,11.79-23.98,23.54-35.81,35.47-31.82,32.22-63.91,64.17-95.15,96.97-31.58,32.46-62.56,65.56-93.46,98.72-21.1,23.04-42.05,46.22-62.78,69.64,3.8-.14,7.58-.29,11.29-.49,21.82-18.24,43.47-36.66,65.02-55.19,34.11-29.86,68.15-59.78,101.58-90.34,33.76-30.21,66.69-61.29,99.89-92.09,3.13-2.91,6.2-5.89,9.31-8.82.62-10.5.92-21.29.92-32.36,0-7.24-.33-14.4-.81-21.53Z"/>
            <path class="cls-14" d="M1283.22,433.32l69.3-4.92,59.88-5.03c-1.69-13.31-4.1-26.4-7.39-39.14l-56,5.47-69.05,7.65c-7.2.82-14.41,1.61-21.61,2.41l18.28-17.77,52.56-52.45,35.82-36.7c-2.63-4.1-5.35-8.13-8.16-12.09l-41.59,33.46-57.24,47.3-56.59,48.02-36.37,30.86,48.84-2.49c23.14-1.18,46.22-2.99,69.33-4.57Z"/>
          </g>
          <g>
            <path class="cls-14" d="M939.29,361.5l-57.24-47.3-41.59-33.46c-2.81,3.96-5.53,7.99-8.16,12.09l35.82,36.7,52.56,52.45,18.28,17.77c-7.21-.8-14.41-1.59-21.61-2.41l-69.05-7.65-56-5.47c-3.28,12.74-5.7,25.83-7.39,39.14l59.88,5.03,69.3,4.92c23.1,1.58,46.19,3.39,69.33,4.57l48.84,2.49-36.37-30.86-56.59-48.02Z"/>
            <path class="cls-14" d="M1007.53,673.09c-30.91-33.16-61.88-66.26-93.46-98.72-31.25-32.81-63.34-64.75-95.15-96.97-11.83-11.93-23.84-23.68-35.81-35.47-.48,7.12-.81,14.28-.81,21.53,0,11.07.3,21.85.92,32.36,3.12,2.93,6.18,5.91,9.31,8.82,33.2,30.8,66.12,61.88,99.89,92.09,33.43,30.56,67.47,60.48,101.58,90.34,21.54,18.53,43.2,36.95,65.02,55.19,3.71.2,7.49.35,11.29.49-20.73-23.42-41.68-46.6-62.78-69.64Z"/>
          </g>
          <g>
            <path class="cls-12" d="M1091.57,395.61h-267.74s14.14,155.99,90.6,206.86c76.46,50.87,277.81,50.87,354.28,0,76.46-50.87,90.6-206.86,90.6-206.86h-267.74Z"/>
            <g>
              <path class="cls-4" d="M1128.53,395.61h-120.19c-27.23,43.53-64.48,103.74-116.15,187.39,6.76,7.45,14.13,14.08,22.24,19.47,17.33,11.53,41.11,20.42,68.36,26.72,48.34-78.13,110.15-177.48,145.74-233.58Z"/>
              <path class="cls-4" d="M1198.84,395.61c-28.71,45.23-75.08,119.8-151.33,243.24,19.25,1.53,39,2.07,58.6,1.56,51.81-83.74,118.57-191.01,152.9-244.81h-60.18Z"/>
            </g>
          </g>
        </g>
        <g>
          <path class="cls-1" d="M963.45,741.38c.26.16,1.22,1,2.14,1.79.86.76,1.78,1.54,2.84,2.37,2.04,1.61,3.97,3.27,6.2,4.82,4.23,3.23,8.76,6.19,13.3,9.13,4.54,2.92,9.37,5.46,14.01,8.17,4.9,2.29,9.65,4.83,14.56,6.97,19.65,8.62,40.23,13.99,60.82,15.43,20.55,1.32,41.1.54,61.14-5.19,10.1-1.67,19.86-6.39,29.7-9.56,9.76-3.9,19.2-9.34,28.79-13.71l5.83-2.66c25.11-11.44,54.75-.36,66.19,24.75,11.44,25.11.36,54.75-24.75,66.19-1.17.53-2.46,1.05-3.65,1.49-13.92,5.06-27.36,10.79-41.62,14.89-14.6,3.44-28.65,8-43.84,9.34-29.61,4.96-60.58,3.48-90.08-1.76-29.68-5.31-57.95-16.03-83.43-30.45-6.38-3.59-12.5-7.61-18.7-11.43-5.94-4.24-11.95-8.32-17.66-12.84-5.7-4.54-11.33-9.14-16.72-14.18-2.73-2.38-5.4-5.11-8.07-7.73-1.32-1.27-2.68-2.69-4.05-4.17l-4.54-4.97c-12.66-13.89-11.68-35.41,2.21-48.08,11.45-10.44,28.09-11.6,40.68-3.9l8.68,5.33Z"/>
          <path class="cls-14" d="M1001.95,767.65c-4.65-2.71-9.47-5.25-14.01-8.17-1.32-.85-2.56-1.79-3.87-2.66-8.86,20.56-23.25,48.12-36.95,63.67,5.15,3.96,10.49,7.66,15.79,11.45,5.98,3.68,11.89,7.54,18.04,11.04,17.54-21.54,31.63-50.35,39-67.01-1.14-.47-2.3-.85-3.43-1.35-4.91-2.14-9.66-4.68-14.56-6.97Z"/>
          <path class="cls-3" d="M1266.74,779.31c-13.03-22.61-42.15-30.31-65.89-19.49l-3.88,1.77c-9.01,4.1-17.91,9.07-27.04,12.9-.58,15.37,4.23,29.62,9.77,40.72,6.8,13.62-.22,30.07-14.97,33.87-20.61,5.32-50.5,9.23-85.45,2.39-78.79-14.62-146.13-73.55-173.29-100.27-5.36,11.99-3.52,26.52,5.89,36.83l4.53,4.97c1.37,1.49,2.73,2.9,4.05,4.17,2.67,2.62,5.34,5.35,8.07,7.73,5.39,5.04,11.02,9.64,16.72,14.18,5.71,4.53,11.72,8.61,17.66,12.84,6.2,3.82,12.31,7.84,18.7,11.43,25.48,14.42,53.76,25.14,83.43,30.45,29.5,5.24,60.47,6.72,90.08,1.76,15.19-1.33,29.24-5.89,43.84-9.33,14.26-4.1,27.7-9.83,41.62-14.89,1.19-.44,2.48-.96,3.65-1.49,26.59-12.12,37.45-44.62,22.5-70.56Z"/>
          <path class="cls-9" d="M1268.4,721.8c12-3.44,22.98-11.86,35.66-15.12,16.39-4.22,35.27-3.94,47.03,9.99,26.42,31.3,33.33,94.68-29.77,118.29-39.13,14.64-74.11,8.97-95.03,2.55-14.81-4.55-26.91-15.66-31.93-30.32-6.57-19.18-8.57-48.28,20.09-76.91,4.4-4.39,8.48-9.18,11.53-14.6,3.79-6.74,11.61-16.09,26.02-16.77,17.23-.22,16.4,22.87,16.4,22.87Z"/>
        </g>
        <path class="cls-9" d="M1392.77,853.41c-4.06,7.94-12.66,13.65-16.61,22.16-5.1,10.99-6.23,25.17,5.82,38.09,27.07,29.01,85.27,52.96,111.75,12.82,16.42-24.89,13.73-52.7,9.31-70.23-3.13-12.41-12.54-24.74-25.75-32.84-17.29-10.6-44.09-20.71-72.71-7.79-4.39,1.98-9.13,3.61-14.37,4.29-6.52.84-15.75,3.91-17.43,14.47-1.46,12.81,19.99,19.03,19.99,19.03Z"/>
        <g>
          <path class="cls-5" d="M958.14,437.92c-383.85,37.88-158.64,596.56-542.49,634.44-140.99-120.55-281.97-241.11-422.96-361.66C376.54,672.82,151.33,114.14,535.18,76.26c140.99,120.55,281.97,241.11,422.96,361.66Z"/>
          <path class="cls-9" d="M245.24,743.59c-35.78,30.42-82.84,51.21-146.81,57.52-35.25-30.14-70.49-60.28-105.74-90.42,63.98-6.31,111.03-27.09,146.81-57.52,35.25,30.14,70.49,60.28,105.74,90.42Z"/>
          <path class="cls-9" d="M430.12,718.63c-18.86,44.89-43.36,84.96-79.14,115.38-35.25-30.14-70.49-60.28-105.74-90.42,35.78-30.42,60.28-70.49,79.14-115.38,35.25,30.14,70.49,60.28,105.74,90.42Z"/>
          <path class="cls-9" d="M581.16,664.72c-13.22,49.71-26.44,99.43-45.3,144.32-35.25-30.14-70.49-60.28-105.74-90.42,18.86-44.89,32.08-94.6,45.3-144.32,35.25,30.14,70.49,60.28,105.74,90.42Z"/>
          <path class="cls-9" d="M599.85,314.61c35.78-30.43,82.84-51.21,146.81-57.52-35.25-30.14-70.49-60.28-105.74-90.42-63.98,6.31-111.03,27.09-146.81,57.52,35.25,30.14,70.49,60.28,105.74,90.42Z"/>
          <path class="cls-9" d="M641.6,899.46c-18.86,44.89-43.36,84.96-79.14,115.38-35.25-30.14-70.49-60.28-105.74-90.42,35.78-30.42,60.28-70.49,79.14-115.38,35.25,30.14,70.49,60.28,105.74,90.42Z"/>
          <path class="cls-9" d="M811.33,495.44c35.78-30.43,82.84-51.21,146.81-57.52-35.25-30.14-70.49-60.28-105.74-90.42-63.98,6.31-111.03,27.09-146.81,57.52,35.25,30.14,70.49,60.28,105.74,90.42Z"/>
          <path class="cls-9" d="M626.45,520.41c18.86-44.89,43.36-84.96,79.14-115.38-35.25-30.14-70.49-60.28-105.74-90.42-35.78,30.42-60.28,70.49-79.14,115.38,35.25,30.14,70.49,60.28,105.74,90.42Z"/>
          <path class="cls-9" d="M309.91,981.94c63.98-6.31,111.03-27.09,146.81-57.52-35.25-30.14-70.49-60.28-105.74-90.42-35.78,30.42-82.84,51.21-146.81,57.52,35.25,30.14,70.49,60.28,105.74,90.42Z"/>
          <path class="cls-9" d="M369.68,483.89c-13.22,49.71-26.44,99.43-45.3,144.32-35.25-30.14-70.49-60.28-105.74-90.42,18.86-44.89,32.08-94.61,45.3-144.32,35.25,30.14,70.49,60.28,105.74,90.42Z"/>
          <path class="cls-9" d="M414.97,339.57c18.86-44.89,43.36-84.96,79.14-115.38-35.25-30.14-70.49-60.28-105.74-90.42-35.78,30.42-60.28,70.49-79.14,115.38,35.25,30.14,70.49,60.28,105.74,90.42Z"/>
          <path class="cls-9" d="M732.19,610.82c-18.86,44.89-32.08,94.6-45.3,144.32-35.25-30.14-70.49-60.28-105.74-90.42,13.22-49.71,26.44-99.43,45.3-144.32,35.25,30.14,70.49,60.28,105.74,90.42Z"/>
          <path class="cls-9" d="M520.71,429.99c-18.86,44.89-32.08,94.6-45.3,144.32-35.25-30.14-70.49-60.28-105.74-90.42,13.22-49.71,26.44-99.43,45.3-144.32,35.25,30.14,70.49,60.28,105.74,90.42Z"/>
        </g>
        <path class="cls-14" d="M1407.27,1121.35c-9.51-8.54-20.22-17.05-32.16-25.31-40.33,69.03-131.05,95.98-132.04,96.27l.23.82c17.45,6.39,34.97,13.79,51.52,22.27,34.29-16.19,82.39-45.82,112.43-94.05Z"/>
        <path class="cls-14" d="M958.47,1215.75c-.13-4-.6-8.23-1.54-12.73-2.65-13.93.3-23.56,6.95-30.26-28.49,7.38-97.07,21.24-147.96.18-2.18,16.68-.56,31.23,3.08,43.66,20.4,5.7,41.72,7.93,62.16,7.93,29.63,0,57.26-4.43,77.31-8.78Z"/>
        <path class="cls-3" d="M1466.63,1211.35c-51.6,34.46-151.8-4.54-231.09-49.3-79.32-44.78-195.74-42.22-256.51-27.92-60.77,14.3-45.42,80.37-68.45,98.93-17.7,14.26-63.67,4.43-84.77.79,4.78,9.47,10.45,17.18,15.64,23.11,22.52,25.74,131.56,23.28,115.48-53.93-12.87-67.56,104.7-35.42,149.74-44.84,0,0,145.56,20.8,227.39,81.1,43.91,30.55,132.55,13.98,132.57-27.93Z"/>
        <g>
          <g>
            <g>
              <path class="cls-2" d="M961.5,559.27c0,11.3-16.96,20.47-37.88,20.47s-37.88-9.16-37.88-20.47,16.96-20.47,37.88-20.47,37.88,9.16,37.88,20.47Z"/>
              <path class="cls-2" d="M1220.37,559.27c0,11.3,16.96,20.47,37.88,20.47s37.88-9.16,37.88-20.47-16.96-20.47-37.88-20.47-37.88,9.16-37.88,20.47Z"/>
            </g>
            <path class="cls-13" d="M1123.29,547.81c0-34.14-24-44.68-36.62-44.52-12.62-.16-36.63,10.38-36.63,44.52s24,44.68,36.63,44.52c12.62.16,36.62-10.38,36.62-44.52Z"/>
          </g>
          <path class="cls-13" d="M1222.83,425.93c8.25-15.04,33.43-5.29,23.53,11.46-9.91,16.75-47.26,65.83-47.26,65.83,0,0,74.49-39.97,84.23-41.03,9.74-1.06,20.27,14.2,3.04,24.87-17.23,10.68-79.11,35.47-79.11,35.47,0,0,40.49,4.97,50.58,7.16,10.1,2.19,13.35,17.12-6.38,18.66-19.73,1.54-77.84-4.14-83.32-17.11-5.48-12.97,54.69-105.32,54.69-105.32Z"/>
          <path class="cls-13" d="M950.5,425.93c-8.25-15.04-33.43-5.29-23.53,11.46,9.91,16.75,47.26,65.83,47.26,65.83,0,0-74.49-39.97-84.23-41.03-9.74-1.06-20.27,14.2-3.04,24.87,17.23,10.68,79.11,35.47,79.11,35.47,0,0-40.49,4.97-50.58,7.16-10.1,2.19-13.35,17.12,6.38,18.66,19.73,1.54,77.84-4.14,83.32-17.11,5.48-12.97-54.69-105.32-54.69-105.32Z"/>
          <path class="cls-13" d="M966.29,343.68c-8.78-2.05-15.89,25.1-35.88,32.36-19.99,7.27-28.62,8.84-29.56,12.43-.94,3.59,23.85,17.75,53.75-.17,29.9-17.93,31.31-40.03,11.68-44.62Z"/>
          <path class="cls-13" d="M1207.04,343.68c8.78-2.05,15.89,25.1,35.88,32.36,19.99,7.27,28.62,8.84,29.56,12.43.94,3.59-23.85,17.75-53.75-.17-29.9-17.93-31.31-40.03-11.68-44.62Z"/>
        </g>
        <path class="cls-8" d="M1574.98,1027.85c-5.86,0-11.74-2.02-16.53-6.14L453.32,70.43c-10.61-9.13-11.81-25.13-2.67-35.74,9.13-10.61,25.13-11.82,35.74-2.67l1105.14,951.28c10.61,9.13,11.81,25.13,2.67,35.74-5.01,5.82-12.1,8.81-19.22,8.81Z"/>
      </g>
    </g>
  </g>
</svg>