<?xml version="1.0" encoding="UTF-8"?>
<svg xmlns="http://www.w3.org/2000/svg" viewBox="0 0 1842.72 1577.87">
  <defs>
    <style>
      .cls-1 {
        fill: #f991f4;
      }

      .cls-2 {
        fill: #ff7271;
      }

      .cls-2, .cls-3, .cls-4 {
        opacity: .5;
      }

      .cls-5, .cls-4, .cls-6 {
        fill: #fff;
      }

      .cls-3, .cls-7 {
        fill: #6b3d6b;
      }

      .cls-8 {
        fill: #c1b49a;
      }

      .cls-7 {
        opacity: .4;
      }

      .cls-9, .cls-10 {
        fill: #231f20;
      }

      .cls-11 {
        isolation: isolate;
      }

      .cls-12 {
        fill: #8cc8db;
      }

      .cls-4, .cls-6 {
        mix-blend-mode: soft-light;
      }

      .cls-13 {
        fill: #240b4a;
      }

      .cls-14 {
        fill: #e0e04c;
      }

      .cls-10 {
        mix-blend-mode: multiply;
      }

      .cls-15 {
        fill: #6ea2ff;
      }
    </style>
  </defs>
  <g class="cls-11">
    <g id="OBJECTS">
      <g>
        <g>
          <path class="cls-1" d="M1313.02,740.63c.06-.14.63.99,1.11,1.88.43.85,1.01,1.85,1.62,2.86,1.14,1.99,2.32,3.99,3.74,6,2.51,4.07,5.73,7.88,8.62,11.76,6.51,7.34,13.18,14.47,20.96,20.21,15.15,11.91,32.5,20.06,50.89,25.1l14.17,2.89c4.6,1.17,9.8.94,14.61,1.55,9.55,1.46,19.98.25,29.91.22,10.11-.58,20.55-2.71,30.68-3.81l31.01-7.43,3.88-.93c28.19-6.75,56.51,10.63,63.26,38.81,6.75,28.19-10.63,56.51-38.81,63.26-2.24.54-4.77.94-7,1.18l-41.57,4.16c-14.33-.1-28.34.59-42.7-.5-14.49-1.68-28.73-2.38-43.2-6.28-7.19-1.83-14.36-2.82-21.43-5.45l-21.08-7.52c-27.64-11.7-53.35-28.73-74-50.31-10.55-10.57-19.32-22.65-27.33-35-3.68-6.45-7.48-12.72-10.56-19.57-1.65-3.29-3.15-6.8-4.57-10.38-.72-1.74-1.44-3.52-2.12-5.53-.68-1.94-1.32-3.64-2.25-6.67-5.66-17.17,3.67-35.67,20.83-41.33,17.17-5.66,35.67,3.67,41.33,20.83Z"/>
          <path class="cls-3" d="M1478.53,873.92c-22.62,19.84-119.33-5.92-96.23-15.6,13.4-5.62,43.26-27.51,66.04-44.93-6.65.25-13.32.46-19.6-.5-4.8-.6-10.01-.37-14.61-1.55l-14.17-2.89c-18.39-5.04-35.73-13.19-50.89-25.1-7.77-5.74-14.45-12.87-20.96-20.21-2.89-3.88-6.11-7.69-8.62-11.76-1.42-2.01-2.61-4.01-3.74-6-.61-1.01-1.2-2.01-1.62-2.86-.48-.89-1.05-2.01-1.11-1.88-5.66-17.17-24.17-26.49-41.33-20.83-17.17,5.66-26.49,24.17-20.83,41.33.93,3.03,1.56,4.73,2.25,6.67.68,2,1.4,3.78,2.12,5.53,1.42,3.57,2.92,7.08,4.57,10.38,3.09,6.85,6.88,13.12,10.56,19.57,8.01,12.35,16.78,24.44,27.33,35,20.66,21.58,46.37,38.61,74,50.31l21.08,7.53c7.07,2.63,14.24,3.63,21.43,5.45,14.47,3.89,28.71,4.6,43.2,6.28,14.36,1.09,28.37.4,42.7.5l41.57-4.16c2.23-.24,4.76-.65,7-1.18,15.66-3.75,27.76-14.26,34.47-27.6-31.56-6.45-88.51-15.6-104.61-1.48Z"/>
        </g>
        <path class="cls-9" d="M1578.25,1222.01s41.88,32.42,73.74,42.7c31.86,10.28,37,24.67,38.03,33.92,1.03,9.25-53.44,15.42-122.31,15.42s-89.55-11.31-90.58-30.83c-1.03-19.53,17.88-61.2,17.88-61.2,0,0,56.78-26.25,83.24,0Z"/>
        <path class="cls-10" d="M1588.28,1299.16c-68.86,0-89.55-11.31-90.58-30.83-.74-13.97,8.7-39.19,14.15-52.46-9.97,3.02-16.83,6.15-16.83,6.15,0,0-18.91,41.67-17.88,61.2,1.03,19.53,21.72,30.83,90.58,30.83s123.34-6.17,122.31-15.42c-.19-1.73-.53-3.64-1.16-5.67-21.96,3.89-58.55,6.2-100.59,6.2Z"/>
        <path class="cls-9" d="M967.31,1242.15s-41.88,32.42-73.74,42.7c-31.86,10.28-37,24.67-38.03,33.92-1.03,9.25,53.45,15.42,122.31,15.42s89.55-11.3,90.58-30.83c1.03-19.53-17.88-61.2-17.88-61.2,0,0-56.77-26.25-83.24,0Z"/>
        <path class="cls-10" d="M1050.55,1242.15s-3.34-1.53-8.69-3.47c5.53,13.74,13.86,36.9,13.17,50.05-1.03,19.53-21.72,30.83-90.58,30.83-46.7,0-86.73-2.84-107.37-7.55-.86,2.43-1.32,4.72-1.54,6.76-1.03,9.25,53.44,15.42,122.31,15.42s89.55-11.3,90.58-30.83c1.03-19.53-17.88-61.2-17.88-61.2Z"/>
        <path class="cls-1" d="M1567.3,1184.13c-19.32-53.1-122.74-164.82-326.03-171.51-9.66-3.4-204.76-38.31-279.27,55.64-74.52,93.95-42.39,153.25-19.71,179.17,22.68,25.92,132.49,23.44,116.29-54.31-12.96-68.04,105.44-35.67,150.8-45.16,0,0,146.58,20.95,228.99,81.67,49.87,34.69,157.13,9.06,128.94-45.5Z"/>
        <path class="cls-1" d="M1366.48,755.39c-45.28-55.8-123.89-75.95-159.19-82.43-12-2.2-24.13-2.2-36.14,0-35.3,6.47-113.92,26.62-159.19,82.43-26.33,34.84-12.57,226.93,27.44,281.56h299.64c40.01-54.63,53.76-246.72,27.44-281.56Z"/>
        <path class="cls-3" d="M1366.48,755.39c-5.46-6.73-11.43-12.92-17.73-18.65,1.02,8.09,1.75,16.94,2.12,26.53,4.6,118.82-82.6,217.51-190.43,217.51h-144.34c6.27,23.61,14.08,43.58,23.31,56.18h299.64c40.01-54.63,53.76-246.72,27.44-281.56Z"/>
        <path class="cls-9" d="M1192.96,1059.36c-99.11,0-171.37-11.57-175.88-12.3-12.94-2.12-21.71-14.33-19.6-27.27,2.11-12.94,14.42-21.72,27.27-19.61,1.61.26,162.01,25.83,329.88-.03,13-2.04,25.1,6.9,27.09,19.86,2,12.97-6.89,25.1-19.86,27.09-59.7,9.2-117.87,12.27-168.92,12.27Z"/>
        <path class="cls-10" d="M1381.73,1020c-1.04-6.73-4.83-12.33-10.03-15.91.64,1.63,1.16,3.33,1.44,5.13,1.99,12.96-6.9,25.1-19.86,27.09-59.7,9.2-117.87,12.27-168.92,12.27-99.11,0-171.37-11.57-175.88-12.3-3.56-.58-6.76-1.99-9.55-3.91,2.98,7.48,9.62,13.29,18.14,14.69,4.51.74,76.77,12.3,175.87,12.3,51.05,0,109.22-3.07,168.92-12.27,12.96-1.99,21.85-14.13,19.86-27.09Z"/>
        <rect class="cls-9" x="1192.79" y="729.57" width="17.01" height="292.15"/>
        <g>
          <path class="cls-1" d="M1519.89,448.32c0,175.95-74.1,281.82-318.59,281.82s-318.59-105.87-318.59-281.82,142.64-318.59,318.59-318.59,318.59,142.64,318.59,318.59Z"/>
          <path class="cls-7" d="M1465.47,270.19c20.72,42.27,34.56,89.82,32.39,140.02-7.47,172.28-92.25,263.61-318.59,269.96-140.43,3.94-224.63-23.15-270.87-86.26,38.82,87.02,126.26,136.24,292.89,136.24,244.49,0,318.59-105.87,318.59-281.82,0-65.98-20.06-127.28-54.41-178.13Z"/>
          <path class="cls-6" d="M1217.02,155.35c-26.68-2.86-56.25.58-73.3,4.34-62.53,13.76-134.11,53.82-158.48,116.92-17.25,44.67,44.6,71.97,145.96,40.28,101.35-31.69,133.3-76.35,140.53-102.13,11.37-40.55-19.09-55.6-54.71-59.42Z"/>
          <g>
            <path class="cls-15" d="M1519.07,426.65c-12.05,11.88-24.15,23.7-36.06,35.72-32.04,32.45-64.36,64.62-95.83,97.66-31.81,32.69-63,66.02-94.12,99.42-21.24,23.2-42.35,46.54-63.22,70.13,3.83-.14,7.64-.29,11.37-.49,21.98-18.37,43.78-36.92,65.48-55.58,34.35-30.07,68.63-60.2,102.3-90.98,34-30.43,67.16-61.72,100.59-92.74,3.15-2.93,6.24-5.93,9.38-8.88.62-10.58.92-21.44.92-32.58,0-7.29-.33-14.51-.82-21.68Z"/>
            <path class="cls-15" d="M1387.17,417.98l69.78-4.96,60.3-5.07c-1.7-13.41-4.13-26.58-7.44-39.42l-56.4,5.51-69.54,7.7c-7.25.82-14.51,1.62-21.77,2.43l18.41-17.9,52.93-52.82,36.07-36.96c-2.65-4.13-5.39-8.18-8.22-12.18l-41.88,33.69-57.64,47.64-56.99,48.35-36.63,31.08,49.19-2.5c23.3-1.19,46.55-3.01,69.82-4.6Z"/>
          </g>
          <g>
            <path class="cls-15" d="M1040.8,345.66l-57.64-47.64-41.88-33.69c-2.83,3.99-5.57,8.05-8.22,12.18l36.07,36.96,52.93,52.82,18.41,17.9c-7.26-.8-14.51-1.6-21.77-2.42l-69.54-7.7-56.4-5.51c-3.31,12.83-5.74,26.01-7.44,39.42l60.3,5.07,69.79,4.96c23.27,1.59,46.51,3.42,69.82,4.6l49.19,2.5-36.63-31.08-56.99-48.35Z"/>
            <path class="cls-15" d="M1109.53,659.44c-31.12-33.4-62.31-66.73-94.12-99.42-31.47-33.04-63.78-65.21-95.83-97.66-11.91-12.02-24.01-23.85-36.07-35.72-.48,7.17-.82,14.38-.82,21.68,0,11.15.3,22.01.92,32.58,3.14,2.95,6.23,5.95,9.38,8.88,33.43,31.02,66.59,62.31,100.59,92.74,33.67,30.77,67.95,60.91,102.3,90.98,21.7,18.66,43.5,37.21,65.48,55.58,3.74.2,7.54.35,11.37.49-20.87-23.58-41.98-46.93-63.22-70.13Z"/>
          </g>
          <g>
            <path class="cls-12" d="M1194.16,380h-269.63s14.24,157.09,91.24,208.32c77,51.23,279.77,51.23,356.78,0,77-51.23,91.24-208.32,91.24-208.32h-269.63Z"/>
            <g>
              <path class="cls-4" d="M1231.39,380h-121.04c-27.43,43.84-64.94,104.47-116.97,188.71,6.81,7.5,14.23,14.18,22.4,19.61,17.45,11.61,41.4,20.56,68.85,26.91,48.68-78.68,110.93-178.73,146.77-235.23Z"/>
              <path class="cls-4" d="M1302.19,380c-28.91,45.55-75.61,120.64-152.39,244.96,19.38,1.54,39.27,2.08,59.02,1.58,52.18-84.33,119.41-192.35,153.98-246.53h-60.6Z"/>
            </g>
          </g>
        </g>
        <g>
          <path class="cls-1" d="M1065.14,728.22c.26.16,1.22,1.01,2.16,1.8.87.77,1.8,1.56,2.86,2.38,2.06,1.62,4,3.29,6.25,4.85,4.26,3.26,8.82,6.23,13.4,9.19,4.57,2.94,9.43,5.5,14.11,8.23,4.93,2.31,9.72,4.87,14.67,7.02,19.79,8.68,40.52,14.09,61.25,15.54,20.7,1.33,41.39.54,61.57-5.23,10.17-1.68,20-6.43,29.91-9.63,9.83-3.93,19.34-9.41,28.99-13.81l5.87-2.67c25.29-11.52,55.13-.37,66.66,24.92,11.52,25.29.37,55.13-24.93,66.66-1.18.54-2.48,1.06-3.67,1.5-14.02,5.1-27.55,10.87-41.91,15-14.7,3.46-28.86,8.06-44.15,9.4-29.82,5-61.01,3.5-90.72-1.77-29.88-5.35-58.36-16.14-84.02-30.67-6.43-3.62-12.58-7.67-18.83-11.51-5.98-4.27-12.04-8.38-17.79-12.94-5.74-4.57-11.41-9.21-16.84-14.28-2.75-2.4-5.44-5.15-8.13-7.79-1.33-1.28-2.69-2.71-4.08-4.2l-4.57-5.01c-12.75-13.98-11.76-35.66,2.23-48.41,11.53-10.52,28.29-11.68,40.97-3.93l8.74,5.36Z"/>
          <path class="cls-15" d="M1103.91,754.67c-4.68-2.73-9.54-5.29-14.11-8.23-1.33-.86-2.57-1.8-3.9-2.67-8.92,20.7-23.42,48.46-37.21,64.12,5.19,3.99,10.56,7.72,15.9,11.53,6.03,3.71,11.98,7.59,18.16,11.12,17.66-21.69,31.86-50.7,39.27-67.49-1.15-.48-2.32-.86-3.46-1.36-4.95-2.15-9.73-4.71-14.67-7.02Z"/>
          <path class="cls-3" d="M1370.56,766.41c-13.12-22.77-42.44-30.53-66.36-19.63l-3.9,1.78c-9.07,4.13-18.03,9.14-27.23,12.99-.58,15.48,4.26,29.83,9.84,41.01,6.84,13.72-.23,30.28-15.07,34.11-20.75,5.35-50.85,9.3-86.06,2.41-79.34-14.72-147.17-74.07-174.51-100.97-5.4,12.07-3.55,26.7,5.93,37.09l4.57,5.01c1.38,1.5,2.75,2.92,4.08,4.2,2.69,2.64,5.37,5.39,8.13,7.79,5.43,5.07,11.1,9.71,16.84,14.28,5.75,4.56,11.8,8.67,17.79,12.94,6.25,3.84,12.4,7.89,18.83,11.51,25.66,14.52,54.14,25.32,84.02,30.67,29.71,5.27,60.9,6.77,90.72,1.77,15.29-1.34,29.45-5.94,44.15-9.4,14.36-4.13,27.89-9.9,41.91-15,1.2-.44,2.49-.96,3.67-1.5,26.77-12.2,37.71-44.94,22.66-71.06Z"/>
          <path class="cls-9" d="M1372.24,708.5c12.08-3.46,23.14-11.94,35.91-15.22,16.5-4.25,35.52-3.97,47.36,10.06,26.61,31.52,33.57,95.35-29.98,119.13-39.41,14.75-74.63,9.04-95.7,2.57-14.92-4.58-27.1-15.77-32.16-30.53-6.62-19.32-8.63-48.62,20.23-77.45,4.43-4.43,8.54-9.25,11.61-14.7,3.82-6.79,11.7-16.2,26.2-16.89,17.36-.22,16.52,23.04,16.52,23.04Z"/>
        </g>
        <path class="cls-9" d="M1497.49,841.03c-4.09,8-12.75,13.75-16.73,22.31-5.14,11.07-6.27,25.35,5.86,38.36,27.26,29.22,85.87,53.33,112.54,12.91,16.54-25.07,13.82-53.07,9.37-70.72-3.15-12.5-12.63-24.92-25.93-33.07-17.41-10.67-44.4-20.86-73.22-7.84-4.42,2-9.19,3.64-14.47,4.32-6.56.84-15.86,3.94-17.55,14.57-1.47,12.9,20.13,19.17,20.13,19.17Z"/>
        <g>
          <g>
            <path class="cls-2" d="M1043.27,510.6c0,11.64-17.47,21.08-39.02,21.08s-39.02-9.44-39.02-21.08,17.47-21.08,39.02-21.08,39.02,9.44,39.02,21.08Z"/>
            <path class="cls-2" d="M1343.66,512.71c0,11.64,17.47,21.08,39.02,21.08s39.02-9.44,39.02-21.08-17.47-21.08-39.02-21.08-39.02,9.44-39.02,21.08Z"/>
            <path class="cls-13" d="M972.65,432.98c1.45,45.56,38.81,82.06,84.73,82.06s83.28-36.5,84.73-82.06h-169.45Z"/>
            <path class="cls-5" d="M1030.59,460.81c0,9.04-7.33,16.37-16.37,16.37s-16.37-7.33-16.37-16.37,7.33-16.37,16.37-16.37,16.37,7.33,16.37,16.37Z"/>
            <path class="cls-5" d="M1027.64,486.75c0-5.28,4.28-9.56,9.56-9.56s9.56,4.28,9.56,9.56-4.28,9.56-9.56,9.56-9.56-4.28-9.56-9.56Z"/>
            <path class="cls-13" d="M1260.48,432.98c1.45,45.56,38.81,82.06,84.73,82.06s83.28-36.5,84.73-82.06h-169.45Z"/>
            <path class="cls-5" d="M1318.42,460.81c0,9.04-7.33,16.37-16.37,16.37s-16.37-7.33-16.37-16.37,7.33-16.37,16.37-16.37,16.37,7.33,16.37,16.37Z"/>
            <path class="cls-5" d="M1315.47,486.75c0-5.28,4.28-9.56,9.56-9.56s9.56,4.28,9.56,9.56-4.28,9.56-9.56,9.56-9.56-4.28-9.56-9.56Z"/>
            <g>
              <path class="cls-13" d="M1301.3,353.84c4.95,7.86,28.03,2.72,49.71,2.25,21.9-.48,51.58-1.75,54.87-3.7,3.29-1.95-28.84-14.28-63.73-22.79-34.89-8.5-51.91,6.68-40.85,24.24Z"/>
              <path class="cls-13" d="M1110.72,353.84c-4.95,7.86-28.03,2.72-49.71,2.25-21.9-.48-51.58-1.75-54.87-3.7-3.29-1.95,28.84-14.28,63.73-22.79,34.89-8.5,51.91,6.68,40.85,24.24Z"/>
            </g>
          </g>
          <path class="cls-13" d="M1155.51,436.4h-196.26c-4.49,0-8.14-3.64-8.14-8.14h0c0-4.49,3.64-8.14,8.14-8.14l196.26-4.86c4.49,0,8.14,8.5,8.14,13h0c0,4.49-3.64,8.14-8.14,8.14Z"/>
          <path class="cls-13" d="M1443.34,436.4h-196.26c-4.49,0-8.14-3.64-8.14-8.14h0c0-4.49,8.5-13,13-13l191.4,4.86c4.49,0,8.14,3.64,8.14,8.14h0c0,4.49-3.64,8.14-8.14,8.14Z"/>
          <path class="cls-13" d="M1235.27,533.16c-.53-3.58-1.25-7.16-2.57-10.54-2.57-6.59-7.33-11.56-14.07-13.9-6.66-2.3-14.39-2.05-21.1-.05-8.1,2.43-13.21,8.56-17.61,15.47-3.29,5.15-5.87,10.72-7.85,16.5-.19.46-.39.92-.57,1.39-1.52,3.87-3.72,8.21-2.47,12.44.27.92,1.37,1.42,2.22.9,2.63-1.6,3.8-4.3,5.23-6.9,1.65-3,3.53-5.89,5.72-8.53,4.37-5.26,9.91-9.64,16.42-11.92,6.34-2.22,13.33-2.37,19.57.3,2.98,1.28,5.66,3.18,7.83,5.59,2.3,2.57,4.08,5.55,6.38,8.12.58.65,1.54.49,2.14,0,2.45-2,1.12-6.26.74-8.89Z"/>
        </g>
        <path class="cls-14" d="M1001.37,456.91c-380.62,77.53-97.41,613.97-478.03,691.49-153.67-106.23-307.33-212.46-461-318.69,380.62-77.53,97.41-613.96,478.03-691.49,153.67,106.23,307.33,212.46,461,318.69Z"/>
        <path class="cls-15" d="M1512.09,1110.86c-9.58-8.6-20.36-17.17-32.38-25.49-40.61,69.52-131.98,96.66-132.97,96.95l.24.83c17.58,6.44,35.22,13.89,51.89,22.43,34.54-16.3,82.97-46.15,113.23-94.71Z"/>
        <path class="cls-15" d="M1060.13,1205.93c-.13-4.03-.61-8.29-1.55-12.82-2.67-14.02.3-23.73,7-30.47-28.69,7.44-97.76,21.39-149,.18-2.19,16.8-.56,31.45,3.1,43.97,20.55,5.74,42.02,7.99,62.59,7.99,29.84,0,57.66-4.46,77.85-8.85Z"/>
        <path class="cls-3" d="M1571.87,1201.49c-51.96,34.7-152.87-4.57-232.72-49.65-79.88-45.09-197.12-42.52-258.32-28.12-61.2,14.4-45.74,80.94-68.93,99.62-17.83,14.36-64.12,4.46-85.36.8,4.81,9.53,10.52,17.3,15.75,23.27,22.68,25.92,132.49,23.44,116.29-54.31-12.96-68.04,105.44-35.67,150.8-45.16,0,0,146.58,20.95,228.99,81.67,44.22,30.76,133.48,14.08,133.51-28.13Z"/>
        <path class="cls-8" d="M1680.13,984.27c-5.87.6-11.97-.81-17.19-4.45L457.77,140.83c-11.57-8.05-14.42-23.96-6.36-35.53,8.05-11.57,23.96-14.43,35.53-6.36l1205.17,839c11.57,8.05,14.42,23.96,6.36,35.53-4.42,6.35-11.21,10.08-18.34,10.81Z"/>
      </g>
    </g>
  </g>
</svg>