<?xml version="1.0" encoding="UTF-8"?>
<svg xmlns="http://www.w3.org/2000/svg" viewBox="0 0 1851.98 1659.06">
  <defs>
    <style>
      .cls-1 {
        fill: #f991f4;
      }

      .cls-2 {
        fill: #2b398f;
      }

      .cls-3 {
        fill: #00512a;
      }

      .cls-3, .cls-4, .cls-5, .cls-6 {
        opacity: .5;
      }

      .cls-3, .cls-5 {
        mix-blend-mode: multiply;
      }

      .cls-7 {
        fill: #0e3520;
      }

      .cls-4, .cls-8 {
        fill: #ff7271;
      }

      .cls-9, .cls-6, .cls-10 {
        fill: #fff;
      }

      .cls-5, .cls-11 {
        fill: #231f20;
      }

      .cls-12 {
        fill: #6b3d6b;
        opacity: .4;
      }

      .cls-13 {
        fill: #e5b789;
      }

      .cls-14 {
        isolation: isolate;
      }

      .cls-15 {
        fill: #8cc8db;
      }

      .cls-16 {
        fill: #ffe2c1;
      }

      .cls-6, .cls-10 {
        mix-blend-mode: soft-light;
      }

      .cls-17 {
        fill: #fec000;
      }

      .cls-18 {
        fill: #240b4a;
      }

      .cls-19 {
        fill: #6ea2ff;
      }
    </style>
  </defs>
  <g class="cls-14">
    <g id="OBJECTS">
      <g>
        <path class="cls-11" d="M1018.67,1458.62s47.07,35.54,82.89,46.8c35.81,11.27,41.59,27.04,42.74,37.18,1.16,10.14-60.07,16.9-137.47,16.9s-100.66-12.39-101.82-33.8c-1.16-21.41,20.1-67.08,20.1-67.08,0,0,63.82-28.78,93.56,0Z"/>
        <path class="cls-5" d="M1023.87,1544.55c-77.4,0-100.66-12.39-101.82-33.8-.81-15.09,9.49-42.18,15.65-56.89-7.64,2.56-12.59,4.76-12.59,4.76,0,0-21.25,45.68-20.1,67.08,1.16,21.41,24.41,33.8,101.82,33.8s138.63-6.76,137.47-16.9c-.21-1.84-.58-3.88-1.25-6.03-23.59,4.98-67.75,7.97-119.18,7.97Z"/>
        <path class="cls-11" d="M729.46,1458.62s-47.07,35.54-82.89,46.8c-35.81,11.27-41.59,27.04-42.74,37.18-1.15,10.14,60.07,16.9,137.48,16.9s100.66-12.39,101.82-33.8c1.16-21.41-20.1-67.08-20.1-67.08,0,0-63.82-28.78-93.56,0Z"/>
        <path class="cls-5" d="M724.26,1544.55c77.4,0,100.66-12.39,101.82-33.8.82-15.09-9.48-42.18-15.65-56.89,7.64,2.56,12.59,4.76,12.59,4.76,0,0,21.25,45.68,20.1,67.08-1.16,21.41-24.41,33.8-101.82,33.8s-138.63-6.76-137.48-16.9c.21-1.84.58-3.88,1.25-6.03,23.59,4.98,67.75,7.97,119.18,7.97Z"/>
        <path class="cls-1" d="M1042.96,1158.61h-336.8s-27.99,244.65,33.79,312.43c0,0,74.58,19.71,92.13-25.39,3.52-18.32,3.83-103.56,19.24-127.92,10.81-17.1,35.66-17.1,46.48,0,15.41,24.36,15.72,109.6,19.24,127.92,17.54,45.1,92.13,25.39,92.13,25.39,61.78-67.78,33.79-312.43,33.79-312.43Z"/>
        <path class="cls-1" d="M1071.69,813.64c-50.58-68.37-138.41-93.06-177.84-100.99-13.41-2.7-26.96-2.7-40.37,0-39.43,7.93-127.26,32.62-177.85,100.99-29.41,42.69-14.04,278.04,30.66,344.97h334.75c44.7-66.94,60.07-302.29,30.65-344.97Z"/>
        <path class="cls-12" d="M1071.69,813.64c-6.1-8.25-12.77-15.83-19.81-22.85,1.14,9.91,1.95,20.76,2.37,32.5,5.14,145.58-92.28,266.5-212.75,266.5h-161.26c7,28.93,15.73,53.39,26.04,68.83h334.75c44.7-66.94,60.07-302.29,30.65-344.97Z"/>
        <rect class="cls-11" x="863.57" y="816.58" width="20.17" height="322.1"/>
        <path class="cls-11" d="M877.57,1183.65c-103.16,0-178.38-12.92-183.07-13.75-13.47-2.37-22.6-16.01-20.4-30.47,2.19-14.46,15.01-24.26,28.39-21.91,1.67.3,168.63,28.86,343.38-.03,13.53-2.28,26.12,7.71,28.2,22.18,2.08,14.49-7.18,28.04-20.67,30.27-62.14,10.28-122.7,13.71-175.83,13.71Z"/>
        <path class="cls-5" d="M1074.07,1139.67c-1.1-7.65-5.18-13.98-10.74-17.97.06.31.17.59.22.9,2.11,14.48-7.11,28.05-20.59,30.32-62.11,10.43-122.66,14.01-175.8,14.14-103.16.25-178.41-12.48-183.11-13.3-3.56-.62-6.79-2.06-9.62-4.06,2.2,10.17,9.88,18.41,20.07,20.21,4.69.82,79.91,13.75,183.07,13.75,53.14,0,113.69-3.43,175.83-13.71,13.49-2.23,22.74-15.78,20.67-30.27Z"/>
        <rect class="cls-2" x="956.52" y="887.74" width="72.82" height="72.82"/>
        <g>
          <path class="cls-1" d="M1247.17,449.13c0,208.66-87.87,334.2-377.8,334.2s-377.8-125.55-377.8-334.2S660.71,71.33,869.36,71.33s377.8,169.15,377.8,377.8Z"/>
          <path class="cls-12" d="M1182.64,237.9c24.57,50.12,40.99,106.51,38.41,166.04-8.85,204.3-109.39,312.6-377.81,320.13-166.53,4.67-266.37-27.45-321.21-102.3,46.04,103.2,149.72,161.56,347.32,161.56,289.93,0,377.81-125.55,377.81-334.2,0-78.25-23.79-150.94-64.52-211.23Z"/>
          <path class="cls-10" d="M888.02,101.71c-31.64-3.39-66.7.69-86.93,5.14-74.15,16.31-159.03,63.83-187.93,138.66-20.46,52.97,52.89,85.35,173.09,47.77,120.19-37.58,158.07-90.54,166.64-121.11,13.49-48.08-22.64-65.93-64.87-70.46Z"/>
          <g>
            <path class="cls-19" d="M1246.2,423.43c-14.29,14.08-28.64,28.11-42.77,42.36-38,38.48-76.32,76.63-113.63,115.81-37.72,38.77-74.7,78.29-111.61,117.9-25.19,27.51-50.22,55.19-74.97,83.16,4.54-.17,9.06-.35,13.49-.58,26.06-21.79,51.92-43.78,77.65-65.91,40.73-35.66,81.39-71.39,121.31-107.89,40.32-36.08,79.64-73.19,119.29-109.97,3.74-3.48,7.4-7.04,11.12-10.53.74-12.54,1.09-25.42,1.09-38.64,0-8.65-.4-17.2-.97-25.71Z"/>
            <path class="cls-19" d="M1089.78,413.16l82.76-5.88,71.5-6.01c-2.01-15.9-4.9-31.53-8.82-46.74l-66.88,6.53-82.46,9.13c-8.6.97-17.21,1.92-25.81,2.88l21.83-21.22,62.77-62.63,42.78-43.82c-3.14-4.89-6.39-9.71-9.75-14.44l-49.66,39.95-68.35,56.49-67.58,57.34-43.44,36.86,58.33-2.97c27.64-1.41,55.2-3.57,82.79-5.46Z"/>
          </g>
          <g>
            <path class="cls-19" d="M679.05,327.39l-68.35-56.49-49.66-39.95c-3.36,4.73-6.6,9.55-9.75,14.44l42.78,43.82,62.77,62.63,21.83,21.22c-8.61-.95-17.21-1.9-25.81-2.88l-82.46-9.13-66.88-6.53c-3.92,15.22-6.81,30.85-8.82,46.74l71.5,6.01,82.76,5.88c27.59,1.89,55.16,4.05,82.79,5.46l58.33,2.97-43.44-36.86-67.58-57.34Z"/>
            <path class="cls-19" d="M760.54,699.49c-36.91-39.6-73.89-79.13-111.61-117.9-37.32-39.18-75.64-77.33-113.64-115.81-14.13-14.25-28.47-28.28-42.77-42.36-.57,8.5-.97,17.06-.97,25.71,0,13.22.36,26.1,1.1,38.64,3.72,3.49,7.38,7.05,11.12,10.53,39.65,36.78,78.97,73.89,119.29,109.97,39.92,36.49,80.58,72.23,121.31,107.89,25.73,22.13,51.59,44.12,77.65,65.91,4.43.23,8.95.41,13.49.58-24.75-27.97-49.78-55.65-74.97-83.16Z"/>
          </g>
          <g>
            <path class="cls-15" d="M860.91,368.11h-319.74s16.88,186.29,108.2,247.04c91.31,60.75,331.77,60.75,423.09,0,91.31-60.75,108.2-247.04,108.2-247.04h-319.74Z"/>
            <g>
              <path class="cls-6" d="M905.05,368.11h-143.54c-32.52,51.99-77.01,123.89-138.71,223.78,8.08,8.89,16.88,16.81,26.56,23.25,20.69,13.77,49.1,24.38,81.64,31.91,57.73-93.3,131.54-211.95,174.05-278.94Z"/>
              <path class="cls-6" d="M989.01,368.11c-34.28,54.02-89.66,143.07-180.72,290.49,22.98,1.83,46.58,2.47,69.98,1.87,61.88-100,141.6-228.1,182.6-292.35h-71.86Z"/>
            </g>
          </g>
        </g>
        <path class="cls-19" d="M1043.58,1374.25c2.37-17.25,3.88-35.29,4.73-53.32-60.02,24.76-117.33,20.73-143.15,16.87,3.38,14.2,5.5,32.28,7.02,49.77,9.74,1.02,21.08,1.79,33.96,1.79,27.63,0,61.55-3.61,97.44-15.1Z"/>
        <path class="cls-19" d="M700.8,1320.93c.85,18.03,2.36,36.07,4.73,53.32,35.88,11.49,69.81,15.1,97.44,15.1,12.88,0,24.23-.77,33.96-1.79,1.52-17.49,3.64-35.56,7.02-49.77-25.82,3.87-83.13,7.9-143.15-16.86Z"/>
        <path class="cls-12" d="M977.89,1446.38c-45.48-3.16-48.18-76.28-62.02-112.84-13.84-36.56-41.31-28.64-41.31-28.64,0,0-27.47-7.93-41.31,28.64-13.84,36.56-16.55,109.68-62.02,112.84-21.24,1.48-36.95.06-47.73-1.86,4.62,10.41,10.03,19.47,16.46,26.52,0,0,74.58,19.71,92.13-25.39,3.52-18.32,3.83-103.56,19.24-127.92,10.81-17.1,35.66-17.1,46.48,0,15.41,24.36,15.71,109.6,19.24,127.92,17.54,45.1,92.13,25.39,92.13,25.39,6.43-7.06,11.84-16.11,16.46-26.52-10.78,1.92-26.49,3.34-47.73,1.86Z"/>
        <g>
          <g>
            <path class="cls-4" d="M705.79,550.7c0,15.38-23.09,27.86-51.56,27.86s-51.56-12.47-51.56-27.86,23.09-27.86,51.56-27.86,51.56,12.47,51.56,27.86Z"/>
            <path class="cls-4" d="M1063.41,544.36c0,15.38,23.08,27.86,51.56,27.86s51.56-12.47,51.56-27.86-23.09-27.86-51.56-27.86-51.56,12.47-51.56,27.86Z"/>
          </g>
          <path class="cls-18" d="M942.21,530.8c-8.62-6.8-20.38,6.91-57.61,6.91s-48.99-13.72-57.61-6.91c-8.62,6.8-1.36,59.42,57.61,59.42s66.23-52.62,57.61-59.42Z"/>
          <g>
            <path class="cls-8" d="M1173.73,424.75c-20.99-70.94-85.5-36.28-99.58,18.68-35.65-112.26-142.15-42.1-84.3,45.51,18.97,32.34,53.83,52.28,84.75,70.63,47.42-27.92,110.49-71.36,99.13-134.82Z"/>
            <path class="cls-8" d="M694.6,559.57c30.92-18.35,65.78-38.29,84.75-70.63,57.85-87.61-48.65-157.77-84.3-45.51-14.08-54.96-78.6-89.62-99.58-18.68-11.36,63.45,51.7,106.9,99.13,134.82Z"/>
          </g>
          <path class="cls-9" d="M645.47,438.72c-6.56,9.99-19.97,12.76-29.95,6.21-9.99-6.56-12.76-19.97-6.21-29.95,6.56-9.99,19.97-12.77,29.95-6.21,9.99,6.56,12.76,19.97,6.21,29.95Z"/>
          <path class="cls-9" d="M623.41,465.23c3.83-5.83,11.67-7.46,17.5-3.63,5.83,3.83,7.46,11.67,3.63,17.5-3.83,5.83-11.67,7.46-17.5,3.63-5.83-3.83-7.46-11.67-3.63-17.5Z"/>
          <path class="cls-9" d="M1022.33,438.72c-6.56,9.99-19.97,12.76-29.95,6.21-9.99-6.56-12.76-19.97-6.21-29.95,6.56-9.99,19.97-12.77,29.95-6.21,9.99,6.56,12.76,19.97,6.21,29.95Z"/>
          <path class="cls-9" d="M1000.26,465.23c3.83-5.83,11.67-7.46,17.5-3.63s7.46,11.67,3.63,17.5c-3.83,5.83-11.67,7.46-17.5,3.63-5.83-3.83-7.46-11.67-3.63-17.5Z"/>
          <path class="cls-18" d="M1007.37,333.5c6.39,10.29,38.93-8.74,64.81,3.34,25.89,12.08,35.58,18.79,39.89,16.27,4.3-2.52-5.79-39.52-51.22-50.89-45.43-11.38-67.76,8.28-53.48,31.28Z"/>
          <path class="cls-18" d="M714.44,333.5c-6.39,10.29-38.93-8.74-64.81,3.34-25.89,12.08-35.58,18.79-39.88,16.27-4.3-2.52,5.79-39.52,51.22-50.89,45.43-11.38,67.76,8.28,53.48,31.28Z"/>
        </g>
        <g>
          <path class="cls-7" d="M984.73,942.53c-21.08-88.55,141.35-330.55,141.35-330.55l-40.09-26.91-40.09-26.91s-162.43,242-252.36,256.04c-66.33,10.35-212.19,226.2-284.2,338.81-23.73,37.11-18.05,83.09,12.74,103.75l77.96,52.33,77.96,52.33c30.79,20.66,75.49,8.5,100.84-27.52,76.93-109.3,221.43-326.06,205.89-391.37Z"/>
          <path class="cls-17" d="M843.01,947.08l140.32-32.88c9.09-103.08,142.74-302.22,142.74-302.22l-40.09-26.91-40.09-26.91s-124.14,184.94-215.45,240.85l12.56,148.07Z"/>
          <path class="cls-17" d="M853.22,1178.44c-28.52,42.49-101.75,43.31-163.56,1.82-61.81-41.49-88.8-109.57-60.28-152.06,28.52-42.49,101.75-43.31,163.56-1.82,61.81,41.49,88.8,109.57,60.28,152.06Z"/>
          <path class="cls-8" d="M855.7,1099.22l-113.4-.13c-9.02-25.61-22.81-64.59-36.65-103.07-26.23-1.12-49.67,5.67-65.84,20.35,15.61,43.36,32.61,91.35,45.63,128.48l8.07,23,165.26.19c8.79-20.28,7.19-44.66-3.07-68.82Z"/>
          <path class="cls-3" d="M984.73,942.53c-21.08-88.55,141.35-330.55,141.35-330.55l-15.72-10.55c-51.08,67.84-152.06,211.98-142.37,279.56,9.53,66.45-137.05,265.79-223.62,367.63-28.53,33.56-74.15,41.6-102.93,18.22l-89.93-55.85-50.66-41.16c-12.96,33.26-5.05,69.31,21.22,86.94l77.96,52.33,77.96,52.33c30.78,20.66,75.49,8.5,100.84-27.52,76.93-109.3,221.44-326.06,205.89-391.37Z"/>
          <path class="cls-7" d="M1142.21,582.24l-74.9-50.27c-5.09-3.42-12.5-1.28-16.56,4.76l-17.69,26.35c-4.06,6.05-3.22,13.72,1.87,17.13l74.9,50.27c5.09,3.42,12.5,1.28,16.56-4.76l17.69-26.35c4.06-6.05,3.22-13.72-1.87-17.13Z"/>
        </g>
        <g>
          <path class="cls-1" d="M1204.5,1011.2l-.17-2.08c-.41-5.6-1-11.07-1.86-16.33-1.6-10.62-3.9-20.65-6.65-30.25-11.07-38.36-27.76-70.87-45.93-101.62-18.54-30.82-38.11-58.7-61.13-86.94-10.76-13.22-29.89-16.83-44.88-7.74-16.38,9.93-21.61,31.27-11.67,47.65l.78,1.29c15.75,25.98,30.87,55.25,42.87,83.66,10.19,24.18,18.42,48.86,22.94,72.14-16.45-6.72-32.66-17.89-39.55-28.17-2.61-3.85-5.87-7.75-9.41-11.05-25.57-23.85-65.63-22.46-89.48,3.1-23.85,25.57-22.46,65.63,3.1,89.48l6.05,5.65c18.9,17.64,39.25,29.41,59.84,38.16,20.75,8.61,41.69,14.33,64.84,16.75,11.73,1.09,23.7,1.61,38.26-.27,7.13-.92,15.34-2.58,24.87-6.18,9.31-3.75,21.71-9.58,33.24-24.02,5.55-6.9,10.19-16.43,12.2-25.47,1.23-4.78,1.51-8.82,1.73-13.19l.07-3.22-.07-1.34Z"/>
          <path class="cls-19" d="M1118.48,813.01c-28.68,22.72-54.64,30.68-67.85,33.36,9.12,17.07,17.71,34.7,25.07,52.1,19.49-5.64,46-16.64,74.01-37.85-9.97-16.55-20.29-32.24-31.23-47.61Z"/>
          <path class="cls-12" d="M1085.54,838.46c-8.11-17.07-16.67-33.99-26.19-50.33-3.17-5.44-8.89-19.47-15.47-21.9h0c-16.38,9.93-21.61,31.27-11.67,47.65l.78,1.29c15.75,25.98,30.87,55.25,42.87,83.66,10.19,24.18,18.42,48.86,22.94,72.14l31.28,11.52c-8.39-50.16-22.69-98.02-44.54-144.03Z"/>
          <path class="cls-12" d="M1130.08,1062.8c-46.97-4.86-104.46-40.68-104.46-40.68,0,0-40.77-35.59-79.59-61.39-6.29,22.12-.53,46.84,17.43,63.6l6.05,5.65c18.9,17.64,39.25,29.41,59.84,38.16,20.75,8.61,41.69,14.33,64.84,16.75,11.73,1.09,23.7,1.61,38.26-.27,7.13-.92,15.34-2.58,24.87-6.18,9.31-3.75,21.71-9.58,33.24-24.02,5.55-6.9,10.19-16.43,12.2-25.47,1.23-4.78,1.51-8.82,1.73-13.19l.07-3.22-.07-1.34-.17-2.08s-27.28,58.56-74.25,53.69Z"/>
          <path class="cls-11" d="M994.87,875.17s-71.75-85.09-130.23-22.07c-58.48,63.01,1.83,161.96,61.22,178.67,59.4,16.71,87.29,4.18,112.7-21.02,25.42-25.2,51.89-85.71,16.61-118.76-35.29-33.05-45.21,3.49-45.21,3.49l-15.09-20.31Z"/>
        </g>
        <g>
          <path class="cls-1" d="M703.37,840.76c2.49-.11-1.36.98-2.7,1.83-1.95,1.11-4.08,2.21-6.16,3.58-4.27,2.75-8.4,6.35-12.55,9.96-3.83,4.43-8.09,7.92-11.5,13.13l-5.42,7.16-4.82,8.06c-12.71,21.66-21.79,47.33-28.04,74.38-2.78,13.74-5.39,27.59-7.28,41.69-1.18,14.48-3.54,28.37-3.85,43.09-.33,14.7-1.55,29.03-1.21,43.84l.92,44.28.06,2.78c.69,33.18-25.65,60.63-58.83,61.32-33.18.69-60.63-25.65-61.32-58.83-.05-2.47.09-5.24.33-7.64l5.31-49.62c1.77-16.49,5.22-33.21,7.8-49.71,2.54-16.5,7.37-33.23,11-49.7,4.42-16.55,9.74-33.1,15.42-49.48,12.24-32.75,28.16-65.35,51.42-95.07,2.97-3.69,5.81-7.4,8.92-10.99l10.19-10.41c6.44-7.04,14.81-13.08,22.48-19.25,8.44-5.75,17.1-11.18,26.81-15.61,4.86-2.23,10.01-4.14,15.3-5.94,6.06-1.71,9.68-3.06,19.94-4.32,19.73-2.15,37.47,12.1,39.63,31.83,2.15,19.73-12.09,37.47-31.83,39.63Z"/>
          <path class="cls-19" d="M608.99,816.51l-8.15,8.32c-3.11,3.59-5.95,7.3-8.92,10.99-6.51,8.31-12.32,16.89-17.76,25.6,16.83,14.17,41.6,31.75,74.65,46.1,3.46-8.01,7.15-15.8,11.39-23.02l4.82-8.07,5.42-7.16c2.68-4.08,5.85-7.16,8.95-10.41-32-12.5-55.07-29.18-70.41-42.34Z"/>
          <path class="cls-12" d="M735.19,801.14c-.21-1.9-.68-3.69-1.16-5.48-.74.12-81.29,13.06-107.24,78.7-12.92,32.68-20.99,74.68-25.85,108.75-4.47,31.34-30.72,54.6-62.31,56.69-8.93.59-18.13,1.96-26.94,4.51-2.05,11.84-4.13,23.71-5.39,35.47l-5.31,49.62c-.24,2.39-.38,5.17-.33,7.64.77,37.45,35.65,66.19,74.38,57.18,27.73-6.45,46.33-32.76,45.74-61.23l-.02-1.22-.92-44.28c-.34-14.82.89-29.15,1.21-43.84.31-14.72,2.67-28.61,3.85-43.09,1.89-14.1,4.49-27.96,7.28-41.69,6.26-27.05,15.33-52.71,28.04-74.37l4.82-8.07,5.42-7.16c3.42-5.21,7.67-8.7,11.5-13.13,4.15-3.62,8.28-7.22,12.55-9.96,2.08-1.37,4.21-2.47,6.16-3.58,1.34-.85,5.19-1.95,2.7-1.83,19.73-2.16,33.98-19.89,31.83-39.63Z"/>
          <path class="cls-11" d="M622.02,1194.02s1.86,111.28-83.62,102.25c-85.49-9.04-105.09-123.25-71.32-174.89,33.77-51.64,63.03-60.53,98.74-58.25,35.72,2.28,95.44,30.47,90.58,78.57-4.86,48.1-36.36,27.09-36.36,27.09l1.98,25.23Z"/>
        </g>
        <g>
          <path class="cls-16" d="M1352.22,277.12c2.52-3.94-2.02-8.58-6.01-6.14l-54.69,33.42c-3.25,1.99-7.32-.81-6.63-4.56l17.43-94.27c.77-4.18-4.24-6.93-7.35-4.02l-69.47,65.13c-2.81,2.64-7.42.64-7.42-3.21v-36.56c0-4.81-6.61-6.14-8.47-1.7l-52.65,125.59c-1.8,4.29-8.16,3.22-8.46-1.42l-2.17-33.98c-.32-4.96-7.32-5.68-8.65-.89l-37.53,136.1-10.38-37.45-22.48,118.82,74.9,50.27,126.81-66.35c4.08-2.13,2.56-8.31-2.04-8.31h-40.97c-3.98,0-5.92-4.87-3.02-7.61l116.67-110.22c3.71-3.51-.52-9.47-5.06-7.11l-60.32,31.34c-4.01,2.08-8.18-2.49-5.74-6.29l83.69-130.57Z"/>
          <path class="cls-16" d="M1307.63,487.54c0,5.79-4.69,10.48-10.48,10.48s-10.48-4.69-10.48-10.48,4.69-10.48,10.48-10.48,10.48,4.69,10.48,10.48Z"/>
          <path class="cls-16" d="M1244.04,194.52c0,5.79-4.69,10.48-10.48,10.48s-10.48-4.69-10.48-10.48,4.69-10.48,10.48-10.48,10.48,4.69,10.48,10.48Z"/>
          <path class="cls-16" d="M1056.83,456.94c0,5.79-4.69,10.48-10.48,10.48s-10.48-4.69-10.48-10.48,4.69-10.48,10.48-10.48,10.48,4.69,10.48,10.48Z"/>
          <path class="cls-16" d="M1363.43,220.46c0,5.79-4.69,10.48-10.48,10.48s-10.48-4.69-10.48-10.48,4.69-10.48,10.48-10.48,10.48,4.69,10.48,10.48Z"/>
          <path class="cls-16" d="M1384.39,336.75c0,5.79-4.69,10.48-10.48,10.48s-10.48-4.69-10.48-10.48,4.69-10.48,10.48-10.48,10.48,4.69,10.48,10.48Z"/>
          <path class="cls-16" d="M1110.65,326.27c0,5.79-4.69,10.48-10.48,10.48s-10.48-4.69-10.48-10.48,4.69-10.48,10.48-10.48,10.48,4.69,10.48,10.48Z"/>
          <path class="cls-13" d="M1086.78,545.04l22.07-67.98s-7.23,38.52,0,30.1c7.23-8.42,37.8-125.52,37.8-125.52l11.35,39.95,89.17-120.9-37.04,137.34,36.06-2.89-75.18,95.21h33.57l-74.5,43.76-43.3-29.07Z"/>
        </g>
      </g>
    </g>
  </g>
</svg>