<?xml version="1.0" encoding="UTF-8"?>
<svg xmlns="http://www.w3.org/2000/svg" viewBox="0 0 1764.58 1668.26">
  <defs>
    <style>
      .cls-1, .cls-2 {
        fill: #f991f4;
      }

      .cls-3, .cls-4, .cls-5, .cls-6, .cls-7 {
        opacity: .5;
      }

      .cls-3, .cls-8 {
        fill: #ff7271;
      }

      .cls-9, .cls-7, .cls-10 {
        fill: #fff;
      }

      .cls-4 {
        fill: #161616;
      }

      .cls-4, .cls-6 {
        mix-blend-mode: multiply;
      }

      .cls-5, .cls-11 {
        fill: #6b3d6b;
      }

      .cls-6, .cls-12 {
        fill: #231f20;
      }

      .cls-11 {
        opacity: .4;
      }

      .cls-13 {
        isolation: isolate;
      }

      .cls-14 {
        fill: #8cc8db;
      }

      .cls-15, .cls-16, .cls-17 {
        fill: #240b4a;
      }

      .cls-15, .cls-17 {
        mix-blend-mode: overlay;
      }

      .cls-7, .cls-10 {
        mix-blend-mode: soft-light;
      }

      .cls-2 {
        stroke: #dd85dd;
        stroke-miterlimit: 10;
        stroke-width: 8.42px;
      }

      .cls-18 {
        fill: #414142;
      }

      .cls-17 {
        opacity: .3;
      }

      .cls-19 {
        fill: #6ea2ff;
      }
    </style>
  </defs>
  <g class="cls-13">
    <g id="OBJECTS">
      <g>
        <g>
          <g>
            <path class="cls-1" d="M1105.97,759.5c13.81,11.6,25.14,22.28,37.01,34.11,11.63,11.69,22.75,23.99,33.59,36.74,21.32,25.85,41.2,53.98,57.06,86.82,3.58,8.55,7.72,16.66,10.7,25.8l4.61,13.6c1.57,4.67,2.42,8,3.66,12.08,4.65,15.58,8.85,31.42,12.69,47.51,3.84,16.09,7.26,32.44,10.03,49.33,1.34,8.5,2.63,17,3.6,25.93.5,4.46.95,8.93,1.28,13.7l.44,7.31c.09,2.89.25,4.51.1,9.48-2.62,35.91-33.85,62.9-69.76,60.28-35.91-2.62-62.9-33.85-60.28-69.76.07,1.13.34-1.1.49-2.05l.46-4.23c.29-2.92.5-6.14.66-9.36.37-6.45.43-13.27.47-20.1-.02-13.74-.66-27.91-1.74-42.17-1.08-14.27-2.51-28.69-4.41-43.16-.47-3.42-.91-7.68-1.41-10.42l-1.42-8.67c-.72-5.81-2.83-11.85-4.11-17.88-7.11-24.29-18.99-49.35-33.24-73.62-7.33-12.06-15.08-24.07-23.48-35.73-8.23-11.44-17.67-23.49-26.02-33.23l-1.28-1.5c-12.89-15.03-11.16-37.67,3.87-50.56,13.52-11.6,33.21-11.35,46.41-.24Z"/>
            <path class="cls-19" d="M1183.88,839.6c-13.56,14.61-39.4,36.49-76.25,43.23,8.96,15.43,16.82,31.15,23.2,46.79,37.14-10,64.96-30.71,82.81-48.08-9.29-14.8-19.27-28.72-29.76-41.93Z"/>
            <path class="cls-5" d="M1175.85,966.73c-29.6-110.17-87.72-169.45-124.11-197.25-7.15,12.75-6.12,29.08,3.95,40.83l1.28,1.5c8.35,9.74,17.79,21.79,26.02,33.23,8.39,11.66,16.14,23.67,23.48,35.73,14.25,24.27,26.13,49.33,33.24,73.62,1.28,6.03,3.39,12.07,4.11,17.88l1.42,8.67c.5,2.74.94,7,1.41,10.42,1.91,14.47,3.34,28.88,4.41,43.16,1.07,14.27,1.72,28.43,1.74,42.17-.04,6.83-.1,13.65-.47,20.1-.16,3.22-.37,6.44-.66,9.36l-.46,4.23c-.15.95-.41,3.18-.49,2.05-2.62,35.91,24.37,67.14,60.28,69.76,35.91,2.62,67.14-24.37,69.76-60.28.15-4.97-.01-6.59-.1-9.48l-.39-6.41c-28.91-20.49-86.1-26.85-86.1-26.85l-18.33-112.43Z"/>
          </g>
          <g>
            <path class="cls-1" d="M760.11,845.81l-6.7,5.98-5.94,4.96c-3.93,3.25-7.86,6.16-11.8,9.16-7.91,5.79-15.92,11.22-24.09,16.31-16.32,10.2-33.27,18.97-50.79,26.35-34.89,15.16-72.25,24.03-110.2,27.02-39.85,3.82-85.38-5.96-123.42-30.05-19.24-11.82-36.45-27.12-51.52-44.37-7.52-8.66-14.53-17.83-21.04-27.58-3.2-4.94-6.39-9.9-9.38-15.27-1.52-2.56-3.02-5.45-4.5-8.29-.72-1.36-1.49-2.88-2.29-4.58-.76-1.6-1.47-3.02-2.75-6.09-12.58-32.07.22-69.59,28.6-83.82,28.38-14.22,61.58.25,74.16,32.32-.42-.94-.18-.28,0,.21.12.4.33.95.63,1.62.53,1.25,1,2.49,1.7,3.89,1.2,2.73,2.71,5.49,4.18,8.29,3.07,5.54,6.52,10.95,10.24,16.07,7.48,10.19,15.96,19.25,25.43,26.25,9.53,6.84,19.51,13.15,30.82,16.45,5.44,2.32,11.51,2.83,17.31,4.51l9.21.89c3.07.33,6.04.83,9.77.65,28.27.34,57.02-3.51,84.86-12.8,13.95-4.43,27.72-10.06,40.98-16.82,6.63-3.36,13.13-7,19.46-10.83,3.08-1.97,6.26-3.9,9.17-5.93,2.82-1.82,6.26-4.46,7.61-5.36l5.34-3.53c19.03-12.62,43.51-5.41,54.68,16.1,10.22,19.7,5.73,44.56-9.71,58.3Z"/>
            <path class="cls-19" d="M650.77,807.28c-6.02,2.4-12.07,4.66-18.19,6.61-7.37,2.46-14.82,4.49-22.29,6.21,15.3,35.98,46.52,63.06,69.99,79.32,10.63-5.25,21.13-10.86,31.29-17.21,3.36-2.09,6.61-4.5,9.93-6.72-15.62-8.94-54.36-33.85-70.72-68.22Z"/>
            <path class="cls-5" d="M715.14,771.41l-5.34,3.53c-1.35.9-4.79,3.54-7.61,5.36-2.92,2.03-6.09,3.96-9.17,5.93-6.33,3.83-12.83,7.46-19.46,10.83-4.64,2.36-9.4,4.41-14.14,6.49-11.57,25.92-27.38,64.46-27.38,81.59,0,27-140.26,38.05-186.98,0-29.45-17.57-40.07-31.42-40.07-31.42v-57.09s24.24-12.39,43.15-29.75c-1.03-1.7-2.24-3.29-3.2-5.02-1.47-2.8-2.98-5.56-4.18-8.29-.71-1.4-1.17-2.64-1.7-3.89-.3-.68-.51-1.22-.63-1.62-.18-.48-.42-1.15,0-.21-12.58-32.07-45.78-46.54-74.16-32.32-28.37,14.22-41.18,51.75-28.6,83.82,1.28,3.08,1.99,4.49,2.75,6.09.8,1.7,1.56,3.23,2.29,4.58,1.48,2.85,2.98,5.73,4.5,8.29,2.99,5.36,6.18,10.33,9.38,15.27,6.51,9.75,13.52,18.93,21.04,27.58,15.07,17.24,32.29,32.55,51.52,44.37,38.04,24.09,83.57,33.87,123.42,30.05,37.95-3,75.31-11.86,110.2-27.02,17.51-7.38,34.47-16.15,50.79-26.35,8.17-5.08,16.19-10.52,24.09-16.31,3.94-3,7.87-5.91,11.8-9.16l5.94-4.96,6.7-5.98c15.44-13.74,19.94-38.6,9.71-58.3-11.16-21.51-35.65-28.72-54.68-16.1Z"/>
            <path class="cls-12" d="M406.46,628.76c-8.77-26.13-14.56-50.23-15.06-80.18-.89-52.8-66.55-5.79-56.56,40.41,7.29,33.72-45.14,28.23-61.4,31.14-41.94,7.52-66.44,42.13-71.17,84.77-7.59,68.5,77.82,109.76,141.87,107.72,37.67-1.2,65.55-33.64,76.56-67.21,10.71-32.66,4.33-65.23-7.18-96.66-2.52-6.87-4.88-13.49-7.06-19.98Z"/>
          </g>
          <path class="cls-1" d="M1102.23,809.6c-53.01-71.65-145.05-97.53-186.37-105.84-14.05-2.83-28.26-2.83-42.31,0-41.32,8.31-133.37,34.18-186.38,105.84-30.82,44.74-14.72,291.38,32.13,361.53h350.81c46.85-70.15,62.95-316.8,32.12-361.53Z"/>
          <path class="cls-5" d="M1102.23,809.6c-6.39-8.64-13.38-16.59-20.76-23.95,1.19,10.38,2.05,21.76,2.48,34.06,5.39,152.56-96.71,279.28-222.96,279.28h-168.99c7.34,30.32,16.48,55.96,27.29,72.14h350.81c46.85-70.15,62.95-316.8,32.12-361.53Z"/>
          <rect class="cls-12" x="884.13" y="788.76" width="21.14" height="361.49"/>
          <g>
            <path class="cls-18" d="M1242.29,1189.54h-641.9s-115.81,13.21-115.81,192.86,115.81,192.86,115.81,192.86h641.9s115.81-13.21,115.81-192.86-115.81-192.86-115.81-192.86Z"/>
            <path class="cls-4" d="M1286.24,1207.82c11.75,26.98,19.76,62.57,19.76,109.69,0,179.65-115.81,192.86-115.81,192.86h-641.9s-20.34-2.37-43.96-18.28c33.06,75.9,96.05,83.17,96.05,83.17h641.9s115.81-13.21,115.81-192.86c0-104.39-39.09-152.52-71.85-174.58Z"/>
          </g>
          <path class="cls-12" d="M1163.32,1113c25.94-13.11,56.56-12.99,82.06.94,47.09,25.72,120.94,75.23,121.08,132.82,3.01,34.91-116.13-.81-154.76-22.43-27.61-11.8-57.26-19.48-57.26-19.48,0,0-2.73,32.49-33.65,28.5-30.92-3.99-20.07-61.42,1.39-89.99,8.95-11.92,25.21-22.29,41.14-30.34Z"/>
          <g>
            <path class="cls-1" d="M1290.79,447.73c0,212.92-89.67,341.03-385.53,341.03s-385.53-128.11-385.53-341.03S692.35,62.2,905.27,62.2s385.53,172.61,385.53,385.53Z"/>
            <path class="cls-11" d="M1224.95,232.18c25.07,51.15,41.82,108.69,39.19,169.44-9.03,208.48-111.63,318.99-385.53,326.67-169.93,4.77-271.82-28.01-327.77-104.39,46.98,105.31,152.78,164.86,354.42,164.86,295.86,0,385.53-128.11,385.53-341.03,0-79.85-24.28-154.02-65.84-215.55Z"/>
            <path class="cls-10" d="M924.3,93.2c-32.28-3.46-68.07.71-88.71,5.25-75.66,16.65-162.28,65.13-191.77,141.49-20.88,54.05,53.97,87.1,176.63,48.74,122.65-38.35,161.3-92.39,170.05-123.58,13.76-49.07-23.1-67.28-66.2-71.9Z"/>
            <g>
              <path class="cls-19" d="M1289.8,421.5c-14.59,14.37-29.22,28.68-43.64,43.23-38.77,39.27-77.88,78.19-115.96,118.17-38.49,39.56-76.23,79.89-113.89,120.3-25.71,28.07-51.25,56.32-76.5,84.86,4.63-.17,9.24-.35,13.76-.59,26.59-22.23,52.98-44.68,79.23-67.26,41.57-36.38,83.05-72.85,123.79-110.09,41.15-36.82,81.27-74.69,121.73-112.22,3.81-3.55,7.55-7.18,11.35-10.75.75-12.8,1.12-25.94,1.12-39.43,0-8.83-.4-17.55-.99-26.23Z"/>
              <path class="cls-19" d="M1130.19,411.01l84.45-6,72.97-6.13c-2.05-16.22-5-32.17-9-47.7l-68.25,6.67-84.15,9.32c-8.78.99-17.56,1.96-26.34,2.93l22.27-21.65,64.05-63.91,43.65-44.72c-3.21-4.99-6.52-9.9-9.94-14.74l-50.68,40.77-69.75,57.64-68.96,58.51-44.33,37.61,59.52-3.03c28.2-1.43,56.33-3.64,84.49-5.57Z"/>
            </g>
            <g>
              <path class="cls-19" d="M711.06,323.49l-69.75-57.64-50.68-40.77c-3.43,4.83-6.74,9.74-9.94,14.73l43.65,44.72,64.05,63.91,22.27,21.65c-8.78-.97-17.56-1.94-26.34-2.93l-84.14-9.32-68.25-6.67c-4,15.53-6.95,31.48-9,47.7l72.97,6.13,84.45,6c28.16,1.93,56.28,4.14,84.48,5.57l59.52,3.03-44.33-37.61-68.96-58.51Z"/>
              <path class="cls-19" d="M794.22,703.2c-37.66-40.41-75.4-80.74-113.89-120.3-38.08-39.98-77.19-78.91-115.96-118.17-14.42-14.54-29.06-28.86-43.64-43.23-.58,8.68-.99,17.4-.99,26.23,0,13.49.37,26.63,1.12,39.43,3.8,3.57,7.54,7.2,11.35,10.75,40.46,37.53,80.58,75.4,121.73,112.22,40.74,37.24,82.23,73.71,123.79,110.09,26.25,22.58,52.64,45.02,79.23,67.26,4.52.24,9.13.42,13.76.59-25.26-28.54-50.8-56.79-76.5-84.86Z"/>
            </g>
            <g>
              <path class="cls-14" d="M896.64,365.05h-326.28s17.23,190.09,110.41,252.08c93.18,61.99,338.55,61.99,431.74,0,93.18-61.99,110.41-252.08,110.41-252.08h-326.28Z"/>
              <g>
                <path class="cls-7" d="M941.69,365.05h-146.47c-33.19,53.05-78.58,126.42-141.55,228.36,8.24,9.08,17.22,17.15,27.1,23.73,21.12,14.05,50.1,24.88,83.31,32.56,58.91-95.21,134.23-216.28,177.61-284.65Z"/>
                <path class="cls-7" d="M1027.36,365.05c-34.98,55.12-91.5,145.99-184.41,296.42,23.45,1.87,47.53,2.52,71.41,1.91,63.14-102.05,144.5-232.77,186.33-298.33h-73.33Z"/>
              </g>
            </g>
          </g>
          <g>
            <path class="cls-12" d="M521.66,1233.74s-37.21,49.36-70.05,71.02c-32.84,21.66-34.12,39.22-32.37,49.77,1.75,10.55,65.4-.27,143.4-22.55,78-22.28,97.87-41.46,92.87-63.37-5-21.9-39.56-61.81-39.56-61.81,0,0-72.59-10.63-94.28,26.93Z"/>
            <path class="cls-6" d="M541.16,1321.82c78-22.28,97.87-41.46,92.87-63.37-3.52-15.44-21.7-39.77-32.14-52.82,8.44.38,14.06,1.17,14.06,1.17,0,0,34.57,39.91,39.56,61.81,5,21.9-14.87,41.09-92.87,63.37-78,22.28-141.64,33.1-143.4,22.55-.32-1.92-.53-4.07-.48-6.44,25.21-1.77,70.57-11.47,122.39-26.27Z"/>
          </g>
          <path class="cls-12" d="M900.18,1172.5c-108.11,0-186.94-13.54-191.86-14.4-14.12-2.49-23.68-16.78-21.38-31.93,2.3-15.15,15.73-25.43,29.75-22.96,1.75.31,176.72,30.24,359.86-.04,14.18-2.39,27.38,8.08,29.55,23.24,2.18,15.18-7.52,29.39-21.66,31.72-65.12,10.77-128.58,14.37-184.27,14.37Z"/>
          <path class="cls-2" d="M870.7,1169.02s-240.86-305.48-315.27-125.32c-66.58,170.36-41.12,211.48,21.54,211.48s86.16-19.58,101.83-47c0,0,47,93.99,115.53,97.91,68.54,3.92,101.83-72.45,76.37-137.07Z"/>
          <path class="cls-19" d="M553.96,1047.54c-7.41,19.14-13.66,36.66-18.78,52.61,71.71,22.69,144.01,70.13,144.97,64.37,1.14-6.84,0-41.06,0-41.06-37.75-37.05-90.76-62.07-126.19-75.93Z"/>
          <path class="cls-5" d="M820.72,1112.16c-75.61,24.8-88.09,100.38-88.09,100.38l-51.97-52.37s-35.42,51.53-82.87,60.82c-32.7,6.4-68.8-17.82-85.54-31.45-1.98,53.26,26.45,72.71,64.72,72.71,62.66,0,83.83-22.01,101.75-45.25,0,0,48.96,89.24,115.61,98.68,67.98,9.63,101.83-76.04,76.37-143.85,0,0-19.91-26.46-49.98-59.67Z"/>
          <g>
            <path class="cls-12" d="M769.28,1435.66s-32.29,52.7-62.91,77.42c-30.61,24.71-30.2,42.31-27.44,52.65,2.76,10.33,65.07-6.54,140.57-36.21,75.5-29.67,93.43-50.67,86.35-71.99-7.08-21.32-45.32-57.73-45.32-57.73,0,0-73.27-3.61-91.26,35.86Z"/>
            <path class="cls-6" d="M797.14,1521.47c75.5-29.67,93.43-50.67,86.35-71.99-4.99-15.03-25.42-37.5-37.07-49.49,8.44-.43,14.11-.18,14.11-.18,0,0,38.24,36.41,45.32,57.73,7.08,21.32-10.86,42.32-86.35,71.99-75.5,29.67-137.81,46.54-140.57,36.21-.5-1.88-.92-4.01-1.09-6.36,24.92-4.19,69.14-18.19,119.31-37.9Z"/>
          </g>
          <path class="cls-1" d="M1019.53,1120.21c-11.31-1.86-22.96-2.23-34.9-2.22-46.92.05-95.01,3.38-140.32,16.39-33.47,9.61-79.35,28.83-86.67,69.07-15.31,84.03-40.06,210.68,32.75,223.76,72.81,13.08,135.07-20.86,114.96-104.06l-4.46-49.57s152.61,16.36,184.4-58.15c13.37-31.34,11.75-68.3-15.09-86.27-12.4-8.3-37.18-6.73-50.66-8.94Z"/>
          <path class="cls-19" d="M913.85,1274.51c-57.38-23.89-119.15-29.34-163.62-29.28-2.79,16.68-5.31,33.87-7.03,50.83,42.89-.64,107.37,3.92,162.76,30.36-.24-1.11-.34-2.14-.61-3.27l-4.46-49.57s4.88.51,12.97.94Z"/>
          <path class="cls-5" d="M1085.28,1215.42c5.9-13.82,8.65-28.68,7.84-42.57-31.17,64.48-179.27,64.36-179.27,64.36l-19.15-28.01-10.57,29.33-13.86,6.69s6.61,89.82-15.94,126.83c-17.73,29.1-82.52,12.48-109.51,4.03,5.92,26.85,19.35,46.41,45.56,51.11,72.81,13.08,135.07-20.86,114.96-104.06l-4.45-49.57s152.6,16.36,184.4-58.15Z"/>
        </g>
        <g>
          <g>
            <g>
              <path class="cls-3" d="M712.49,557.24c0,12.18-18.27,22.05-40.81,22.05s-40.81-9.87-40.81-22.05,18.27-22.05,40.81-22.05,40.81,9.87,40.81,22.05Z"/>
              <path class="cls-3" d="M1055.77,557.24c0,12.18,18.27,22.05,40.81,22.05s40.81-9.87,40.81-22.05-18.27-22.05-40.81-22.05-40.81,9.87-40.81,22.05Z"/>
              <circle class="cls-16" cx="733.59" cy="473.19" r="88.7" transform="translate(-125.93 320.57) rotate(-22.75)"/>
              <path class="cls-15" d="M764.5,504.71c-24.17-.23-40.93-12.99-57.65-28.82-13.44-12.73-31.32-25.82-48.6-9.89-8.97,8.27-10.38,19.18-10.21,30.3,10.18,37.76,44.57,65.6,85.55,65.6,48.99,0,88.7-39.71,88.7-88.7,0-2.1-.17-4.15-.31-6.21-9.72,21.7-32.76,37.97-57.47,37.73Z"/>
              <path class="cls-9" d="M793.06,439.1c0,17.68-14.33,32.01-32.01,32.01s-32.01-14.33-32.01-32.01,14.33-32.01,32.01-32.01,32.01,14.33,32.01,32.01Z"/>
              <circle class="cls-9" cx="688.44" cy="505.17" r="17.12"/>
              <path class="cls-9" d="M702.49,532.29c0-5.52,4.48-10,10-10s10,4.48,10,10-4.48,10-10,10-10-4.48-10-10Z"/>
              <path class="cls-8" d="M926.52,564.4c-6.59,18.67-19.63,36.29-42.4,36.29s-35.83-17.64-42.38-36.31c-6.9-19.58-6.71-40.29-3.21-43.05,6.81-5.39,16.13,5.46,45.59,5.46s38.78-10.86,45.61-5.46c3.5,2.76,3.69,23.49-3.21,43.07Z"/>
              <path class="cls-17" d="M926.52,564.4c-6.59,18.67-19.63,36.29-42.4,36.29s-35.83-17.64-42.38-36.31c-6.9-19.58-6.71-40.29-3.21-43.05,6.81-5.39,16.13,5.46,45.59,5.46s38.78-10.86,45.61-5.46c3.5,2.76,3.69,23.49-3.21,43.07Z"/>
            </g>
            <g>
              <path class="cls-16" d="M1001.61,333.04c5.12,8.25,31.22-7.01,51.99,2.68,20.76,9.69,28.54,15.07,31.99,13.05,3.45-2.02-4.64-31.69-41.08-40.82-36.44-9.12-54.35,6.64-42.89,25.09Z"/>
              <path class="cls-16" d="M766.65,333.04c-5.12,8.25-31.22-7.01-51.99,2.68-20.76,9.69-28.54,15.07-31.99,13.05-3.45-2.02,4.64-31.69,41.08-40.82,36.44-9.12,54.35,6.64,42.89,25.09Z"/>
            </g>
          </g>
          <path class="cls-16" d="M948.2,480.14c0,48.99,16.07-40.99,83.62-40.99s93.78,89.98,93.78,40.99-39.71-88.7-88.7-88.7-88.7,39.71-88.7,88.7Z"/>
          <path class="cls-8" d="M926.52,564.4c-6.59,18.67-19.63,36.29-42.4,36.29s-35.83-17.64-42.38-36.31c11.77-7.41,26.46-11.82,42.38-11.82s30.63,4.41,42.4,11.84Z"/>
        </g>
        <path class="cls-16" d="M674.09,427.92c-11.7-3.19-24.81-32.25-35.44-28.35-10.63,3.9,4.61,31.54,25.87,39.69,21.27,8.16,9.57-11.34,9.57-11.34Z"/>
        <path class="cls-16" d="M663.88,447.39c-12.11.46-33.33-23.35-42.3-16.44-8.98,6.9,13.84,28.71,36.57,30.13,22.73,1.42,5.74-13.68,5.74-13.68Z"/>
      </g>
    </g>
  </g>
</svg>