<?xml version="1.0" encoding="UTF-8"?>
<svg xmlns="http://www.w3.org/2000/svg" viewBox="0 0 1771.08 1544.17">
  <defs>
    <style>
      .cls-1 {
        fill: #f991f4;
      }

      .cls-2, .cls-3, .cls-4 {
        opacity: .5;
      }

      .cls-2, .cls-5 {
        fill: #ff7271;
      }

      .cls-6, .cls-4, .cls-7 {
        fill: #fff;
      }

      .cls-3, .cls-8 {
        fill: #6b3d6b;
      }

      .cls-9 {
        fill: #c1b49a;
      }

      .cls-8 {
        opacity: .4;
      }

      .cls-10, .cls-11 {
        fill: #231f20;
      }

      .cls-12 {
        isolation: isolate;
      }

      .cls-13 {
        fill: #8cc8db;
      }

      .cls-4, .cls-7 {
        mix-blend-mode: soft-light;
      }

      .cls-14 {
        fill: #240b4a;
      }

      .cls-11 {
        mix-blend-mode: multiply;
      }

      .cls-15 {
        fill: #6ea2ff;
      }
    </style>
  </defs>
  <g class="cls-12">
    <g id="OBJECTS">
      <g>
        <g>
          <path class="cls-1" d="M1315.69,817.17c.07-.15.68,1.07,1.2,2.03.46.92,1.09,1.99,1.75,3.09,1.23,2.15,2.51,4.31,4.04,6.48,2.7,4.39,6.18,8.5,9.3,12.69,7.03,7.92,14.23,15.62,22.62,21.82,16.36,12.86,35.09,21.66,54.94,27.1l15.3,3.12c4.97,1.27,10.58,1.02,15.77,1.67,10.31,1.58,21.57.27,32.29.24,10.91-.63,22.19-2.93,33.12-4.11l33.48-8.02,4.19-1.01c30.43-7.29,61.01,11.47,68.29,41.9,7.29,30.43-11.47,61-41.9,68.29-2.41.58-5.15,1.02-7.55,1.28l-44.88,4.49c-15.47-.11-30.6.64-46.1-.54-15.65-1.81-31.02-2.57-46.64-6.78-7.76-1.97-15.5-3.05-23.13-5.89l-22.75-8.12c-29.83-12.63-57.59-31.01-79.89-54.31-11.39-11.41-20.86-24.46-29.51-37.79-3.97-6.97-8.07-13.73-11.4-21.13-1.78-3.56-3.4-7.34-4.94-11.2-.78-1.88-1.56-3.81-2.29-5.97-.74-2.1-1.42-3.93-2.43-7.21-6.11-18.53,3.96-38.51,22.49-44.62,18.53-6.11,38.51,3.96,44.62,22.49Z"/>
          <path class="cls-3" d="M1494.37,961.06c-24.42,21.42-128.83-6.39-103.88-16.85,14.46-6.06,46.71-29.69,71.3-48.51-7.18.27-14.38.49-21.16-.54-5.18-.65-10.8-.4-15.77-1.67l-15.3-3.12c-19.85-5.44-38.58-14.24-54.94-27.1-8.39-6.2-15.59-13.9-22.62-21.82-3.12-4.19-6.6-8.3-9.3-12.69-1.53-2.17-2.81-4.33-4.04-6.48-.66-1.09-1.29-2.17-1.75-3.09-.52-.96-1.13-2.17-1.2-2.03-6.11-18.53-26.09-28.6-44.62-22.49-18.53,6.11-28.6,26.09-22.49,44.62,1,3.27,1.69,5.11,2.43,7.2.74,2.16,1.51,4.08,2.29,5.97,1.53,3.86,3.15,7.65,4.94,11.2,3.33,7.39,7.43,14.16,11.4,21.13,8.65,13.33,18.12,26.38,29.51,37.79,22.3,23.3,50.06,41.69,79.89,54.31l22.75,8.12c7.63,2.84,15.38,3.92,23.13,5.89,15.62,4.2,30.99,4.97,46.64,6.78,15.5,1.18,30.62.43,46.1.54l44.88-4.49c2.4-.26,5.14-.7,7.55-1.28,16.9-4.05,29.97-15.4,37.21-29.79-34.08-6.97-95.55-16.85-112.94-1.6Z"/>
        </g>
        <path class="cls-10" d="M1602.03,1336.85s45.21,35,79.61,46.09c34.4,11.1,39.94,26.63,41.05,36.62,1.11,9.98-57.7,16.64-132.04,16.64s-96.68-12.21-97.79-33.29c-1.11-21.08,19.3-66.07,19.3-66.07,0,0,61.29-28.34,89.86,0Z"/>
        <path class="cls-11" d="M1612.85,1420.13c-74.34,0-96.68-12.21-97.79-33.29-.79-15.08,9.4-42.31,15.28-56.64-10.76,3.26-18.17,6.64-18.17,6.64,0,0-20.41,44.98-19.3,66.07,1.11,21.08,23.45,33.29,97.79,33.29s133.15-6.66,132.04-16.64c-.21-1.87-.57-3.93-1.25-6.12-23.71,4.2-63.21,6.7-108.59,6.7Z"/>
        <path class="cls-10" d="M942.47,1358.59s-45.21,35-79.61,46.09c-34.4,11.1-39.95,26.63-41.05,36.62-1.11,9.99,57.7,16.64,132.04,16.64s96.68-12.2,97.79-33.29c1.11-21.08-19.3-66.06-19.3-66.06,0,0-61.29-28.34-89.86,0Z"/>
        <path class="cls-11" d="M1032.33,1358.59s-3.6-1.65-9.38-3.75c5.97,14.84,14.97,39.83,14.22,54.03-1.11,21.08-23.45,33.29-97.79,33.29-50.42,0-93.63-3.07-115.91-8.15-.93,2.62-1.42,5.1-1.66,7.29-1.11,9.99,57.7,16.64,132.04,16.64s96.68-12.2,97.79-33.29c1.11-21.08-19.3-66.07-19.3-66.07Z"/>
        <path class="cls-1" d="M1590.2,1295.95c-20.86-57.33-132.51-177.93-351.98-185.16-10.43-3.67-221.05-41.36-301.5,60.07-80.44,101.43-45.76,165.44-21.28,193.42,24.48,27.98,143.03,25.31,125.55-58.63-13.99-73.45,113.83-38.5,162.8-48.75,0,0,158.25,22.62,247.21,88.17,53.84,37.45,169.63,9.79,139.2-49.12Z"/>
        <path class="cls-1" d="M1373.4,833.1c-48.88-60.25-133.75-82-171.85-88.99-12.96-2.38-26.05-2.38-39.01,0-38.1,6.99-122.98,28.74-171.86,88.99-28.42,37.61-13.57,244.98,29.62,303.96h323.48c43.2-58.98,58.04-266.35,29.62-303.96Z"/>
        <path class="cls-3" d="M1373.4,833.1c-5.9-7.27-12.34-13.95-19.14-20.14,1.1,8.73,1.89,18.29,2.29,28.64,4.97,128.27-89.17,234.81-205.59,234.81h-155.82c6.76,25.49,15.2,47.05,25.16,60.65h323.48c43.2-58.98,58.04-266.35,29.62-303.96Z"/>
        <path class="cls-10" d="M1186.07,1161.26c-106.99,0-185-12.49-189.87-13.28-13.97-2.29-23.44-15.47-21.16-29.44,2.27-13.97,15.57-23.45,29.44-21.17,1.73.28,174.9,27.88,356.13-.04,14.03-2.2,27.09,7.45,29.25,21.44,2.15,14-7.44,27.1-21.44,29.25-64.45,9.93-127.25,13.25-182.36,13.25Z"/>
        <path class="cls-11" d="M1389.87,1118.76c-1.12-7.27-5.22-13.31-10.83-17.18.7,1.76,1.25,3.59,1.55,5.54,2.15,14-7.44,27.09-21.44,29.25-64.44,9.93-127.25,13.25-182.36,13.25-106.99,0-185-12.49-189.87-13.28-3.85-.63-7.3-2.15-10.31-4.22,3.22,8.07,10.38,14.34,19.59,15.86,4.87.8,82.88,13.28,189.87,13.28,55.11,0,117.91-3.32,182.36-13.25,13.99-2.15,23.59-15.25,21.44-29.25Z"/>
        <rect class="cls-10" x="1185.89" y="805.23" width="18.36" height="315.4"/>
        <g>
          <path class="cls-1" d="M1539.01,501.6c0,189.95-80,304.25-343.94,304.25s-343.94-114.29-343.94-304.25,153.99-343.94,343.94-343.94,343.94,153.99,343.94,343.94Z"/>
          <path class="cls-8" d="M1480.27,309.3c22.37,45.63,37.31,96.97,34.96,151.16-8.06,185.99-99.59,284.58-343.94,291.44-151.6,4.25-242.5-24.99-292.42-93.13,41.91,93.95,136.3,147.08,316.19,147.08,263.95,0,343.94-114.29,343.94-304.25,0-71.23-21.66-137.41-58.74-192.3Z"/>
          <path class="cls-7" d="M1212.05,185.31c-28.8-3.09-60.72.63-79.14,4.68-67.5,14.85-144.78,58.11-171.09,126.23-18.63,48.22,48.15,77.7,157.58,43.49,109.42-34.21,143.91-82.43,151.71-110.25,12.28-43.77-20.61-60.02-59.06-64.15Z"/>
          <g>
            <path class="cls-15" d="M1538.13,478.2c-13.01,12.82-26.07,25.59-38.93,38.57-34.59,35.03-69.48,69.76-103.45,105.43-34.34,35.29-68.01,71.27-101.61,107.33-22.93,25.05-45.72,50.25-68.25,75.71,4.13-.15,8.24-.32,12.28-.53,23.72-19.83,47.27-39.86,70.69-60,37.08-32.46,74.09-64.99,110.44-98.22,36.71-32.85,72.51-66.63,108.6-100.12,3.4-3.17,6.74-6.41,10.12-9.59.67-11.42,1-23.14,1-35.18,0-7.87-.36-15.66-.88-23.4Z"/>
            <path class="cls-15" d="M1395.74,468.85l75.34-5.35,65.1-5.47c-1.83-14.47-4.46-28.7-8.03-42.55l-60.89,5.95-75.07,8.31c-7.83.89-15.66,1.75-23.5,2.62l19.87-19.32,57.14-57.02,38.94-39.9c-2.86-4.45-5.81-8.84-8.87-13.15l-45.21,36.37-62.23,51.43-61.52,52.2-39.55,33.55,53.1-2.7c25.16-1.28,50.25-3.25,75.37-4.97Z"/>
          </g>
          <g>
            <path class="cls-15" d="M1021.81,390.76l-62.23-51.43-45.21-36.37c-3.06,4.31-6.01,8.69-8.87,13.15l38.94,39.9,57.14,57.02,19.87,19.32c-7.83-.87-15.67-1.73-23.5-2.62l-75.07-8.31-60.89-5.95c-3.57,13.86-6.2,28.08-8.03,42.55l65.1,5.47,75.34,5.35c25.12,1.72,50.21,3.69,75.37,4.97l53.1,2.7-39.55-33.55-61.52-52.2Z"/>
            <path class="cls-15" d="M1096,729.52c-33.6-36.06-67.27-72.04-101.61-107.33-33.97-35.67-68.86-70.4-103.45-105.43-12.86-12.98-25.92-25.75-38.94-38.57-.52,7.74-.88,15.53-.88,23.4,0,12.04.33,23.76,1,35.18,3.39,3.18,6.72,6.42,10.12,9.59,36.09,33.48,71.89,67.27,108.6,100.12,36.35,33.22,73.36,65.76,110.44,98.22,23.42,20.14,46.96,40.17,70.69,60,4.03.21,8.15.38,12.28.53-22.53-25.46-45.32-50.66-68.25-75.71Z"/>
          </g>
          <g>
            <path class="cls-13" d="M1187.37,427.84h-291.08s15.37,169.59,98.5,224.89c83.13,55.3,302.03,55.3,385.17,0,83.13-55.3,98.5-224.89,98.5-224.89h-291.08Z"/>
            <g>
              <path class="cls-4" d="M1227.56,427.84h-130.67c-29.61,47.33-70.1,112.78-126.28,203.73,7.35,8.1,15.36,15.3,24.18,21.17,18.84,12.53,44.7,22.2,74.32,29.05,52.55-84.94,119.75-192.96,158.45-253.94Z"/>
              <path class="cls-4" d="M1304,427.84c-31.21,49.18-81.63,130.24-164.52,264.45,20.92,1.67,42.4,2.25,63.71,1.7,56.33-91.04,128.91-207.66,166.23-266.15h-65.42Z"/>
            </g>
          </g>
        </g>
        <g>
          <path class="cls-1" d="M1048.08,803.76c.28.17,1.32,1.08,2.33,1.95.94.83,1.94,1.68,3.09,2.57,2.22,1.75,4.31,3.55,6.74,5.24,4.59,3.51,9.53,6.73,14.46,9.92,4.94,3.17,10.18,5.93,15.23,8.88,5.33,2.49,10.49,5.25,15.83,7.58,21.36,9.37,43.74,15.21,66.12,16.77,22.34,1.44,44.68.58,66.47-5.64,10.98-1.81,21.59-6.94,32.29-10.4,10.61-4.24,20.88-10.15,31.3-14.9l6.33-2.89c27.3-12.44,59.52-.39,71.96,26.91,12.44,27.3.39,59.52-26.91,71.96-1.27.58-2.67,1.15-3.96,1.62-15.13,5.5-29.74,11.73-45.25,16.19-15.87,3.74-31.15,8.7-47.66,10.15-32.19,5.39-65.86,3.78-97.94-1.91-32.26-5.77-63-17.43-90.71-33.11-6.94-3.91-13.59-8.28-20.33-12.43-6.46-4.61-12.99-9.04-19.2-13.96-6.19-4.93-12.32-9.94-18.18-15.42-2.97-2.59-5.87-5.56-8.77-8.41-1.43-1.38-2.91-2.92-4.4-4.54l-4.93-5.41c-13.77-15.1-12.69-38.5,2.4-52.27,12.45-11.35,30.54-12.61,44.23-4.24l9.43,5.79Z"/>
          <path class="cls-15" d="M1089.94,832.32c-5.05-2.95-10.3-5.71-15.23-8.88-1.43-.93-2.78-1.95-4.21-2.89-9.63,22.35-25.28,52.32-40.17,69.22,5.6,4.31,11.4,8.33,17.17,12.45,6.51,4,12.93,8.2,19.61,12,19.07-23.41,34.39-54.74,42.4-72.86-1.24-.52-2.5-.92-3.73-1.46-5.34-2.32-10.51-5.09-15.83-7.58Z"/>
          <path class="cls-3" d="M1377.81,844.99c-14.16-24.58-45.82-32.95-71.64-21.19l-4.21,1.92c-9.79,4.46-19.47,9.86-29.4,14.03-.63,16.71,4.6,32.2,10.62,44.27,7.39,14.81-.24,32.69-16.27,36.82-22.4,5.78-54.9,10.04-92.9,2.6-85.66-15.89-158.88-79.97-188.39-109.01-5.83,13.03-3.83,28.83,6.4,40.05l4.93,5.41c1.49,1.62,2.97,3.15,4.4,4.54,2.9,2.85,5.8,5.81,8.77,8.41,5.86,5.48,11.99,10.48,18.18,15.42,6.21,4.92,12.74,9.36,19.2,13.96,6.74,4.15,13.39,8.52,20.33,12.43,27.71,15.68,58.44,27.33,90.71,33.11,32.08,5.69,65.74,7.31,97.94,1.91,16.51-1.45,31.79-6.41,47.66-10.15,15.5-4.46,30.11-10.69,45.25-16.19,1.29-.48,2.69-1.04,3.96-1.62,28.9-13.17,40.71-48.51,24.46-76.71Z"/>
          <path class="cls-10" d="M1379.62,782.48c13.05-3.74,24.99-12.89,38.77-16.44,17.82-4.58,38.34-4.29,51.13,10.87,28.72,34.03,36.24,102.93-32.36,128.6-42.54,15.92-80.57,9.76-103.31,2.78-16.11-4.94-29.26-17.02-34.72-32.96-7.15-20.86-9.32-52.48,21.84-83.61,4.78-4.78,9.22-9.98,12.54-15.87,4.12-7.33,12.63-17.49,28.29-18.23,18.74-.24,17.83,24.87,17.83,24.87Z"/>
        </g>
        <path class="cls-10" d="M1514.84,925.55c-4.42,8.64-13.77,14.84-18.06,24.09-5.55,11.95-6.77,27.37,6.33,41.41,29.43,31.54,92.7,57.57,121.49,13.94,17.86-27.06,14.92-57.29,10.12-76.35-3.4-13.5-13.63-26.9-28-35.7-18.8-11.52-47.94-22.52-79.05-8.47-4.78,2.16-9.92,3.93-15.62,4.66-7.09.91-17.12,4.25-18.95,15.73-1.59,13.93,21.73,20.69,21.73,20.69Z"/>
        <g>
          <path class="cls-6" d="M1042.31,473.84c-417.32,41.18-172.47,648.57-589.79,689.75C299.25,1032.53,145.97,901.47-7.31,770.4,410.01,729.22,165.16,121.83,582.48,80.65c153.28,131.06,306.56,262.13,459.83,393.19Z"/>
          <path class="cls-10" d="M267.26,806.17c-38.9,33.08-90.06,55.67-159.61,62.53-38.32-32.77-76.64-65.53-114.96-98.3,69.55-6.86,120.71-29.46,159.61-62.53,38.32,32.77,76.64,65.53,114.96,98.3Z"/>
          <path class="cls-10" d="M468.25,779.02c-20.5,48.81-47.14,92.37-86.04,125.44-38.32-32.77-76.64-65.53-114.96-98.3,38.9-33.08,65.53-76.64,86.04-125.44,38.32,32.77,76.64,65.53,114.96,98.3Z"/>
          <path class="cls-10" d="M632.46,720.42c-14.37,54.05-28.75,108.1-49.25,156.9-38.32-32.77-76.64-65.53-114.96-98.3,20.5-48.8,34.88-102.85,49.25-156.9,38.32,32.77,76.64,65.53,114.96,98.3Z"/>
          <path class="cls-10" d="M652.79,339.78c38.9-33.08,90.06-55.67,159.61-62.53-38.32-32.77-76.64-65.53-114.96-98.3-69.55,6.86-120.71,29.46-159.61,62.53,38.32,32.77,76.64,65.53,114.96,98.3Z"/>
          <path class="cls-10" d="M698.17,975.62c-20.5,48.81-47.14,92.37-86.04,125.44-38.32-32.76-76.64-65.53-114.96-98.3,38.9-33.08,65.53-76.64,86.04-125.44,38.32,32.77,76.64,65.53,114.96,98.3Z"/>
          <path class="cls-10" d="M882.7,536.38c38.9-33.08,90.06-55.67,159.61-62.53-38.32-32.77-76.64-65.53-114.96-98.3-69.55,6.86-120.71,29.46-159.61,62.53,38.32,32.77,76.64,65.53,114.96,98.3Z"/>
          <path class="cls-10" d="M681.71,563.52c20.5-48.8,47.14-92.37,86.04-125.44-38.32-32.77-76.64-65.53-114.96-98.3-38.9,33.08-65.53,76.64-86.04,125.44,38.32,32.77,76.64,65.53,114.96,98.3Z"/>
          <path class="cls-10" d="M337.57,1065.3c69.55-6.86,120.71-29.46,159.61-62.53-38.32-32.77-76.64-65.53-114.96-98.3-38.9,33.08-90.06,55.67-159.61,62.53,38.32,32.77,76.64,65.53,114.96,98.3Z"/>
          <path class="cls-10" d="M402.54,523.82c-14.37,54.05-28.75,108.09-49.25,156.9-38.32-32.77-76.64-65.53-114.96-98.3,20.5-48.81,34.88-102.85,49.25-156.9,38.32,32.77,76.64,65.53,114.96,98.3Z"/>
          <path class="cls-10" d="M451.79,366.92c20.5-48.8,47.14-92.37,86.04-125.44-38.32-32.77-76.64-65.53-114.96-98.3-38.9,33.08-65.53,76.64-86.04,125.44,38.32,32.77,76.64,65.53,114.96,98.3Z"/>
          <path class="cls-10" d="M796.67,661.82c-20.5,48.81-34.88,102.85-49.25,156.9-38.32-32.77-76.64-65.53-114.96-98.3,14.37-54.05,28.75-108.09,49.25-156.9,38.32,32.77,76.64,65.53,114.96,98.3Z"/>
          <path class="cls-10" d="M566.75,465.22c-20.5,48.81-34.88,102.85-49.25,156.9-38.32-32.77-76.64-65.53-114.96-98.3,14.37-54.05,28.74-108.1,49.25-156.9,38.32,32.77,76.64,65.53,114.96,98.3Z"/>
        </g>
        <path class="cls-15" d="M1530.6,1216.85c-10.34-9.28-21.98-18.54-34.96-27.52-43.84,75.05-142.48,104.35-143.55,104.66l.26.89c18.98,6.95,38.02,14.99,56.01,24.21,37.28-17.6,89.57-49.82,122.24-102.25Z"/>
        <path class="cls-15" d="M1042.67,1319.49c-.14-4.35-.66-8.94-1.68-13.84-2.88-15.14.33-25.62,7.56-32.89-30.97,8.03-105.54,23.09-160.86.19-2.37,18.13-.61,33.95,3.35,47.47,22.18,6.19,45.36,8.62,67.58,8.62,32.22,0,62.25-4.82,84.05-9.55Z"/>
        <g>
          <path class="cls-2" d="M1029.81,591.96c0,12.37-18.56,22.4-41.46,22.4s-41.46-10.03-41.46-22.4,18.56-22.4,41.46-22.4,41.46,10.03,41.46,22.4Z"/>
          <path class="cls-2" d="M1340.5,591.96c0,12.37,18.56,22.4,41.46,22.4s41.46-10.03,41.46-22.4-18.56-22.4-41.46-22.4-41.46,10.03-41.46,22.4Z"/>
          <path class="cls-14" d="M1119.61,556.35c0,49.77-26.65-41.65-95.27-41.65s-84.94,91.41-84.94,41.65,40.34-90.11,90.11-90.11,90.11,40.34,90.11,90.11Z"/>
          <path class="cls-14" d="M1245.26,556.35c0,49.77,26.65-41.65,95.27-41.65s84.94,91.41,84.94,41.65-40.34-90.11-90.11-90.11-90.11,40.34-90.11,90.11Z"/>
          <g>
            <path class="cls-5" d="M1182.22,591.6c-14.03,0-27.74,6.49-37.43,16.64-.73-.76-1.42-1.55-2.08-2.34,7.4,8.99,19.93,16.37,39.72,16.37,17.73,0,29.65-5.92,37.26-13.61-9.14-10.38-22.23-17.05-37.47-17.05Z"/>
            <path class="cls-14" d="M1223.67,603.94c.17-.23.33-.47.5-.7.42-.61.82-1.22,1.2-1.83.13-.21.26-.41.38-.62.97-1.64,1.8-3.29,2.5-4.94.08-.19.15-.38.23-.57.25-.63.49-1.25.71-1.87.08-.24.16-.47.24-.71.2-.6.37-1.19.53-1.78.06-.2.12-.41.17-.61.4-1.56.68-3.07.85-4.51.02-.19.04-.38.05-.57.05-.52.09-1.03.11-1.52,0-.22.02-.43.02-.64.01-.47,0-.93,0-1.37,0-.18,0-.36-.02-.54-.03-.6-.09-1.17-.16-1.71,0,0,0,0,0,0-.08-.54-.19-1.04-.31-1.52-.04-.14-.08-.27-.12-.41-.1-.32-.2-.62-.32-.9-.06-.14-.11-.27-.18-.4-.12-.26-.26-.5-.4-.72-.06-.1-.12-.2-.19-.29-.21-.29-.44-.54-.69-.74-6.93-5.47-85.72-5.47-92.65,0-.25.19-.47.45-.68.73-.07.09-.13.19-.19.29-.14.22-.28.45-.4.71-.06.13-.12.26-.17.39-.11.28-.22.58-.31.89-.04.14-.09.26-.12.41-.12.45-.22.92-.3,1.43,0,.02,0,.03-.01.05-.08.55-.14,1.14-.18,1.75,0,.11,0,.23-.01.34-.02.51-.03,1.03-.02,1.57,0,.16,0,.32.02.47.02.55.06,1.11.12,1.69.01.13.02.26.04.39.25,2.21.75,4.6,1.56,7.08.03.09.06.19.09.28.25.76.53,1.52.84,2.29.03.08.06.16.09.23,1.05,2.55,2.42,5.15,4.16,7.67.05.07.1.14.15.22.53.76,1.09,1.5,1.69,2.24.08.1.15.19.23.29.65.79,1.34,1.58,2.08,2.34,9.69-10.15,23.4-16.64,37.43-16.64,15.24,0,28.34,6.67,37.47,17.05h0c.75-.76,1.45-1.54,2.12-2.33.15-.18.3-.37.45-.55.49-.6.97-1.21,1.41-1.83Z"/>
          </g>
          <path class="cls-14" d="M1301.78,403.74c5.2,8.38,31.72-7.13,52.81,2.72,21.09,9.85,28.99,15.31,32.5,13.26,3.51-2.05-4.72-32.2-41.74-41.47-37.02-9.27-55.21,6.75-43.58,25.49Z"/>
          <path class="cls-14" d="M1063.09,403.74c-5.2,8.38-31.72-7.13-52.81,2.72-21.09,9.85-28.99,15.31-32.5,13.26-3.51-2.05,4.72-32.2,41.74-41.47,37.02-9.27,55.21,6.75,43.58,25.49Z"/>
        </g>
        <path class="cls-3" d="M1595.13,1314.7c-56.09,37.46-165.04-4.94-251.23-53.6-86.24-48.68-212.81-45.9-278.88-30.35-66.07,15.55-49.38,87.38-74.41,107.55-19.25,15.51-69.22,4.82-92.16.86,5.19,10.29,11.36,18.68,17,25.12,24.48,27.98,143.03,25.31,125.54-58.63-13.99-73.45,113.83-38.5,162.8-48.75,0,0,158.25,22.62,247.21,88.17,47.74,33.21,144.1,15.2,144.13-30.37Z"/>
        <path class="cls-9" d="M1712.93,1115.2c-6.37,0-12.76-2.19-17.97-6.67L493.48,74.32c-11.53-9.92-12.84-27.33-2.91-38.86,9.93-11.53,27.33-12.85,38.86-2.91l1201.49,1034.21c11.53,9.92,12.84,27.33,2.91,38.86-5.45,6.33-13.15,9.58-20.9,9.58Z"/>
      </g>
    </g>
  </g>
</svg>