<?xml version="1.0" encoding="UTF-8"?>
<svg xmlns="http://www.w3.org/2000/svg" viewBox="0 0 1698.16 1605.46">
  <defs>
    <style>
      .cls-1 {
        fill: #f991f4;
      }

      .cls-2, .cls-3, .cls-4, .cls-5, .cls-6, .cls-7, .cls-8 {
        opacity: .5;
      }

      .cls-2, .cls-3, .cls-5, .cls-6, .cls-8 {
        mix-blend-mode: multiply;
      }

      .cls-2, .cls-9 {
        fill: #d99700;
      }

      .cls-3 {
        fill: #00512a;
      }

      .cls-10 {
        fill: #0e3520;
      }

      .cls-4, .cls-11 {
        fill: #ff7271;
      }

      .cls-12, .cls-7, .cls-13 {
        fill: #fff;
      }

      .cls-5, .cls-14 {
        fill: #231f20;
      }

      .cls-15 {
        fill: #6b3d6b;
        opacity: .4;
      }

      .cls-6, .cls-16 {
        fill: #ffcb53;
      }

      .cls-17 {
        isolation: isolate;
      }

      .cls-18 {
        fill: #8cc8db;
      }

      .cls-19 {
        mix-blend-mode: overlay;
      }

      .cls-19, .cls-20 {
        fill: #240b4a;
      }

      .cls-7, .cls-13 {
        mix-blend-mode: soft-light;
      }

      .cls-21 {
        fill: #fec000;
      }

      .cls-8, .cls-22 {
        fill: #565656;
      }

      .cls-23 {
        fill: #f05757;
      }

      .cls-24 {
        fill: #6ea2ff;
      }
    </style>
  </defs>
  <g class="cls-17">
    <g id="OBJECTS">
      <g>
        <g>
          <path class="cls-1" d="M1050.23,773.11c11.52-4.94,24.94-11.11,37.29-17.3,12.59-6.2,25.04-12.77,37.31-19.58,24.55-13.63,48.32-28.36,71.07-44.03,22.58-15.86,43.84-32.87,63.52-50.75,19.23-18.2,36.31-37.5,50.51-57.41l.69-.97c18.16-25.47,53.53-31.39,79-13.23,25.47,18.16,31.39,53.53,13.23,79-.74,1.04-1.61,2.17-2.41,3.14-22.03,26.73-46.24,49.87-71.51,70.47-25.53,20.07-51.91,38.04-78.93,54.2-27.12,15.91-54.74,30.32-82.85,43.35-14.06,6.51-28.23,12.7-42.59,18.52-14.54,5.96-28.34,11.21-44.42,16.72-22.83,7.82-47.67-4.35-55.49-27.18-7.44-21.73,3.23-45.29,23.96-54.25l1.63-.7Z"/>
          <path class="cls-24" d="M1167.33,819.89c-21.06-35.45-31.64-67.35-36.69-87.08-1.96,1.11-3.84,2.32-5.82,3.41-12.27,6.81-24.72,13.38-37.31,19.58-.17.09-.35.17-.53.26,6.39,21.8,17.35,51.1,35.77,83.16.6-.24,1.18-.47,1.78-.72,14.37-5.82,28.53-12.01,42.59-18.53.06-.03.13-.06.19-.1Z"/>
          <path class="cls-15" d="M1220.32,718.56c76.82-35.38,128.66-121.73,147.76-158.03-21.26-4.34-44.05,3.72-57.46,22.53l-.69.97c-14.2,19.92-31.28,39.21-50.51,57.41-19.68,17.89-40.94,34.89-63.52,50.76-22.75,15.66-46.52,30.4-71.07,44.03-12.27,6.81-24.73,13.38-37.31,19.58-12.35,6.19-25.77,12.36-37.29,17.3l-1.63.7c-20.74,8.96-31.41,32.51-23.96,54.25,7.82,22.83,32.66,35,55.49,27.18,16.08-5.51,29.88-10.76,44.42-16.72,7.45-3.02,14.74-6.4,22.09-9.61.19-4.64-.23-9-1.86-12.75-15.41-35.61-17.91-53.24,75.53-97.6Z"/>
        </g>
        <path class="cls-14" d="M1348.44,508.67s27.36-107.18,106.95-76.12c79.59,31.06,68.48,145.69,22.57,186.34-45.91,40.66-76.28,41.52-109.92,29.98-33.64-11.54-83.52-54.21-66.27-99.05,17.26-44.84,41.96-16.45,41.96-16.45l4.71-24.7Z"/>
        <g>
          <path class="cls-1" d="M772.31,773.11c-11.52-4.94-24.94-11.11-37.29-17.3-12.59-6.2-25.04-12.77-37.31-19.58-24.55-13.63-48.32-28.36-71.07-44.03-22.58-15.86-43.84-32.87-63.52-50.75-19.23-18.2-36.31-37.5-50.51-57.41l-.69-.97c-18.16-25.47-53.53-31.39-79-13.23-25.47,18.16-31.39,53.53-13.23,79,.74,1.04,1.61,2.17,2.41,3.14,22.04,26.73,46.24,49.87,71.51,70.47,25.53,20.07,51.91,38.04,78.93,54.2,27.12,15.91,54.74,30.32,82.85,43.35,14.06,6.51,28.23,12.7,42.59,18.52,14.54,5.96,28.34,11.21,44.42,16.72,22.83,7.82,47.67-4.35,55.49-27.18,7.44-21.73-3.23-45.29-23.96-54.25l-1.63-.7Z"/>
          <path class="cls-24" d="M655.2,819.89c21.06-35.45,31.64-67.35,36.69-87.08,1.96,1.11,3.84,2.32,5.82,3.41,12.27,6.81,24.72,13.38,37.31,19.58.17.09.35.17.53.26-6.39,21.8-17.35,51.1-35.77,83.16-.6-.24-1.18-.47-1.78-.72-14.37-5.82-28.53-12.01-42.59-18.53-.06-.03-.13-.06-.19-.1Z"/>
          <path class="cls-15" d="M602.22,718.56c-76.82-35.38-128.66-121.73-147.76-158.03,21.26-4.34,44.05,3.72,57.46,22.53l.69.97c14.2,19.92,31.28,39.21,50.51,57.41,19.68,17.89,40.94,34.89,63.52,50.76,22.75,15.66,46.52,30.4,71.07,44.03,12.27,6.81,24.73,13.38,37.31,19.58,12.35,6.19,25.77,12.36,37.29,17.3l1.63.7c20.74,8.96,31.41,32.51,23.96,54.25-7.82,22.83-32.66,35-55.49,27.18-16.08-5.51-29.88-10.76-44.42-16.72-7.45-3.02-14.74-6.4-22.09-9.61-.19-4.64.23-9,1.86-12.75,15.41-35.61,17.91-53.24-75.53-97.6Z"/>
        </g>
        <path class="cls-14" d="M474.1,508.67s-27.36-107.18-106.95-76.12c-79.59,31.06-68.48,145.69-22.57,186.34,45.91,40.66,76.28,41.52,109.92,29.98,33.64-11.54,83.52-54.21,66.27-99.05-17.26-44.84-41.96-16.45-41.96-16.45l-4.71-24.7Z"/>
        <g>
          <path class="cls-10" d="M478.25,776.41c-37.01-82.66,76.95-349.33,76.95-349.33l-44.17-18.88-44.17-18.88s-113.96,266.67-199.28,297.05c-62.92,22.41-165.54,260.44-215.07,383.86-16.32,40.67-2.25,84.57,31.67,99.07l85.91,36.71,85.91,36.71c33.92,14.5,75.37-5.67,93.48-45.58,54.96-121.1,156.07-359.78,128.77-420.74Z"/>
          <path class="cls-21" d="M340.56,807.12l131.09-58.13c-10.21-102.46,83.56-321.9,83.56-321.9l-44.17-18.88-44.17-18.88s-87.1,203.8-166.01,275.36l39.71,142.42Z"/>
          <path class="cls-21" d="M393.4,1031.4c-20.01,46.82-91.45,61.19-159.56,32.08-68.11-29.11-107.11-90.66-87.1-137.49,20.01-46.82,91.45-61.19,159.56-32.08,68.11,29.11,107.11,90.66,87.1,137.49Z"/>
          <path class="cls-23" d="M381.14,953.49l-110.89,20.88c-13.56-23.37-34.27-58.92-54.93-93.97-25.85,3.76-47.51,14.75-60.6,32.09,23.29,39.5,48.8,83.26,68.41,117.15l12.15,20.99,161.6-30.43c4.84-21.45-1.24-44.99-15.75-66.71Z"/>
          <path class="cls-3" d="M478.25,776.41c-37.01-82.66,76.95-349.33,76.95-349.33l-17.32-7.4c-37.37,75.78-109.38,235.4-87.39,299.67,21.63,63.2-84.75,285.23-150.51,400.82-21.67,38.09-64.79,54.4-97.25,36.88l-98.26-37.94-57.15-30.86c-6.51,34.91,7.9,68.69,36.85,81.06l85.91,36.71,85.91,36.71c33.92,14.5,75.37-5.67,93.48-45.58,54.96-121.1,156.07-359.78,128.77-420.74Z"/>
          <path class="cls-10" d="M565.46,395.03l-82.53-35.27c-5.61-2.4-12.46,1.06-15.31,7.72l-12.41,29.04c-2.85,6.66-.61,14.01,5,16.4l82.53,35.27c5.61,2.4,12.46-1.06,15.31-7.72l12.41-29.04c2.85-6.66.61-14.01-5-16.4Z"/>
        </g>
        <path class="cls-14" d="M1046.88,1443.62s46.95,35.45,82.68,46.69c35.72,11.24,41.48,26.97,42.64,37.08,1.15,10.11-59.92,16.86-137.13,16.86s-100.4-12.36-101.56-33.71c-1.15-21.35,20.05-66.91,20.05-66.91,0,0,63.65-28.7,93.32,0Z"/>
        <path class="cls-5" d="M1052.06,1529.33c-77.21,0-100.41-12.36-101.56-33.71-.81-15.05,9.46-42.07,15.6-56.74-7.62,2.56-12.56,4.75-12.56,4.75,0,0-21.2,45.56-20.05,66.91,1.15,21.35,24.35,33.71,101.56,33.71s138.28-6.74,137.13-16.86c-.21-1.84-.58-3.87-1.25-6.02-23.53,4.97-67.58,7.95-118.88,7.95Z"/>
        <path class="cls-14" d="M758.4,1443.62s-46.95,35.45-82.68,46.69c-35.72,11.24-41.48,26.97-42.63,37.08-1.15,10.11,59.92,16.86,137.13,16.86s100.4-12.36,101.56-33.71c1.15-21.35-20.05-66.91-20.05-66.91,0,0-63.65-28.7-93.32,0Z"/>
        <path class="cls-5" d="M753.22,1529.33c77.21,0,100.41-12.36,101.56-33.71.81-15.05-9.46-42.07-15.61-56.74,7.62,2.56,12.56,4.75,12.56,4.75,0,0,21.2,45.56,20.05,66.91-1.15,21.35-24.35,33.71-101.56,33.71s-138.28-6.74-137.13-16.86c.21-1.84.58-3.87,1.25-6.02,23.53,4.97,67.58,7.95,118.88,7.95Z"/>
        <path class="cls-1" d="M1071.1,1144.38h-335.94s-27.92,244.02,33.71,311.63c0,0,74.39,19.66,91.89-25.33,3.51-18.27,3.82-103.3,19.19-127.6,10.79-17.06,35.57-17.06,46.36,0,15.37,24.3,15.67,109.33,19.19,127.6,17.49,44.99,91.89,25.33,91.89,25.33,61.63-67.61,33.7-311.63,33.7-311.63Z"/>
        <path class="cls-1" d="M1099.76,800.28c-50.45-68.2-138.05-92.82-177.39-100.73-13.37-2.69-26.89-2.69-40.27,0-39.33,7.91-126.94,32.54-177.39,100.73-29.33,42.58-14.01,277.33,30.58,344.1h333.9c44.59-66.77,59.91-301.52,30.57-344.1Z"/>
        <path class="cls-15" d="M1099.76,800.28c-6.08-8.23-12.74-15.79-19.75-22.8,1.14,9.88,1.95,20.71,2.36,32.42,5.13,145.21-92.05,265.82-212.21,265.82h-160.85c6.98,28.86,15.69,53.26,25.97,68.66h333.9c44.59-66.77,59.91-301.52,30.57-344.1Z"/>
        <rect class="cls-14" x="892.17" y="761.6" width="20.12" height="362.89"/>
        <path class="cls-14" d="M906.13,1169.35c-102.9,0-177.93-12.89-182.61-13.71-13.44-2.37-22.54-15.97-20.35-30.39,2.19-14.42,14.97-24.2,28.31-21.85,1.67.3,168.21,28.78,342.51-.04,13.49-2.27,26.06,7.69,28.13,22.12,2.07,14.45-7.16,27.97-20.62,30.19-61.98,10.25-122.38,13.67-175.39,13.67Z"/>
        <path class="cls-5" d="M1102.14,1125.48c-1.09-7.63-5.17-13.94-10.71-17.93.05.31.17.59.22.9,2.11,14.44-7.09,27.98-20.54,30.24-61.95,10.4-122.35,13.97-175.35,14.1-102.9.25-177.96-12.45-182.64-13.27-3.55-.62-6.78-2.06-9.6-4.05,2.19,10.14,9.85,18.37,20.02,20.16,4.68.82,79.71,13.71,182.61,13.71,53,0,113.4-3.42,175.39-13.67,13.46-2.22,22.69-15.74,20.62-30.19Z"/>
        <path class="cls-24" d="M1066.59,1388.89c3.6-16.43,6.1-34.26,7.79-52.57-54.54,19.98-112.83,5.56-138.61-2.95,2.88,15.99,4.63,34.84,5.92,51.99,19.41,4.95,44.55,9.43,72.32,9.43,16.83,0,34.6-1.73,52.59-5.9Z"/>
        <path class="cls-24" d="M739.67,1388.89c17.98,4.17,35.75,5.9,52.58,5.9,27.77,0,52.91-4.48,72.32-9.43,1.29-17.12,3.04-35.95,5.91-51.93-25.69,8.57-83.82,23.07-138.6,2.91,1.69,18.3,4.19,36.13,7.79,52.55Z"/>
        <path class="cls-15" d="M1006.2,1431.41c-45.36-3.15-48.06-76.08-61.86-112.55-13.81-36.47-41.21-28.56-41.21-28.56,0,0-27.4-7.91-41.21,28.56-13.81,36.47-16.5,109.4-61.86,112.55-21.19,1.47-36.86.06-47.61-1.86,4.61,10.39,10,19.42,16.41,26.46,0,0,74.4,19.66,91.9-25.33,3.51-18.27,3.82-103.29,19.19-127.6,10.79-17.06,35.57-17.06,46.36,0,15.38,24.3,15.67,109.33,19.19,127.6,17.5,44.99,91.89,25.33,91.89,25.33,6.41-7.04,11.81-16.07,16.41-26.46-10.75,1.92-26.42,3.33-47.61,1.86Z"/>
        <g>
          <path class="cls-1" d="M1278.21,437.01c0,202.65-85.35,324.59-366.94,324.59s-366.94-121.93-366.94-324.59S708.61,70.07,911.27,70.07s366.94,164.28,366.94,366.94Z"/>
          <path class="cls-15" d="M1215.54,231.85c23.86,48.68,39.81,103.45,37.3,161.27-8.6,198.43-106.25,303.61-366.94,310.92-161.74,4.54-258.71-26.66-311.97-99.36,44.71,100.23,145.42,156.91,337.34,156.91,281.59,0,366.94-121.93,366.94-324.59,0-76-23.1-146.6-62.67-205.16Z"/>
          <path class="cls-13" d="M929.39,99.58c-30.73-3.29-64.78.67-84.43,4.99-72.01,15.85-154.46,61.99-182.53,134.67-19.87,51.45,51.37,82.9,168.11,46.39,116.73-36.5,153.53-87.94,161.85-117.62,13.1-46.7-21.99-64.04-63.01-68.43Z"/>
          <g>
            <path class="cls-24" d="M1277.27,412.05c-13.88,13.68-27.82,27.3-41.54,41.14-36.9,37.37-74.12,74.42-110.37,112.48-36.63,37.65-72.56,76.04-108.4,114.5-24.47,26.72-48.77,53.61-72.81,80.77,4.41-.16,8.79-.34,13.1-.56,25.31-21.16,50.43-42.52,75.41-64.01,39.56-34.63,79.05-69.34,117.82-104.78,39.16-35.04,77.35-71.09,115.86-106.81,3.63-3.38,7.19-6.84,10.8-10.23.71-12.18,1.06-24.69,1.06-37.53,0-8.4-.38-16.71-.94-24.97Z"/>
            <path class="cls-24" d="M1125.35,402.07l80.38-5.71,69.45-5.83c-1.95-15.44-4.76-30.62-8.57-45.4l-64.96,6.35-80.09,8.87c-8.35.95-16.71,1.87-25.07,2.79l21.2-20.61,60.96-60.83,41.55-42.56c-3.05-4.75-6.21-9.43-9.47-14.03l-48.24,38.8-66.39,54.86-65.64,55.69-42.19,35.8,56.65-2.88c26.84-1.37,53.61-3.47,80.41-5.3Z"/>
          </g>
          <g>
            <path class="cls-24" d="M726.43,318.77l-66.39-54.86-48.24-38.8c-3.26,4.6-6.41,9.27-9.46,14.02l41.55,42.56,60.96,60.83,21.2,20.61c-8.36-.93-16.71-1.85-25.07-2.79l-80.09-8.87-64.96-6.35c-3.81,14.78-6.62,29.96-8.57,45.4l69.45,5.83,80.38,5.71c26.8,1.84,53.57,3.94,80.41,5.3l56.65,2.88-42.19-35.8-65.64-55.69Z"/>
            <path class="cls-24" d="M805.58,680.17c-35.85-38.47-71.77-76.85-108.4-114.5-36.24-38.05-73.46-75.1-110.37-112.48-13.72-13.84-27.66-27.47-41.54-41.14-.56,8.26-.94,16.57-.94,24.97,0,12.84.35,25.35,1.06,37.53,3.62,3.39,7.17,6.85,10.8,10.23,38.51,35.72,76.7,71.77,115.86,106.81,38.78,35.44,78.26,70.15,117.82,104.78,24.99,21.49,50.1,42.85,75.41,64.01,4.3.23,8.69.4,13.1.56-24.04-27.16-48.35-54.05-72.81-80.77Z"/>
          </g>
          <g>
            <path class="cls-18" d="M903.05,358.32h-310.55s16.4,180.93,105.09,239.93c88.69,59,322.23,59,410.92,0,88.69-59,105.09-239.93,105.09-239.93h-310.55Z"/>
            <g>
              <path class="cls-7" d="M945.93,358.32h-139.41c-31.59,50.49-74.79,120.33-134.72,217.35,7.85,8.64,16.39,16.33,25.8,22.58,20.1,13.37,47.68,23.68,79.29,30.99,56.07-90.62,127.76-205.86,169.04-270.92Z"/>
              <path class="cls-7" d="M1027.48,358.32c-33.29,52.47-87.08,138.95-175.52,282.13,22.32,1.78,45.23,2.4,67.97,1.81,60.1-97.13,137.53-221.54,177.34-283.95h-69.8Z"/>
            </g>
          </g>
        </g>
        <g>
          <path class="cls-4" d="M735.05,538.47c0,11.61-17.43,21.03-38.92,21.03s-38.92-9.41-38.92-21.03,17.43-21.03,38.92-21.03,38.92,9.41,38.92,21.03Z"/>
          <path class="cls-4" d="M1062.4,538.47c0,11.61,17.43,21.03,38.92,21.03s38.92-9.41,38.92-21.03-17.43-21.03-38.92-21.03-38.92,9.41-38.92,21.03Z"/>
          <circle class="cls-20" cx="755.17" cy="458.32" r="84.58"/>
          <path class="cls-19" d="M798.38,482.08c-20.71,8.04-41.13,6.99-61.24-2.24-24.43-11.21-43.81-33.11-66.5-20.56.52,46.26,38.15,83.61,84.53,83.61s81.6-35.09,84.32-79.35c-13.79,6.5-27.48,13.23-41.11,18.53Z"/>
          <path class="cls-12" d="M811.88,425.81c0,16.86-13.67,30.53-30.53,30.53s-30.53-13.67-30.53-30.53,13.67-30.53,30.53-30.53,30.53,13.67,30.53,30.53Z"/>
          <path class="cls-12" d="M728.45,488.81c0,9.02-7.31,16.33-16.33,16.33s-16.33-7.31-16.33-16.33,7.31-16.33,16.33-16.33,16.33,7.31,16.33,16.33Z"/>
          <path class="cls-12" d="M725.51,514.68c0-5.27,4.27-9.54,9.54-9.54s9.54,4.27,9.54,9.54-4.27,9.54-9.54,9.54-9.54-4.27-9.54-9.54Z"/>
          <circle class="cls-20" cx="1042.28" cy="458.32" r="84.58"/>
          <path class="cls-19" d="M1070.92,494.1c-43.82,9.95-73.23-19.18-107.5-40.15-1.78-1.09-3.56-2.11-5.34-3.05-.21,2.45-.38,4.92-.38,7.43,0,46.71,37.87,84.58,84.58,84.58s80.9-34.39,84.25-78.03c-18.65,10.01-34.27,24.38-55.62,29.23Z"/>
          <path class="cls-12" d="M1098.99,425.81c0,16.86-13.67,30.53-30.53,30.53s-30.53-13.67-30.53-30.53,13.67-30.53,30.53-30.53,30.53,13.67,30.53,30.53Z"/>
          <path class="cls-12" d="M1015.56,488.81c0,9.02-7.31,16.33-16.33,16.33s-16.33-7.31-16.33-16.33,7.31-16.33,16.33-16.33,16.33,7.31,16.33,16.33Z"/>
          <path class="cls-12" d="M1012.62,514.68c0-5.27,4.27-9.54,9.54-9.54s9.54,4.27,9.54,9.54-4.27,9.54-9.54,9.54-9.54-4.27-9.54-9.54Z"/>
          <g>
            <path class="cls-20" d="M1112.06,414.32c7.86-2.14,16.66-21.66,23.81-19.04,7.14,2.62-3.09,21.18-17.38,26.66-14.28,5.48-6.43-7.62-6.43-7.62Z"/>
            <path class="cls-20" d="M1118.92,427.39c8.14.31,22.39-15.68,28.42-11.05,6.03,4.64-9.29,19.28-24.56,20.24-15.27.95-3.85-9.19-3.85-9.19Z"/>
          </g>
          <g>
            <path class="cls-20" d="M685.39,414.32c-7.86-2.14-16.66-21.66-23.81-19.04-7.14,2.62,3.09,21.18,17.38,26.66,14.28,5.48,6.43-7.62,6.43-7.62Z"/>
            <path class="cls-20" d="M678.53,427.39c-8.14.31-22.39-15.68-28.42-11.05-6.03,4.64,9.29,19.28,24.56,20.24,15.27.95,3.85-9.19,3.85-9.19Z"/>
          </g>
          <path class="cls-11" d="M938.18,527.81c-6.51-5.14-15.38,5.22-43.48,5.22s-36.98-10.35-43.48-5.22c-6.51,5.14-1.03,44.85,43.48,44.85s49.99-39.72,43.48-44.85Z"/>
        </g>
        <g>
          <path class="cls-20" d="M1031.08,325.82c5.81,9.35,35.4-7.95,58.94,3.04,23.54,10.99,32.36,17.09,36.27,14.8,3.91-2.29-5.26-35.94-46.58-46.28-41.32-10.35-61.62,7.53-48.64,28.45Z"/>
          <path class="cls-20" d="M764.68,325.82c-5.81,9.35-35.4-7.95-58.94,3.04-23.54,10.99-32.36,17.09-36.27,14.8-3.91-2.29,5.26-35.94,46.58-46.28,41.32-10.35,61.62,7.53,48.64,28.45Z"/>
        </g>
        <g>
          <rect class="cls-16" x="1383.99" y="501.05" width="37.31" height="98.78" transform="translate(-101.21 456.59) rotate(-17.86)"/>
          <path class="cls-9" d="M1329.69,477.86s30.69,78.17,69.83,62.89c40.7-10.44,19.99-91.83,19.99-91.83-16.53-9.8-82.11,11.33-89.82,28.93Z"/>
          <path class="cls-2" d="M1329.69,477.86s3.86,9.81,10.57,21.8c14.22,1.35,28.91-.47,43.97-6.35,15.66-4.02,28.65-11.11,39.41-20.51-1.55-13.65-4.14-23.87-4.14-23.87-16.53-9.8-82.11,11.33-89.82,28.93Z"/>
          <rect class="cls-22" x="1338.66" y="594.21" width="199.44" height="134.36" transform="translate(-133.51 472.89) rotate(-17.86)"/>
          <path class="cls-8" d="M1494.94,572.59l13.71,42.57c12.25,38.03-8.65,78.78-46.67,91.03l-103.22,33.25,5.31,16.47,189.83-61.15-41.2-127.89-17.76,5.72Z"/>
          <rect class="cls-9" x="1369.32" y="623.8" width="138.12" height="75.18" transform="translate(-133.51 472.89) rotate(-17.86)"/>
          <rect class="cls-16" x="1380.66" y="638.02" width="108.11" height="23.95" transform="translate(-130.19 471.22) rotate(-17.86)"/>
          <path class="cls-9" d="M1481.33,417.67c-.44.14-.9.26-1.37.35-10.67,2.02-22.26-1.99-30.24-10.46-6.23-6.61-15.67-21.74-8.88-48.69,6.39-25.33,31.81-45.07,56.39-64.16,12.84-9.97,24.98-19.39,32.24-28.16,12.59-15.2,16.02-36.23,8.52-52.32-6.2-13.31-18.81-20.71-35.5-20.82-15.84-.1-33.59,10.05-47.49,27.17-3.92,4.82-10.98,5.55-15.79,1.64-4.81-3.91-5.55-10.98-1.64-15.79,8.72-10.74,32.52-35.69,65.08-35.47,25.47.18,45.78,12.49,55.7,33.79,11.09,23.79,6.43,54.39-11.58,76.13-8.84,10.67-21.92,20.82-35.76,31.57-20.58,15.97-43.9,34.08-48.39,51.91-3.05,12.1-1.8,22.24,3.45,27.8,3.33,3.53,7.32,4.25,9.72,3.8,6.09-1.16,11.97,2.85,13.12,8.94,1.07,5.62-2.26,11.06-7.57,12.77Z"/>
          <path class="cls-9" d="M1261.24,488.57c-5.31,1.71-11.19-.76-13.61-5.95-2.62-5.62-.19-12.3,5.44-14.92,2.22-1.03,5.03-3.95,5.67-8.76,1.01-7.58-3.89-16.54-13.43-24.59-14.06-11.86-43.56-12.94-69.59-13.9-17.52-.65-34.06-1.26-47.47-4.76-27.32-7.14-48.95-29.27-53.84-55.06-4.37-23.09,4.92-44.94,25.5-59.95,26.3-19.19,60.2-12.81,73.54-9.19,5.98,1.63,9.52,7.8,7.89,13.78-1.63,5.98-7.8,9.51-13.78,7.89-21.28-5.79-41.62-3.68-54.42,5.66-13.48,9.83-19.4,23.2-16.67,37.63,3.3,17.44,18.36,32.52,37.46,37.51,11.02,2.88,26.37,3.45,42.62,4.05,31.1,1.15,63.26,2.34,83.24,19.18,21.25,17.92,22.41,35.71,21.21,44.72-1.53,11.54-8.6,21.56-18.45,26.15-.43.2-.87.37-1.31.52Z"/>
          <path class="cls-16" d="M1139.35,261.55s105.39,268.45,239.81,215.99c139.76-35.86,68.65-315.35,68.65-315.35-56.77-33.64-281.99,38.91-308.45,99.36Z"/>
          <path class="cls-6" d="M1424.12,154.88c12.83,61.99,45.8,267.25-72.62,297.63-39.28,15.33-76.08,3.23-108.5-21.54,38.45,40.22,85.21,66.45,136.16,46.57,139.76-35.86,68.65-315.35,68.65-315.35-6.1-3.61-14.15-6-23.68-7.3Z"/>
          <path class="cls-9" d="M1458.5,172.89c-3.46,1.11-7.35.84-10.76-1.09-22.83-12.89-89.2-5.65-161.41,17.61-72.21,23.26-130.32,56.12-141.33,79.92-3.12,6.75-11.13,9.7-17.88,6.57-6.75-3.12-9.69-11.13-6.57-17.88,17.44-37.7,92.81-73.4,157.52-94.25,64.72-20.85,146.76-35.85,182.92-15.42,6.48,3.66,8.77,11.88,5.1,18.35-1.73,3.07-4.49,5.2-7.59,6.2Z"/>
          <g>
            <path class="cls-9" d="M1398.76,283.81c13.22,41.04-9.33,85.02-50.37,98.24-41.04,13.22-85.02-9.33-98.24-50.37-13.22-41.04,9.33-85.02,50.37-98.24,41.04-13.22,85.02,9.33,98.24,50.37Z"/>
            <path class="cls-16" d="M1312.98,354.86c-2.73.88-4.32.07-5.2-2.67l-4.26-13.22c-.88-2.73-.07-4.32,2.66-5.2l12.24-3.94-11.76-36.49-10.05,3.24c-2.74.88-4.33.06-5.2-2.67l-4.26-13.22c-.88-2.73-.07-4.32,2.67-5.2l31.69-10.21c2.73-.88,4.32-.07,5.2,2.67l17.28,53.65,10.49-3.38c2.73-.88,4.32-.06,5.2,2.67l4.26,13.22c.88,2.73.06,4.32-2.67,5.2l-48.3,15.56Z"/>
          </g>
          <polygon class="cls-7" points="1412.07 630.38 1377.53 697.74 1384.17 718.35 1393.78 715.25 1442.29 620.64 1412.07 630.38"/>
          <polygon class="cls-7" points="1446.36 698.32 1493.32 606.71 1492.59 604.44 1476.73 609.55 1428.22 704.16 1446.36 698.32"/>
        </g>
      </g>
    </g>
  </g>
</svg>