<?xml version="1.0" encoding="UTF-8"?>
<svg xmlns="http://www.w3.org/2000/svg" viewBox="0 0 1544.17 1383.32">
  <defs>
    <style>
      .cls-1 {
        fill: #f991f4;
      }

      .cls-2, .cls-3, .cls-4, .cls-5, .cls-6 {
        opacity: .5;
      }

      .cls-2, .cls-7 {
        fill: #ff7271;
      }

      .cls-3, .cls-8 {
        fill: #6b3d6b;
      }

      .cls-4, .cls-5 {
        mix-blend-mode: multiply;
      }

      .cls-4, .cls-9 {
        fill: #231f20;
      }

      .cls-8 {
        opacity: .4;
      }

      .cls-10 {
        fill: #f2c0f1;
      }

      .cls-5 {
        fill: #014675;
      }

      .cls-11 {
        isolation: isolate;
      }

      .cls-12 {
        fill: #8cc8db;
      }

      .cls-6, .cls-13 {
        fill: #fff;
        mix-blend-mode: soft-light;
      }

      .cls-14 {
        fill: #240b4a;
      }

      .cls-15 {
        mix-blend-mode: overlay;
        opacity: .3;
      }

      .cls-16 {
        fill: #6ea2ff;
      }

      .cls-17 {
        fill: #af08af;
      }
    </style>
  </defs>
  <g class="cls-11">
    <g id="OBJECTS">
      <g>
        <g>
          <path class="cls-17" d="M1078.3,370.23c0,182.85-77.01,292.87-331.08,292.87s-331.08-110.02-331.08-292.87S564.38,39.16,747.23,39.16s331.08,148.23,331.08,331.08Z"/>
          <path class="cls-5" d="M1021.76,185.13c21.53,43.92,35.92,93.34,33.66,145.51-7.76,179.03-95.86,273.94-331.08,280.54-145.93,4.09-233.43-24.06-281.48-89.65,40.34,90.43,131.21,141.58,304.37,141.58,254.07,0,331.08-110.02,331.08-292.87,0-68.57-20.85-132.27-56.54-185.11Z"/>
          <path class="cls-13" d="M763.57,65.78c-27.72-2.97-58.45.61-76.18,4.51-64.98,14.3-139.36,55.93-164.69,121.51-17.93,46.42,46.35,74.79,151.68,41.86,105.33-32.93,138.52-79.34,146.03-106.13,11.82-42.14-19.84-57.78-56.85-61.75Z"/>
          <g>
            <path class="cls-10" d="M1077.45,347.71c-12.52,12.34-25.1,24.63-37.48,37.12-33.3,33.72-66.88,67.15-99.58,101.48-33.05,33.97-65.46,68.61-97.81,103.31-22.08,24.11-44.01,48.37-65.7,72.88,3.98-.15,7.93-.3,11.82-.51,22.84-19.09,45.5-38.37,68.04-57.76,35.7-31.25,71.32-62.56,106.31-94.54,35.34-31.62,69.79-64.14,104.54-96.37,3.27-3.05,6.48-6.17,9.74-9.23.65-10.99.96-22.28.96-33.86,0-7.58-.35-15.07-.85-22.53Z"/>
            <path class="cls-10" d="M940.39,338.71l72.52-5.15,62.66-5.26c-1.76-13.93-4.29-27.63-7.73-40.96l-58.61,5.72-72.26,8c-7.54.85-15.08,1.69-22.62,2.52l19.13-18.6,55.01-54.89,37.49-38.4c-2.75-4.29-5.6-8.5-8.54-12.65l-43.52,35.01-59.9,49.5-59.22,50.25-38.07,32.3,51.12-2.6c24.22-1.23,48.37-3.13,72.55-4.79Z"/>
          </g>
          <g>
            <path class="cls-10" d="M580.45,263.54l-59.9-49.5-43.52-35.01c-2.94,4.15-5.79,8.37-8.54,12.65l37.48,38.4,55.01,54.89,19.13,18.6c-7.54-.83-15.08-1.67-22.62-2.52l-72.26-8-58.61-5.72c-3.44,13.34-5.97,27.03-7.73,40.96l62.66,5.26,72.52,5.15c24.18,1.66,48.34,3.55,72.55,4.79l51.12,2.6-38.07-32.3-59.22-50.25Z"/>
            <path class="cls-10" d="M651.87,589.63c-32.34-34.71-64.75-69.34-97.81-103.31-32.7-34.33-66.28-67.76-99.58-101.48-12.38-12.49-24.95-24.78-37.48-37.12-.5,7.45-.85,14.95-.85,22.53,0,11.58.31,22.87.96,33.86,3.26,3.06,6.47,6.18,9.75,9.23,34.74,32.23,69.2,64.75,104.54,96.37,34.99,31.98,70.61,63.3,106.31,94.54,22.55,19.39,45.21,38.66,68.04,57.76,3.88.21,7.84.36,11.82.51-21.69-24.51-43.62-48.77-65.7-72.88Z"/>
          </g>
          <g>
            <path class="cls-12" d="M739.81,299.23h-280.2s14.8,163.25,94.82,216.48c80.02,53.23,290.74,53.23,370.76,0,80.02-53.24,94.82-216.48,94.82-216.48h-280.2Z"/>
            <g>
              <path class="cls-6" d="M778.5,299.23h-125.79c-28.5,45.56-67.48,108.57-121.56,196.1,7.08,7.79,14.79,14.73,23.28,20.38,18.14,12.07,43.02,21.37,71.54,27.96,50.59-81.76,115.27-185.74,152.52-244.44Z"/>
              <path class="cls-6" d="M852.08,299.23c-30.04,47.34-78.57,125.37-158.36,254.56,20.14,1.6,40.81,2.16,61.33,1.64,54.23-87.63,124.09-199.89,160.01-256.19h-62.98Z"/>
            </g>
          </g>
        </g>
        <g>
          <path class="cls-1" d="M618.19,730.74l-5.75,5.13-5.1,4.26c-3.38,2.79-6.75,5.29-10.14,7.87-6.79,4.97-13.67,9.64-20.69,14-14.01,8.76-28.57,16.29-43.62,22.63-29.96,13.02-62.04,20.63-94.64,23.21-34.22,3.28-73.32-5.12-105.99-25.8-16.52-10.15-31.3-23.29-44.24-38.1-6.46-7.43-12.48-15.31-18.07-23.69-2.75-4.24-5.49-8.5-8.06-13.11-1.3-2.2-2.59-4.68-3.87-7.12-.62-1.16-1.28-2.47-1.96-3.94-.65-1.38-1.26-2.59-2.36-5.23-10.8-27.54.19-59.77,24.56-71.98,24.37-12.21,52.88.22,63.69,27.76-.36-.81-.16-.24,0,.18.1.34.28.81.54,1.39.46,1.07.86,2.14,1.46,3.34,1.03,2.34,2.33,4.71,3.59,7.12,2.64,4.76,5.6,9.41,8.79,13.8,6.42,8.75,13.71,16.53,21.84,22.54,8.18,5.87,16.76,11.3,26.47,14.13,4.67,1.99,9.89,2.43,14.87,3.87l7.91.76c2.64.29,5.19.72,8.39.56,24.27.29,48.97-3.02,72.87-11,11.98-3.81,23.8-8.64,35.19-14.45,5.69-2.89,11.28-6.01,16.71-9.3,2.65-1.69,5.38-3.35,7.88-5.1,2.42-1.56,5.37-3.83,6.54-4.6l4.58-3.03c16.34-10.84,37.37-4.64,46.95,13.83,8.78,16.92,4.92,38.26-8.34,50.06Z"/>
          <path class="cls-16" d="M524.3,697.65c-5.17,2.06-10.37,4.01-15.62,5.67-6.33,2.11-12.72,3.86-19.14,5.33,13.14,30.9,39.95,54.16,60.1,68.12,9.13-4.51,18.14-9.32,26.87-14.78,2.89-1.8,5.68-3.87,8.53-5.77-13.41-7.68-46.68-29.07-60.73-58.58Z"/>
          <path class="cls-9" d="M314.49,544.35c-7.53-22.44-12.5-43.13-12.94-68.86-.77-45.34-57.15-4.98-48.57,34.7,6.26,28.96-38.77,24.24-52.72,26.74-36.01,6.46-57.06,36.18-61.12,72.8-6.52,58.82,66.83,94.25,121.83,92.51,32.35-1.03,56.29-28.88,65.75-57.72,9.2-28.05,3.72-56.02-6.17-83.01-2.16-5.9-4.19-11.58-6.06-17.16Z"/>
          <g>
            <path class="cls-1" d="M911.85,676.43c9.7,18.16,21.43,37.71,33.46,54.79,12.03,17.28,25.23,33.42,38.28,44.89l4.81,4.07c1.11.52,2.1,1.06,3.06,1.71.81.81,2.27.92,3.33,1.48,1.06.56,2.25,1.02,3.7,1.24,5.12,1.55,11.73,2.16,19.25,1.59,7.45-.48,15.65-1.94,24.01-4.3,4.18-1.2,8.41-2.55,12.54-4.14,2.09-.76,4.1-1.6,6.09-2.44,1.73-.75,4.35-1.95,4.65-2.2,21.75-18.03,51.77-14.18,67.04,8.61,15.28,22.79,10.02,55.89-11.73,73.92-3.96,3.29-8.2,5.84-12.58,7.7l-10.69,4.44c-4.98,2.08-7.7,2.96-11.34,4.21-3.39,1.11-6.78,2.18-10.13,3.1-6.73,1.93-13.48,3.49-20.34,4.81-13.71,2.59-27.91,4.01-42.74,3.55-14.74-.41-30.42-2.88-45.97-9.29-3.87-1.37-7.7-3.23-11.48-5.44-3.75-2.2-7.59-3.98-11.08-6.87-3.54-2.68-7.05-5.45-10.43-8.27l-7.53-7.52c-19.2-20.28-33.21-41.51-45.97-63.15-12.8-21.87-23.51-43.18-34.01-67.22-8.53-19.5-.56-43.79,17.79-54.25,17.43-9.93,37.95-3.82,47.28,13.52l.76,1.43Z"/>
            <path class="cls-16" d="M893.83,800.45c6.99,10.83,14.63,21.52,23.34,32,29-22.62,48.1-47.8,59.45-66.13-9.16-9.51-18.2-20.93-26.72-32.97-6.84,13.25-24.17,41.91-56.06,67.1Z"/>
          </g>
          <g>
            <path class="cls-9" d="M868.66,1261.47s42.37,31.98,74.6,42.12c32.23,10.14,37.43,24.34,38.47,33.46,1.04,9.12-54.07,15.21-123.73,15.21s-90.59-11.15-91.63-30.42c-1.04-19.26,18.09-60.37,18.09-60.37,0,0,57.43-25.9,84.2,0Z"/>
            <path class="cls-4" d="M873.34,1338.8c-69.66,0-90.59-11.15-91.63-30.42-.73-13.58,8.54-37.96,14.08-51.2-6.88,2.31-11.33,4.29-11.33,4.29,0,0-19.13,41.11-18.09,60.37,1.04,19.26,21.97,30.42,91.63,30.42s124.76-6.08,123.73-15.21c-.19-1.66-.52-3.49-1.13-5.43-21.23,4.48-60.98,7.18-107.26,7.18Z"/>
          </g>
          <g>
            <path class="cls-9" d="M608.38,1261.47s-42.36,31.98-74.6,42.12c-32.23,10.14-37.43,24.34-38.47,33.46-1.04,9.12,54.06,15.21,123.72,15.21s90.59-11.15,91.63-30.42c1.04-19.26-18.09-60.37-18.09-60.37,0,0-57.43-25.9-84.2,0Z"/>
            <path class="cls-4" d="M603.7,1338.8c69.66,0,90.59-11.15,91.63-30.42.73-13.58-8.54-37.96-14.08-51.2,6.88,2.31,11.33,4.29,11.33,4.29,0,0,19.13,41.11,18.09,60.37-1.04,19.26-21.97,30.42-91.63,30.42s-124.76-6.08-123.72-15.21c.19-1.66.52-3.49,1.12-5.43,21.23,4.48,60.98,7.18,107.26,7.18Z"/>
          </g>
          <path class="cls-1" d="M909.45,991.47h-334.75s-12.48,220.17,43.12,281.18c0,0,67.12,17.74,82.91-22.85,3.17-16.48,3.44-93.2,17.32-115.13,9.73-15.39,32.09-15.39,41.83,0,13.87,21.93,14.14,98.64,17.31,115.13,15.78,40.59,82.91,22.85,82.91,22.85,55.6-61,49.34-281.18,49.34-281.18Z"/>
          <path class="cls-1" d="M916.37,681c-45.52-61.53-124.56-83.75-160.05-90.89-12.07-2.43-24.26-2.43-36.33,0-35.49,7.14-114.53,29.36-160.06,90.89-26.47,38.42-12.64,250.23,27.59,310.47h301.27c40.23-60.24,54.06-272.05,27.59-310.47Z"/>
          <path class="cls-3" d="M916.37,681c-5.49-7.42-11.49-14.25-17.82-20.57,1.03,8.92,1.76,18.69,2.13,29.25,4.62,131.01-83.05,239.84-191.47,239.84h-145.13c6.3,26.04,14.15,48.05,23.43,61.95h301.27c40.23-60.24,54.06-272.05,27.59-310.47Z"/>
          <rect class="cls-9" x="729.07" y="662.5" width="18.15" height="311.03"/>
          <path class="cls-9" d="M741.67,1014c-92.84,0-160.54-11.63-164.76-12.37-12.12-2.14-20.34-14.41-18.36-27.42,1.97-13.01,13.51-21.84,25.55-19.72,1.5.27,151.77,25.97,309.04-.03,12.18-2.05,23.51,6.93,25.38,19.96,1.87,13.04-6.46,25.24-18.6,27.24-55.92,9.25-110.42,12.34-158.24,12.34Z"/>
          <path class="cls-4" d="M918.52,974.42c-.99-6.89-4.66-12.58-9.67-16.17.05.28.16.53.2.81,1.9,13.03-6.4,25.25-18.53,27.28-55.9,9.39-110.39,12.61-158.21,12.72-92.84.23-160.56-11.24-164.79-11.97-3.21-.56-6.11-1.86-8.66-3.66,1.98,9.15,8.89,16.57,18.06,18.19,4.22.74,71.92,12.37,164.76,12.37,47.82,0,102.32-3.09,158.24-12.34,12.14-2,20.47-14.2,18.6-27.24Z"/>
          <g>
            <path class="cls-1" d="M1078.3,370.23c0,182.85-77.01,292.87-331.08,292.87s-331.08-110.02-331.08-292.87S564.38,39.16,747.23,39.16s331.08,148.23,331.08,331.08Z"/>
            <path class="cls-8" d="M1021.76,185.13c21.53,43.92,35.92,93.34,33.66,145.51-7.76,179.03-95.86,273.94-331.08,280.54-145.93,4.09-233.43-24.06-281.48-89.65,40.34,90.43,131.21,141.58,304.37,141.58,254.07,0,331.08-110.02,331.08-292.87,0-68.57-20.85-132.27-56.54-185.11Z"/>
            <path class="cls-13" d="M763.57,65.78c-27.72-2.97-58.45.61-76.18,4.51-64.98,14.3-139.36,55.93-164.69,121.51-17.93,46.42,46.35,74.79,151.68,41.86,105.33-32.93,138.52-79.34,146.03-106.13,11.82-42.14-19.84-57.78-56.85-61.75Z"/>
            <g>
              <path class="cls-16" d="M1077.45,347.71c-12.52,12.34-25.1,24.63-37.48,37.12-33.3,33.72-66.88,67.15-99.58,101.48-33.05,33.97-65.46,68.61-97.81,103.31-22.08,24.11-44.01,48.37-65.7,72.88,3.98-.15,7.93-.3,11.82-.51,22.84-19.09,45.5-38.37,68.04-57.76,35.7-31.25,71.32-62.56,106.31-94.54,35.34-31.62,69.79-64.14,104.54-96.37,3.27-3.05,6.48-6.17,9.74-9.23.65-10.99.96-22.28.96-33.86,0-7.58-.35-15.07-.85-22.53Z"/>
              <path class="cls-16" d="M940.39,338.71l72.52-5.15,62.66-5.26c-1.76-13.93-4.29-27.63-7.73-40.96l-58.61,5.72-72.26,8c-7.54.85-15.08,1.69-22.62,2.52l19.13-18.6,55.01-54.89,37.49-38.4c-2.75-4.29-5.6-8.5-8.54-12.65l-43.52,35.01-59.9,49.5-59.22,50.25-38.07,32.3,51.12-2.6c24.22-1.23,48.37-3.13,72.55-4.79Z"/>
            </g>
            <g>
              <path class="cls-16" d="M580.45,263.54l-59.9-49.5-43.52-35.01c-2.94,4.15-5.79,8.37-8.54,12.65l37.48,38.4,55.01,54.89,19.13,18.6c-7.54-.83-15.08-1.67-22.62-2.52l-72.26-8-58.61-5.72c-3.44,13.34-5.97,27.03-7.73,40.96l62.66,5.26,72.52,5.15c24.18,1.66,48.34,3.55,72.55,4.79l51.12,2.6-38.07-32.3-59.22-50.25Z"/>
              <path class="cls-16" d="M651.87,589.63c-32.34-34.71-64.75-69.34-97.81-103.31-32.7-34.33-66.28-67.76-99.58-101.48-12.38-12.49-24.95-24.78-37.48-37.12-.5,7.45-.85,14.95-.85,22.53,0,11.58.31,22.87.96,33.86,3.26,3.06,6.47,6.18,9.75,9.23,34.74,32.23,69.2,64.75,104.54,96.37,34.99,31.98,70.61,63.3,106.31,94.54,22.55,19.39,45.21,38.66,68.04,57.76,3.88.21,7.84.36,11.82.51-21.69-24.51-43.62-48.77-65.7-72.88Z"/>
            </g>
            <g>
              <path class="cls-12" d="M739.81,299.23h-280.2s14.8,163.25,94.82,216.48c80.02,53.23,290.74,53.23,370.76,0,80.02-53.24,94.82-216.48,94.82-216.48h-280.2Z"/>
              <g>
                <path class="cls-6" d="M778.5,299.23h-125.79c-28.5,45.56-67.48,108.57-121.56,196.1,7.08,7.79,14.79,14.73,23.28,20.38,18.14,12.07,43.02,21.37,71.54,27.96,50.59-81.76,115.27-185.74,152.52-244.44Z"/>
                <path class="cls-6" d="M852.08,299.23c-30.04,47.34-78.57,125.37-158.36,254.56,20.14,1.6,40.81,2.16,61.33,1.64,54.23-87.63,124.09-199.89,160.01-256.19h-62.98Z"/>
              </g>
            </g>
          </g>
          <path class="cls-9" d="M1194.51,847.64s99.78-8.78,83.67-84.45c-16.12-75.67-120.18-82.5-163.23-47.42-43.05,35.08-48.26,62.1-42.87,93.85,5.39,31.75,36.23,82.57,78.83,73.7,42.6-8.87,20.84-35.09,20.84-35.09l22.77-.6Z"/>
          <path class="cls-16" d="M889.07,1212.55c3.24-14.82,8.3-31.06,9.83-47.58-49.21,18.03-107.24,4.71-130.5-2.97,2.6,14.42,4.18,31.44,5.34,46.91,17.52,4.47,40.19,8.51,65.25,8.51,15.18,0,33.85-1.1,50.08-4.86Z"/>
          <path class="cls-16" d="M590.04,1212.93c16.22,3.76,33.69,4.48,48.88,4.48,25.05,0,47.73-4.04,65.25-8.51,1.16-15.45,2.74-32.44,5.34-46.85-23.18,7.73-79.33,20.68-128.77,2.49,1.52,16.52,5.34,33.47,9.3,48.39Z"/>
          <path class="cls-3" d="M831.96,1250.45c-40.93-2.84-43.36-68.65-55.82-101.55-12.46-32.9-37.18-25.77-37.18-25.77,0,0-24.72-7.13-37.18,25.77-12.46,32.9-14.89,98.71-55.82,101.55-19.12,1.33-33.26.05-42.96-1.67,4.16,9.37,9.02,17.52,14.81,23.87,0,0,67.12,17.74,82.91-22.85,3.17-16.48,3.44-93.2,17.32-115.13,9.73-15.39,32.09-15.39,41.83,0,13.87,21.93,14.14,98.64,17.31,115.12,15.79,40.59,82.91,22.85,82.91,22.85,5.79-6.35,10.65-14.5,14.81-23.87-9.7,1.73-23.84,3-42.96,1.67Z"/>
        </g>
        <g>
          <path class="cls-7" d="M760.29,456.41l-22.14,3.5-22.14-3.5c-22.19,44.68-7.59,71.25,22.14,71.25s44.33-26.57,22.14-71.25Z"/>
          <g>
            <ellipse class="cls-2" cx="551.65" cy="438.43" rx="35.83" ry="19.36"/>
            <ellipse class="cls-2" cx="924.66" cy="438.43" rx="35.83" ry="19.36"/>
            <path class="cls-14" d="M683.86,407.66c0,43-27.49-40.45-86.79-40.45s-68.94,83.45-68.94,40.45,34.86-77.86,77.86-77.86,77.86,34.86,77.86,77.86Z"/>
            <path class="cls-14" d="M792.44,407.66c0,43,23.03-40.45,82.33-40.45s73.4,83.45,73.4,40.45-34.86-77.86-77.86-77.86-77.86,34.86-77.86,77.86Z"/>
            <path class="cls-14" d="M841.28,275.79c4.5,7.24,27.41-6.16,45.64,2.35,18.23,8.51,25.05,13.23,28.08,11.46,3.03-1.77-4.08-27.82-36.06-35.83-31.99-8.01-47.71,5.83-37.65,22.03Z"/>
            <path class="cls-14" d="M635.02,275.79c-4.5,7.24-27.41-6.16-45.64,2.35-18.23,8.51-25.05,13.23-28.08,11.46-3.03-1.77,4.08-27.82,36.06-35.83,31.99-8.01,47.71,5.83,37.65,22.03Z"/>
          </g>
          <path class="cls-14" d="M547.93,366.08c-8.62-2.35-18.3-23.78-26.14-20.91-7.84,2.87,3.4,23.26,19.08,29.27,15.68,6.01,7.06-8.36,7.06-8.36Z"/>
          <path class="cls-14" d="M540.4,380.43c-8.93.34-24.58-17.22-31.2-12.13-6.62,5.09,10.2,21.17,26.97,22.22,16.76,1.04,4.23-10.09,4.23-10.09Z"/>
          <path class="cls-14" d="M928.37,366.08c8.62-2.35,18.3-23.78,26.14-20.91,7.84,2.87-3.4,23.26-19.08,29.27-15.68,6.01-7.06-8.36-7.06-8.36Z"/>
          <path class="cls-14" d="M935.9,380.43c8.93.34,24.58-17.22,31.2-12.13,6.62,5.09-10.2,21.17-26.97,22.22-16.76,1.04-4.23-10.09-4.23-10.09Z"/>
          <path class="cls-14" d="M778.18,426.11c-5.99-4.73-2.13,26.7-40.03,26.7s-34.04-31.43-40.03-26.7c-5.99,4.73-.95,41.29,40.03,41.29s46.02-36.56,40.03-41.29Z"/>
          <g class="cls-15">
            <path d="M742.36,459.91c-.62,14.04-1.65,28.06-3.1,42.05-.07.61-.62,1.05-1.23.98-.53-.06-.93-.48-.98-.98-1.46-13.99-2.49-28.01-3.1-42.05-.04-5.75,8.45-5.77,8.42,0h0Z"/>
          </g>
        </g>
      </g>
    </g>
  </g>
</svg>