<?xml version="1.0" encoding="UTF-8"?>
<svg xmlns="http://www.w3.org/2000/svg" viewBox="0 0 1832.63 1732.6">
  <defs>
    <style>
      .cls-1 {
        fill: #f991f4;
      }

      .cls-2 {
        fill: #faaf40;
      }

      .cls-2, .cls-3, .cls-4, .cls-5, .cls-6, .cls-7 {
        opacity: .5;
      }

      .cls-2, .cls-3, .cls-5, .cls-6, .cls-8 {
        mix-blend-mode: multiply;
      }

      .cls-3 {
        fill: #00512a;
      }

      .cls-9 {
        fill: #0e3520;
      }

      .cls-4, .cls-10 {
        fill: #ff7271;
      }

      .cls-5, .cls-11 {
        fill: #231f20;
      }

      .cls-6, .cls-8 {
        fill: #014675;
      }

      .cls-12 {
        isolation: isolate;
      }

      .cls-8 {
        opacity: .35;
      }

      .cls-13 {
        fill: #8cc8db;
      }

      .cls-7, .cls-14 {
        fill: #fff;
        mix-blend-mode: soft-light;
      }

      .cls-15 {
        fill: #fec000;
      }

      .cls-16 {
        fill: #240b4a;
      }

      .cls-17 {
        fill: #6ea2ff;
      }
    </style>
  </defs>
  <g class="cls-12">
    <g id="OBJECTS">
      <g>
        <g>
          <g>
            <path class="cls-1" d="M982.15,856.54c-.86.08-.94.1-2.37.07l-4.6-.09-9.95-.15-20.59-.48c-13.8-.39-27.65-1.17-41.5-2.09-27.7-1.95-55.37-5.12-82.91-9.39-27.55-4.25-55.02-9.49-82.22-16.06-27.31-6.25-54.21-14.18-81.09-22.51-23.71-7.35-36.98-32.53-29.63-56.24,7.35-23.71,32.53-36.98,56.24-29.63,1.64.51,3.23,1.1,4.77,1.78l.98.44c23.5,10.48,47.25,20.75,71.6,29.48,24.26,9.06,48.99,16.94,74.03,23.94,25.03,7.04,50.4,13.09,76.04,18.02,12.83,2.41,25.7,4.71,38.69,6.64l19.61,2.83,10.16,1.38,5.45.77c1.92.27,5.15.85,7.63,1.35,13.48,2.73,22.2,15.87,19.47,29.35-2.23,11.01-11.4,18.84-22.03,19.86l-7.79.73Z"/>
            <path class="cls-17" d="M885.99,788.25c-11.9-2.64-23.73-5.52-35.49-8.62-1.42,18.65-2.73,45.04-1.46,68.63,12.08,1.53,24.17,2.8,36.28,3.88-1.52-19.44-.66-43.97.68-63.89Z"/>
            <path class="cls-11" d="M590.39,633.35c7.1,2.99,13.87,6.6,19.83,9.83,28.28,15.33,59.9,39.46,73.23,72.25,23.89,58.79-21.14,104.67-57.16,91.02-36.02-13.65-73.69-54.64-28.85-64.11,16.88-3.56-76.45-86.7-57.34-105.77,14.11-14.07,33.16-10.46,50.3-3.23Z"/>
            <path class="cls-8" d="M944.65,855.87l20.59.48,9.95.15,4.6.09c1.43.04,1.51.02,2.37-.06l7.79-.73c10.63-1.02,19.81-8.85,22.03-19.86,2.73-13.48-5.99-26.62-19.47-29.35-2.48-.5-5.72-1.08-7.63-1.35l-5.45-.77-10.16-1.38-19.61-2.83c-10.85-1.62-21.61-3.51-32.34-5.49l4.54,34.54s-140.52-10.65-184.31-20.43c-35.55-7.94-24.31-43.29-31.67-79.39-5.54-2.42-11.07-4.86-16.58-7.31l-.98-.44c-1.54-.67-3.13-1.27-4.77-1.78-23.71-7.35-48.89,5.92-56.24,29.63-7.35,23.71,5.92,48.89,29.63,56.24,26.87,8.33,53.78,16.26,81.09,22.51,27.2,6.57,54.67,11.81,82.22,16.06,27.54,4.27,55.21,7.44,82.91,9.39,13.85.92,27.7,1.7,41.51,2.09Z"/>
          </g>
          <path class="cls-11" d="M1574.95,1224.17s49.87,17.48,75.76,38.58c25.9,21.1,40.73,17.6,49.04,13.44,8.3-4.16-16.09-53.12-53.45-110.78-37.36-57.66-58.06-68.85-74.97-59.12-16.91,9.74-41.54,48.17-41.54,48.17,0,0,8.82,61.79,45.16,69.7Z"/>
          <path class="cls-5" d="M1571.34,1106.29c6.68-3.84,13.97-4.35,22.63-.08-10.08,10.49-25.67,29.37-24.26,38.42,1.95,12.54,25.85,26.69,28.78,49.13,1.88,14.43,7.17,32.05,9.17,43.85-17.75-8.19-32.7-13.44-32.7-13.44-36.34-7.91-45.16-69.7-45.16-69.7,0,0,24.63-38.44,41.55-48.17Z"/>
          <path class="cls-11" d="M958.44,1429.68s-44.65,28.26-77.26,35.48c-32.62,7.21-39.08,21.02-40.96,30.11-1.89,9.09,51.64,20.34,120.04,26.82,68.4,6.48,90.02-2.81,92.88-22.11,2.86-19.3-12-62.47-12-62.47,0,0-53.93-31.42-82.68-7.83Z"/>
          <path class="cls-5" d="M941.2,1502.67c68.65,2.93,89.75-7.46,91.61-26.88,1.12-11.74-4.67-31.81-9.43-45.88,10.52,4.17,17.75,8.36,17.75,8.36,0,0,14.86,43.17,12,62.47-2.86,19.3-24.47,28.59-92.87,22.11-68.4-6.48-121.93-17.73-120.04-26.82.25-1.19.58-2.47,1.04-3.8,21.73,4.81,58.08,8.66,99.95,10.45Z"/>
          <path class="cls-1" d="M1044.5,1097.64c-13.24,12.59-115.12,214.44-104.92,288.27,10.19,73.82,111.16,74.75,141.5,21.62,30.34-53.14,68.07-128.18,110.93-150.5,34.34-17.88,72.74,25.5,126.4,32.1,53.67,6.59,204.86,30.79,257.95-62.21,20.8-71.37-35.57-111.55-171.28-63.65-33.56-6.51-37.55-44.61-37.55-84.18,0-14.63-41.1-11.8-99.1,2.07-58,13.87-223.94,16.49-223.94,16.49Z"/>
          <path class="cls-1" d="M1044.5,1093.36s-85.4-142-85.4-235.78c-12.26-108.22,81.38-124.17,153.79-126.85,72.41-2.68,220.75,164.51,254.66,335.84,0,0-196.79,69.66-323.04,26.79Z"/>
          <path class="cls-6" d="M977.9,776.67c-.92,9.46-.86,19.8.43,31.23,0,20.51,4.09,43.33,10.47,66.47,33.27,120.56,154.55,194.95,277.69,173.09,36.89-6.55,69.08-14.98,90.89-21.34,4.01,13.4,7.48,26.9,10.16,40.44,0,0-196.79,69.66-323.04,26.79,0,0-85.4-142-85.4-235.78-4.13-36.44,3.78-62.38,18.81-80.91Z"/>
          <path class="cls-11" d="M1162.76,1112.17c2.49,0,4.97-1.21,6.75-3.56,3.3-4.35,2.95-11.02-.77-14.88-1.02-1.06-102.67-108.64-142.63-322.55-1.07-5.69-5.89-9.27-10.72-8.05-4.86,1.24-7.94,6.86-6.88,12.55,41.3,221.06,143.94,329.34,148.29,333.84,1.71,1.78,3.84,2.65,5.96,2.65Z"/>
          <path class="cls-11" d="M1147.76,1131.97c114.55,0,215.75-32.44,221.39-34.28,11.48-3.74,18-16.94,14.58-29.48-3.41-12.54-15.52-19.72-26.97-15.94-1.74.56-176.09,56.27-317.61,19.75-11.63-3.02-23.34,4.87-26.09,17.61-2.75,12.74,4.45,25.5,16.11,28.51,38.91,10.05,79.53,13.82,118.59,13.82Z"/>
          <path class="cls-2" d="M1013.06,1089.63c1.64-7.58,6.48-13.37,12.56-16.24-.51,1.29-.97,2.62-1.28,4.03-2.75,12.74,4.46,25.5,16.11,28.51,38.9,10.05,79.53,13.82,118.59,13.82,114.55,0,215.75-32.44,221.39-34.28.81-.26,1.53-.68,2.29-1.03-2.47,6.15-7.22,11.17-13.57,13.23-5.65,1.84-106.84,34.28-221.39,34.28-39.06,0-79.69-3.78-118.59-13.82-11.66-3.01-18.86-15.77-16.11-28.51Z"/>
          <path class="cls-1" d="M867.31,787.29s-179-74.93-116.56-362.16c39.49-181.64,243.24-314.75,425.98-273.31,106.82,24.22,187.52,101.65,224.23,203.29,45.62,126.33-14.53,283.37-119.86,363.28-58.14,44.1-413.79,68.9-413.79,68.9Z"/>
          <path class="cls-14" d="M1077.25,173.02c31.59-3.39,66.6.69,86.8,5.13,74.04,16.29,158.8,63.74,187.66,138.45,20.43,52.89-52.81,85.23-172.84,47.7-120.02-37.52-157.84-90.41-166.4-120.93-13.47-48.01,22.6-65.84,64.78-70.36Z"/>
          <path class="cls-17" d="M1239.82,362.95c33.83-13.73,67.43-28.09,101.06-42.38,12.34-5.3,24.64-10.7,36.94-16.09-1.66-2.97-3.37-5.9-5.11-8.81-12.32,3.6-24.64,7.19-36.92,10.89-34.95,10.66-69.93,21.23-104.67,32.44-34.85,10.93-69.59,22.15-104.2,33.74-34.67,11.42-69.35,22.82-103.8,34.84l-81.95,28.57,86.93,8.96,72.47,7.47c24.15,2.62,48.35,4.6,72.52,6.85,25.66,2.24,51.3,4.66,76.95,7-26.88,15.81-53.72,31.69-80.29,48.02-46.24,27.98-92.46,55.98-138.22,84.78-45.99,28.4-91.46,57.69-136.92,87.01-28.69,18.77-57.27,37.71-85.72,56.89,2.07,2.22,4.14,4.37,6.19,6.4,30.07-14.98,60.03-30.16,89.88-45.52,47.94-25.06,95.86-50.14,143.27-76.11,47.64-25.57,94.81-51.94,141.97-78.34,47.35-26.06,93.88-53.53,140.84-80.27l59.56-33.91-68.68-6.65c-48.34-4.68-96.8-7.92-145.2-11.91-19.74-1.51-39.48-3.13-59.23-4.51,6.93-2.76,13.88-5.5,20.81-8.26,33.97-13.35,67.8-27.07,101.53-41.08Z"/>
          <path class="cls-6" d="M750.76,425.13c4-18.41,9.77-36.29,16.95-53.57-1.42,5.19-2.73,10.41-3.88,15.68-12.08,55.58-15.12,103.21-12.17,143.88,9.22,127.1,122.85,220.66,249.61,207.57,108.88-11.24,257.16-31.06,292.91-58.19,47.61-36.12,85.94-88.02,109.49-145.7-20.56,72.55-64.72,139.71-122.57,183.59-58.14,44.1-413.79,68.9-413.79,68.9,0,0-179-74.93-116.56-362.16Z"/>
          <g>
            <path class="cls-17" d="M1366.74,212.49c1.74-6.39,3.91-12.56,5.84-18.85,2.08-6.21,4.29-12.36,6.64-18.43,2.33-6.08,3.25-12.91,7.44-18.01,4.08-5.16,8.8-9.99,16.21-13.4.57-.26,1.24-.01,1.51.56.04.09.07.19.09.28,1.39,8.04.08,14.66-1.86,20.95-1.83,6.34-6.94,10.97-10.63,16.33-3.68,5.37-7.48,10.68-11.42,15.91-4.08,5.16-7.94,10.44-12.22,15.5-.33.39-.91.44-1.3.11-.28-.24-.38-.61-.29-.95Z"/>
            <path class="cls-17" d="M1403.31,254.32c6.38-4.29,12.96-8.12,19.43-12.2,6.53-3.93,13.13-7.72,19.78-11.37,6.65-3.66,12.67-8.8,20.13-10.54,7.42-1.84,15.12-3.04,24.02-1.42.59.11.97.67.87,1.25-.03.15-.09.29-.16.4-5,7.53-11.19,12.26-17.66,16.34-6.42,4.19-14.3,4.97-21.55,7.22-7.24,2.27-14.54,4.4-21.9,6.4-7.42,1.84-14.74,3.93-22.25,5.57-.49.11-.98-.21-1.09-.7-.08-.38.08-.75.38-.96Z"/>
            <path class="cls-17" d="M1424.99,317.4c5.17-1.44,10.34-2.39,15.51-3.6,5.17-1.05,10.34-1.95,15.51-2.7,5.17-.77,10.34-3.13,15.51-1.8,5.17,1.21,10.34,3.14,15.51,8.11.5.48.51,1.27.03,1.77,0,.01-.02.03-.03.03-5.17,4.97-10.34,6.89-15.51,8.11-5.17,1.33-10.34-1.04-15.51-1.8-5.17-.75-10.34-1.65-15.51-2.7-5.17-1.21-10.34-2.17-15.51-3.6-.5-.14-.79-.65-.65-1.15.09-.33.35-.56.65-.65Z"/>
          </g>
          <g>
            <path class="cls-9" d="M485.71,858.86c-33.84-75.57,70.35-319.38,70.35-319.38l-40.39-17.26-40.39-17.26s-104.19,243.81-182.2,271.59c-57.53,20.49-151.34,238.12-196.63,350.96-14.92,37.18-2.06,77.32,28.96,90.57l78.54,33.57,78.54,33.56c31.01,13.25,68.91-5.19,85.47-41.67,50.25-110.72,142.69-328.94,117.74-384.68Z"/>
            <path class="cls-15" d="M359.82,886.93l119.85-53.15c-9.34-93.68,76.39-294.3,76.39-294.3l-40.39-17.26-40.39-17.26s-79.63,186.33-151.78,251.76l36.31,130.21Z"/>
            <path class="cls-15" d="M408.13,1091.98c-18.29,42.81-83.61,55.94-145.88,29.33-62.27-26.61-97.93-82.89-79.63-125.7,18.29-42.81,83.61-55.94,145.88-29.33,62.27,26.61,97.93,82.89,79.63,125.7Z"/>
            <path class="cls-10" d="M396.93,1020.76l-101.38,19.09c-12.4-21.36-31.33-53.87-50.22-85.91-23.63,3.44-43.43,13.48-55.4,29.34,21.3,36.12,44.62,76.12,62.55,107.11l11.11,19.19,147.74-27.82c4.42-19.61-1.13-41.14-14.4-60.99Z"/>
            <path class="cls-3" d="M485.71,858.86c-33.84-75.57,70.35-319.38,70.35-319.38l-15.83-6.77c-34.17,69.29-100.01,215.22-79.9,273.98,19.78,57.78-77.48,260.78-137.61,366.46-19.81,34.82-59.23,49.74-88.91,33.71l-89.84-34.69-52.25-28.21c-5.95,31.92,7.23,62.8,33.69,74.11l78.54,33.57,78.54,33.56c31.01,13.25,68.91-5.19,85.47-41.67,50.25-110.72,142.69-328.94,117.74-384.68Z"/>
            <path class="cls-9" d="M565.45,510.17l-75.46-32.25c-5.13-2.19-11.39.97-14,7.06l-11.35,26.55c-2.6,6.09-.56,12.81,4.57,15l75.46,32.25c5.13,2.19,11.39-.97,14-7.06l11.35-26.55c2.6-6.09.56-12.81-4.57-15Z"/>
          </g>
          <g>
            <path class="cls-13" d="M1141.61,381.01s-46.91,153.75-140.74,203.88c-93.83,50.14-277.87,53.48-277.87,53.48,0,0-28.54-123.67,16.4-274.07l402.2,16.71Z"/>
            <g>
              <path class="cls-7" d="M931.85,372.3c31.26,49.14,68.52,108.54,112.59,179.45-13.19,13.17-27.69,24.67-43.57,33.15-15.01,8.02-32.34,14.83-50.84,20.63-49.13-78.26-106.93-169.79-150.78-238.74l132.61,5.51Z"/>
              <path class="cls-7" d="M719.18,459.9c3.17-24.54,8.06-50.72,15.28-77.93,38.42,59.96,88.18,138.94,150.62,239.45-19.94,3.78-39.81,6.74-58.45,9.03-33.57-53.52-71.88-114.33-107.45-170.55Z"/>
            </g>
          </g>
          <g>
            <path class="cls-1" d="M1195.86,862.02c-.73.46-.79.52-2.08,1.13l-4.14,2.01-8.93,4.38-18.56,8.92c-12.48,5.92-25.17,11.51-37.93,16.98-25.57,10.84-51.66,20.58-78.14,29.27-26.47,8.72-53.33,16.53-80.55,23.02-27.17,6.83-54.74,11.98-82.47,16.76-24.46,4.22-47.72-12.19-51.94-36.66-4.22-24.46,12.19-47.72,36.66-51.93,1.69-.29,3.38-.49,5.06-.58l1.07-.05c25.7-1.33,51.52-2.97,77.18-6.24,25.73-2.94,51.34-7.15,76.83-12.28,25.5-5.1,50.85-11.22,75.93-18.47,12.53-3.68,25.03-7.47,37.49-11.65l18.76-6.38,9.68-3.38,5.21-1.78c1.83-.63,4.98-1.58,7.41-2.26,13.25-3.69,26.98,4.06,30.67,17.31,3.01,10.82-1.6,21.97-10.61,27.7l-6.61,4.19Z"/>
            <path class="cls-17" d="M1079.17,844.84c-11.8,3.05-23.65,5.86-35.54,8.44,7.2,17.26,18.01,41.37,29.86,61.82,11.45-4.12,22.8-8.48,34.08-13.02-10.18-16.63-20.55-38.87-28.4-57.24Z"/>
            <path class="cls-11" d="M745.47,841.03c7.68-.56,15.36-.42,22.13-.24,32.16.82,71.29,7.96,98.05,31.12,47.98,41.53,28.69,102.86-9.6,107.06-38.29,4.19-90.46-15.23-54.82-44.02,13.42-10.84-107.49-42.54-99.11-68.2,6.18-18.94,24.79-24.37,43.35-25.72Z"/>
            <path class="cls-8" d="M1162.15,878.46l18.56-8.92,8.93-4.38,4.14-2.01c1.29-.62,1.35-.67,2.08-1.13l6.61-4.19c9.01-5.73,13.63-16.88,10.61-27.7-3.69-13.25-17.42-21-30.67-17.31-2.43.68-5.58,1.63-7.41,2.26l-5.21,1.78-9.68,3.38-18.76,6.38c-10.4,3.49-20.85,6.68-31.31,9.79l19.72,28.71s-130.04,54.31-173.49,65.48c-35.28,9.07-41.31-27.54-64.26-56.36-6.03.36-12.07.69-18.09,1.01l-1.07.05c-1.68.1-3.36.29-5.06.58-24.46,4.22-40.88,27.47-36.66,51.93,4.22,24.46,27.47,40.88,51.94,36.66,27.72-4.78,55.3-9.93,82.46-16.76,27.22-6.5,54.08-14.3,80.55-23.02,26.48-8.7,52.57-18.44,78.14-29.27,12.76-5.47,25.45-11.07,37.93-16.98Z"/>
          </g>
          <path class="cls-17" d="M1397.71,1161.06c7.16,32.84,14.47,98.15-10.18,135.08,15.65.84,32.35,1.06,49.25.04,19.87-51.72,9.93-116.14,4.06-143.85-11.3,2.99-23.07,6.45-35.76,10.93-2.66-.52-5.07-1.3-7.38-2.2Z"/>
          <path class="cls-17" d="M1094.68,1383.35c7.65-13.66,15.68-27.91,24.09-41.83-69.04-4.76-126.74-32.29-161.74-53.54-5.04,15.3-9.31,30.16-12.45,43.98,35.79,20.5,87.8,43.43,150.1,51.39Z"/>
          <path class="cls-6" d="M939.57,1385.91c-.92-6.68-.9-14.44-.14-22.98,8.71,9.6,26.09,21.92,64.37,20.36,64.23-2.62,126.72-161.64,188.2-172.61,61.49-10.98,64.23,27.94,107.43,42.9,43.19,14.97,156.36,17.96,215.23-10.98,56.94-27.99,17.89-93.7,15.27-97.98,43.42,8.13,58.89,39.51,46.43,82.28-53.09,93-204.29,68.81-257.95,62.21-53.67-6.59-92.07-49.97-126.41-32.1-42.86,22.32-80.6,97.36-110.94,150.5-30.34,53.14-131.31,52.21-141.5-21.61Z"/>
          <g>
            <path class="cls-9" d="M153.01,1257.03s84.77,35.65,108.16,47.34c23.39,11.69,52.62,16.08,83.31,0"/>
            <path class="cls-9" d="M471.63,1051.26c-9.62,35.9-22.33,70.56-35.81,104.92-13.79,34.24-28.35,68.16-46.04,100.85,9.59-35.9,22.31-70.57,35.81-104.92,13.81-34.23,28.37-68.15,46.04-100.85Z"/>
            <path class="cls-9" d="M49.43,787.29c4.33,37.96,5.33,75.91,5.51,113.87-.15,37.96-1.15,75.91-5.51,113.87-4.36-37.96-5.35-75.91-5.5-113.87.18-37.96,1.17-75.91,5.5-113.87Z"/>
            <path class="cls-9" d="M139.12,532.71c2.27,25.66,3.34,51.32,4.22,76.98,1.01,25.66,1.15,51.32,1.29,76.98-.12,25.66-.27,51.32-1.27,76.98l-1.54,38.49c-.92,12.83-1.45,25.66-2.7,38.49-1.25-12.83-1.79-25.66-2.7-38.49l-1.54-38.49c-1-25.66-1.14-51.32-1.27-76.98.14-25.66.28-51.32,1.29-76.98.88-25.66,1.94-51.32,4.22-76.98Z"/>
            <path class="cls-9" d="M270.66,579.43c4.34,15.3,5.32,30.6,5.5,45.9-.16,15.3-1.14,30.6-5.5,45.9-4.37-15.3-5.34-30.6-5.5-45.9.19-15.3,1.16-30.6,5.5-45.9Z"/>
            <path class="cls-9" d="M556.06,387.87c4.34,15.3,5.32,30.6,5.5,45.9-.16,15.3-1.14,30.6-5.5,45.9-4.37-15.3-5.34-30.6-5.5-45.9.19-15.3,1.16-30.6,5.5-45.9Z"/>
            <path class="cls-9" d="M365.25,381.97c4.33,27.54,5.33,55.09,5.5,82.63-.15,27.54-1.15,55.09-5.5,82.63-4.36-27.54-5.35-55.09-5.5-82.63.18-27.54,1.17-55.09,5.5-82.63Z"/>
            <path class="cls-9" d="M220.55,805.87c-13.93,38.31-30.85,75.15-48.51,111.64-17.96,36.34-36.67,72.31-58.4,106.8,13.9-38.32,30.83-75.16,48.51-111.64,17.98-36.33,36.69-72.3,58.4-106.8Z"/>
            <path class="cls-9" d="M517.33,979.54c-4.33-28.44-5.33-56.89-5.5-85.33.15-28.44,1.15-56.89,5.5-85.33,4.36,28.44,5.35,56.89,5.5,85.33-.18,28.44-1.17,56.89-5.5,85.33Z"/>
            <path class="cls-9" d="M430.71,549.11c-9.12,28.57-21.72,55.55-35.61,81.87-7.09,13.08-14.55,25.99-22.81,38.43-8.14,12.48-17.17,24.6-27.81,35.21,7.17-13.14,13.54-26.45,20.39-39.55,6.67-13.19,13.65-26.2,20.53-39.3,14.12-25.99,28.42-51.91,45.31-76.66Z"/>
          </g>
        </g>
        <g>
          <g>
            <path class="cls-4" d="M926.35,549.73c0,12.9,19.36,23.36,43.25,23.36s43.25-10.46,43.25-23.36-19.36-23.36-43.25-23.36-43.25,10.46-43.25,23.36Z"/>
            <path class="cls-16" d="M786.29,546.39c0-38.98-27.4-50.82-41.81-50.82-35.15,0-30.36,8.91-30.36,47.89s-2.68,53.76,30.36,53.76c14.41,0,41.81-11.85,41.81-50.82Z"/>
          </g>
          <path class="cls-16" d="M899.92,407.26c9.42-17.17,38.16-6.04,26.86,13.08-11.31,19.13-53.95,75.15-53.95,75.15,0,0,85.03-45.63,96.16-46.84,11.12-1.21,23.13,16.21,3.47,28.39-19.67,12.19-90.31,40.49-90.31,40.49,0,0,46.22,5.68,57.74,8.17,11.53,2.5,15.24,19.54-7.28,21.3-22.52,1.76-88.86-4.72-95.12-19.53-6.26-14.81,62.43-120.23,62.43-120.23Z"/>
          <path class="cls-16" d="M881.9,295.79c10.02-2.34,18.14,28.65,40.96,36.94,22.82,8.29,32.67,10.09,33.75,14.19,1.07,4.1-27.23,20.27-61.36-.2-34.14-20.47-35.74-45.7-13.34-50.94Z"/>
        </g>
      </g>
    </g>
  </g>
</svg>