<?xml version="1.0" encoding="UTF-8"?>
<svg id="OBJECTS" xmlns="http://www.w3.org/2000/svg" viewBox="0 0 1769.44 1672.85">
  <defs>
    <style>
      .cls-1 {
        fill: #c1b49a;
      }

      .cls-2 {
        fill: #e0e04c;
      }
    </style>
  </defs>
  <path class="cls-1" d="M1585.4,1498.88c-5.48-2.05-10.28-6-13.31-11.54L871.34,209.87c-6.73-12.26-2.24-27.66,10.03-34.38,12.26-6.73,27.66-2.25,34.39,10.03l700.75,1277.47c6.73,12.26,2.24,27.66-10.03,34.38-6.73,3.69-14.41,4.01-21.07,1.51Z"/>
  <path class="cls-2" d="M1214.94,730.67c-372.47-99.08-357.52,502.63-729.99,403.55-89.68-162.22-179.36-324.44-269.04-486.66,372.47,99.08,357.52-502.63,729.99-403.55,89.68,162.22,179.36,324.44,269.04,486.66Z"/>
</svg>