<?xml version="1.0" encoding="UTF-8"?>
<svg id="OBJECTS" xmlns="http://www.w3.org/2000/svg" viewBox="0 0 500 500">
  <defs>
    <style>
      .cls-1 {
        fill: #d705dd;
      }

      .cls-2 {
        fill: #b500bf;
      }

      .cls-3 {
        fill: #333;
        opacity: .3;
      }

      .cls-4 {
        fill: #f8f8f8;
      }

      .cls-5, .cls-6 {
        fill: #2e2e2e;
      }

      .cls-5, .cls-7 {
        opacity: .5;
      }

      .cls-8 {
        fill: #d205dd;
      }

      .cls-9 {
        opacity: .4;
      }

      .cls-10 {
        fill: #b204b7;
      }

      .cls-11 {
        fill: #030303;
      }

      .cls-12 {
        fill: #1a1a1a;
      }

      .cls-13, .cls-6 {
        opacity: .2;
      }

      .cls-14 {
        fill: #920a99;
      }
    </style>
  </defs>
  <g>
    <path class="cls-12" d="M298.83,127.48c-2.11-.63-3.11-1.98-2.23-2.98.89-1.01.52-2.79-.82-3.97s-3.59-.81-5.02.81c-1.42,1.62-7.61,1.44-13.74-.4l-25.97-7.79c-6.13-1.84-16.18-1.88-22.33-.08l-28.09,8.21c-6.15,1.8-12.46,1.87-14.03.17-1.57-1.71-3.93-2.12-5.24-.91-1.31,1.21-1.58,3.06-.61,4.11.98,1.06.19,2.39-1.73,2.95-1.93.56-2.69,3.82-1.69,7.23,1,3.41,4.78,5.34,8.4,4.28,3.62-1.06,10.13,1.93,14.47,6.64l31.84,34.58c4.34,4.71,11.35,4.63,15.58-.18l30.27-34.4c4.23-4.81,10.7-7.84,14.37-6.74,3.68,1.1,7.52-.78,8.54-4.19s.13-6.71-1.98-7.35ZM247.52,170.49c-4.23,4.81-11.24,4.89-15.58.18l-24.81-26.94c-4.34-4.71-2.86-10.03,3.29-11.83l18.26-5.34c6.14-1.8,16.19-1.76,22.33.08l16.62,4.99c6.13,1.84,7.69,7.28,3.46,12.09l-23.57,26.78Z"/>
    <path class="cls-3" d="M239.77,181.23c-2.18,0-4.24-.94-5.81-2.65l-31.84-34.58c-4.17-4.53-10.23-7.69-14.75-7.69-.84,0-1.63.11-2.35.32-.42.12-.86.19-1.29.19-1.83,0-3.43-1.12-3.9-2.71-.63-2.14-.24-3.68.05-4.06,1.96-.61,3.33-1.84,3.76-3.4.35-1.27.04-2.59-.86-3.63.02-.12.1-.35.35-.58,0,0,0,0,0,0,.01,0,.06-.01.13-.01.34,0,.92.2,1.44.77,1.28,1.39,3.55,2.07,6.95,2.07,2.95,0,6.4-.53,9.72-1.5l28.09-8.21c2.69-.79,6.33-1.22,10.25-1.22s7.86.47,10.6,1.29l25.97,7.79c3.42,1.03,7.07,1.62,10,1.62,3.15,0,5.26-.65,6.43-1.98.4-.46.88-.62,1.16-.62.09,0,.17.02.2.05.23.2.35.41.39.55-.73.96-.96,2.15-.63,3.3.47,1.64,2.02,2.97,4.25,3.64.3.17.96,1.75.25,4.13-.48,1.59-2.06,2.66-3.93,2.66h0c-.47,0-.93-.07-1.39-.21-.74-.22-1.56-.34-2.42-.34-4.56,0-10.57,3.22-14.64,7.84l-30.27,34.4c-1.58,1.79-3.68,2.78-5.92,2.78ZM239.66,122.64c-4.4,0-8.55.51-11.7,1.43l-18.26,5.34c-3.81,1.11-6.48,3.52-7.34,6.62-.86,3.09.19,6.54,2.88,9.45l24.81,26.94c2.56,2.78,5.98,4.32,9.62,4.32s7.23-1.61,9.8-4.54l23.57-26.78c2.61-2.97,3.59-6.46,2.7-9.58-.89-3.12-3.58-5.56-7.36-6.7l-16.62-4.99c-3.25-.98-7.55-1.51-12.09-1.51Z"/>
  </g>
  <g>
    <path class="cls-12" d="M179.31,410.77c2.11.63,3.11,1.98,2.23,2.98-.89,1.01-.52,2.79.82,3.97,1.34,1.17,3.59.81,5.02-.81,1.43-1.62,7.61-1.44,13.74.4l25.97,7.8c6.13,1.84,16.18,1.88,22.33.08l28.09-8.21c6.15-1.8,12.46-1.87,14.03-.17,1.57,1.71,3.93,2.12,5.24.91s1.58-3.06.61-4.11c-.98-1.06-.2-2.39,1.73-2.95,1.93-.56,2.69-3.82,1.69-7.24-1-3.41-4.78-5.34-8.4-4.28-3.62,1.06-10.13-1.93-14.47-6.64l-31.84-34.58c-4.34-4.71-11.35-4.63-15.58.18l-30.27,34.4c-4.23,4.81-10.7,7.84-14.37,6.74-3.67-1.1-7.52.78-8.54,4.19-1.02,3.41-.13,6.72,1.98,7.35ZM230.62,367.76c4.23-4.81,11.24-4.89,15.58-.18l24.81,26.94c4.34,4.71,2.86,10.03-3.29,11.83l-18.26,5.34c-6.14,1.8-16.19,1.76-22.33-.08l-16.62-4.99c-6.13-1.84-7.69-7.28-3.46-12.09l23.56-26.78Z"/>
    <path class="cls-3" d="M238.38,357.02c2.18,0,4.24.94,5.81,2.65l31.84,34.58c4.17,4.53,10.23,7.69,14.74,7.69.84,0,1.63-.11,2.35-.32.42-.12.86-.19,1.29-.19,1.83,0,3.43,1.12,3.9,2.71.63,2.14.24,3.68-.05,4.06-1.96.61-3.33,1.84-3.76,3.4-.35,1.27-.04,2.59.86,3.63-.02.12-.1.34-.35.58,0,0,0,0,0,0-.01,0-.06,0-.13.01-.34,0-.92-.2-1.44-.77-1.28-1.39-3.55-2.07-6.95-2.07-2.95,0-6.4.53-9.72,1.5l-28.09,8.21c-2.69.79-6.33,1.22-10.25,1.22s-7.86-.47-10.6-1.3l-25.97-7.79c-3.42-1.03-7.07-1.62-10-1.62-3.15,0-5.26.65-6.43,1.98-.4.46-.88.62-1.16.62-.09,0-.17-.02-.2-.05-.23-.2-.35-.41-.39-.55.73-.96.96-2.15.63-3.3-.47-1.64-2.02-2.97-4.25-3.64-.3-.17-.96-1.75-.25-4.13.48-1.59,2.06-2.66,3.93-2.66h0c.47,0,.93.07,1.39.21.74.22,1.56.34,2.42.33,4.56,0,10.57-3.22,14.64-7.84l30.27-34.4c1.58-1.79,3.68-2.78,5.92-2.78ZM238.48,415.61c4.4,0,8.55-.51,11.7-1.43l18.26-5.34c3.81-1.11,6.48-3.52,7.34-6.62.86-3.09-.19-6.54-2.88-9.45l-24.81-26.94c-2.56-2.79-5.98-4.32-9.62-4.32s-7.23,1.61-9.8,4.54l-23.57,26.78c-2.61,2.97-3.59,6.46-2.7,9.58.89,3.12,3.58,5.56,7.36,6.7l16.62,4.99c3.25.98,7.55,1.51,12.09,1.51Z"/>
  </g>
  <g>
    <path class="cls-1" d="M307.94,50.93c-3.06,0-68.05-11.63-68.05-11.63v.05s0-.05,0-.05c0,0-64.99,11.63-68.05,11.63v20.36s52.25-6.6,68.06-11.96c15.81,5.37,68.06,11.96,68.06,11.96v-20.36Z"/>
    <g>
      <path class="cls-6" d="M252.05,41.46s9.5,21.42,34.08,26.81c0,0-39.77-5.52-46.68-9.16"/>
      <path class="cls-6" d="M229.25,41.46s-9.5,21.42-34.08,26.81c0,0,39.77-5.52,46.68-9.16"/>
      <g>
        <polygon class="cls-2" points="167.32 49.48 181.76 46.48 181.76 78.38 167.32 81.38 167.32 49.48"/>
        <polygon class="cls-2" points="312.45 49.48 298 46.48 298 78.38 312.45 81.38 312.45 49.48"/>
      </g>
      <path class="cls-4" d="M177.11,79.35s3.14-32.87,4.65-32.87,3.88,39.17,3.88,39.17c0,0-3.16-7.42-8.53-6.31Z"/>
      <path class="cls-4" d="M302.57,79.35s-3.14-32.87-4.65-32.87-3.88,39.17-3.88,39.17c0,0,3.16-7.42,8.53-6.31Z"/>
    </g>
  </g>
  <path class="cls-10" d="M298.56,223.91s12.51-24.47,18.49-18.49c5.98,5.98-2.7,195.5-2.7,195.5"/>
  <path class="cls-10" d="M178.42,223.91s-12.51-24.47-18.49-18.49c-5.98,5.98,2.7,195.5,2.7,195.5"/>
  <g>
    <rect class="cls-11" x="283.08" y="372.23" width="31.45" height="71.16" rx="14.67" ry="14.67"/>
    <g class="cls-13">
      <path class="cls-4" d="M310.11,403.11c.44-5.28.69-5.27.55.03l-.64,24.23c-.14,5.3-2.78,9.87-5.86,10.16-3.08.29-3.61-.14-1.17-.95s4.8-5.8,5.24-11.08l1.88-22.4Z"/>
    </g>
  </g>
  <g>
    <path class="cls-11" d="M193.07,433.89c0,8.1-6.57,9.49-14.67,9.49h-2.1c-8.11,0-14.67-1.39-14.67-9.49v-52.17c0-8.11,6.57-9.49,14.67-9.49h2.1c8.1,0,14.67,1.39,14.67,9.49v52.17Z"/>
    <g class="cls-13">
      <path class="cls-4" d="M188.65,403.11c.44-5.28.69-5.27.55.03l-.64,24.23c-.14,5.3-2.78,9.87-5.86,10.16-3.08.29-3.61-.14-1.17-.95s4.8-5.8,5.24-11.08l1.88-22.4Z"/>
    </g>
  </g>
  <g>
    <path class="cls-11" d="M314.53,160.91c0,8.1-6.57,9.5-14.67,9.5h-2.1c-8.11,0-14.67-1.39-14.67-9.5v-52.17c0-8.11,6.57-9.49,14.67-9.49h2.1c8.1,0,14.67,1.39,14.67,9.49v52.17Z"/>
    <g class="cls-13">
      <path class="cls-4" d="M310.11,130.13c.44-5.28.69-5.27.55.03l-.64,24.23c-.14,5.3-2.78,9.87-5.86,10.16s-3.61-.14-1.17-.95,4.8-5.8,5.24-11.08l1.88-22.4Z"/>
    </g>
  </g>
  <g>
    <path class="cls-11" d="M193.07,160.91c0,8.1-6.57,9.5-14.67,9.5h-2.1c-8.11,0-14.67-1.39-14.67-9.5v-52.17c0-8.11,6.57-9.49,14.67-9.49h2.1c8.1,0,14.67,1.39,14.67,9.49v52.17Z"/>
    <g class="cls-13">
      <path class="cls-4" d="M188.65,130.13c.44-5.28.69-5.27.55.03l-.64,24.23c-.14,5.3-2.78,9.87-5.86,10.16s-3.61-.14-1.17-.95,4.8-5.8,5.24-11.08l1.88-22.4Z"/>
    </g>
  </g>
  <path class="cls-1" d="M275.82,191.36c-13.11-6.56-37.52-34.07-37.52-34.07,0,0-24.24,27.87-37.52,34.07-12.94,6.04-57.35,18.11-25.44,113.41,31.91,95.3,31.48,85.42,31.48,85.42h62.97s-.43,9.88,31.48-85.42c31.91-95.3-9.07-105.21-25.44-113.41Z"/>
  <g class="cls-7">
    <path class="cls-5" d="M265.35,183.89s33.91,83.06-8.18,195.59"/>
    <path class="cls-5" d="M214.41,183.89s-33.91,83.06,8.18,195.59"/>
  </g>
  <g>
    <path class="cls-2" d="M230.71,443.39s-22.54-111.45-21.56-184.76c.43-32.34,7.44-92.23,8.19-102.63,4.08-56.49,3.88-135.4,22.54-135.4,22.74,0,18.46,78.91,22.54,135.4.75,10.4,7.76,70.29,8.19,102.63.98,73.31-21.56,184.76-21.56,184.76h-18.34Z"/>
    <path class="cls-8" d="M239.88,176.91c-7.41,0-27.46,5.17-20.35,46.14,7.11,40.97,12.24,59.08,20.35,59.08s13.23-18.11,20.35-59.08c7.11-40.97-12.89-46.14-20.35-46.14Z"/>
    <g>
      <path class="cls-5" d="M261.38,277.86s-.53,23.22-2.25,36.48c-1.72,13.26-4.73,30.46-4.73,30.46l-1.09-36.17,7.06-30.77"/>
      <path class="cls-5" d="M218.38,277.86s.53,23.22,2.25,36.48c1.72,13.26,4.73,30.46,4.73,30.46l1.09-36.17-7.06-30.77"/>
    </g>
    <path class="cls-11" d="M257.34,218.87v-18.88c0-8.1-6.57-14.67-14.67-14.67h-5.58c-8.1,0-14.67,6.57-14.67,14.67v18.65c9.51,11.59,9.22,38.09,9.09,42.75,1.72.71,3.61,1.11,5.59,1.11h5.58c2.01,0,3.92-.41,5.66-1.14-.13-5.03-.32-30.97,9.01-42.5Z"/>
    <path class="cls-8" d="M262.85,274.3c1.9-10.08.7-10.4-2.67-.71l-5.68,16.35c-3.37,9.69-5.19,25.95-4.05,36.14l2.46,22.08c1.14,10.19,2.33,10.14,2.65-.11l.74-23.52c.32-10.25,2.14-26.88,4.04-36.96l2.5-13.28Z"/>
    <path class="cls-8" d="M216.91,274.3c-1.9-10.08-.7-10.4,2.67-.71l5.68,16.35c3.37,9.69,5.19,25.95,4.05,36.14l-2.46,22.08c-1.14,10.19-2.33,10.14-2.65-.11l-.74-23.52c-.32-10.25-2.14-26.88-4.04-36.96l-2.5-13.28Z"/>
    <g>
      <path class="cls-14" d="M234.36,410.73c-3.26-1.23-3.26-.22,0,2.23,3.26,2.45,8.6,2.49,11.86.09,3.26-2.41,3.26-3.41,0-2.23-3.26,1.18-8.6,1.14-11.86-.09Z"/>
      <path class="cls-14" d="M234.36,417.7c-3.26-1.23-3.26-.22,0,2.23s8.6,2.49,11.86.09,3.26-3.41,0-2.23c-3.26,1.18-8.6,1.14-11.86-.09Z"/>
      <path class="cls-14" d="M234.36,424.67c-3.26-1.23-3.26-.22,0,2.23,3.26,2.45,8.6,2.49,11.86.09s3.26-3.41,0-2.23-8.6,1.14-11.86-.09Z"/>
    </g>
    <path class="cls-4" d="M239.88,405.24c-1.04,0-6.15-108.23,0-108.23s1.04,108.23,0,108.23Z"/>
    <path class="cls-4" d="M239.88,173.46c-1.04,0-2.98-141.65,0-141.65s1.04,141.65,0,141.65Z"/>
  </g>
  <path class="cls-1" d="M172.34,293.92s-17.48,1.69-9.62,107.01h31.27"/>
  <path class="cls-1" d="M304.73,293.92s17.48,1.69,9.62,107.01h-31.27"/>
  <g>
    <path class="cls-4" d="M261.46,390.18s31.86-96.26,43.3-96.26-21.65,107.01-21.65,107.01c0,0-7.5-10.06-21.65-10.75Z"/>
    <path class="cls-4" d="M215.64,390.18s-31.86-96.26-43.3-96.26,21.65,107.01,21.65,107.01c0,0,7.5-10.06,21.65-10.75Z"/>
  </g>
  <g class="cls-9">
    <path class="cls-4" d="M290.66,216.18c-2.82-7.9-.51-7.7,5.13.44s8.55,23.51,6.46,34.16l-6.04,30.82c-2.09,10.65-3.37,10.5-2.85-.35l1.48-31c.52-10.84-1.36-26.17-4.18-34.07Z"/>
  </g>
  <g class="cls-9">
    <path class="cls-4" d="M308.48,371.65c1.34-7.8,2.44-6.07,2.44,3.84s-4.13,18.01-9.17,18.01-6.14-1.73-2.44-3.84c3.7-2.11,7.83-10.22,9.17-18.01Z"/>
  </g>
  <g class="cls-9">
    <path class="cls-4" d="M308.14,68.1c.82,5.03,1.49,4.88,1.49-.34v-6.57c0-5.22-1.98-9.89-4.41-10.38s-3.09,1.14-1.49,3.63,3.59,8.64,4.41,13.67Z"/>
  </g>
  <rect class="cls-1" x="191.64" y="443.39" width="96.47" height="29.12"/>
  <rect class="cls-4" x="193.99" y="447.71" width="91.54" height="10.24"/>
  <polygon class="cls-5" points="191.64 479.4 191.64 443.39 288.12 443.39 288.12 479.4 281.19 448.79 197.75 448.79 191.64 479.4"/>
</svg>