<?xml version="1.0" encoding="UTF-8"?>
<svg xmlns="http://www.w3.org/2000/svg" viewBox="0 0 1345.87 342.53">
  <defs>
    <style>
      .cls-1 {
        fill: #f991f4;
      }

      .cls-2 {
        fill: #d880d8;
      }

      .cls-3 {
        fill: #fed917;
      }

      .cls-4 {
        fill: #f51317;
      }

      .cls-4, .cls-5 {
        opacity: .52;
      }

      .cls-6 {
        fill: #303135;
      }

      .cls-7 {
        letter-spacing: -.08em;
      }

      .cls-5 {
        fill: #c9c9c9;
      }

      .cls-8 {
        font-size: 22.79px;
      }

      .cls-8, .cls-9 {
        fill: #fafffc;
        font-family: SpecialGothicExpandedOne-Regular, 'Special Gothic Expanded One';
      }

      .cls-9 {
        font-size: 61.87px;
      }

      .cls-10 {
        letter-spacing: 0em;
      }

      .cls-11, .cls-12, .cls-13 {
        fill: #014675;
      }

      .cls-12, .cls-13, .cls-14 {
        mix-blend-mode: multiply;
      }

      .cls-12, .cls-15 {
        opacity: .5;
      }

      .cls-16 {
        isolation: isolate;
      }

      .cls-17 {
        letter-spacing: -.02em;
      }

      .cls-18 {
        fill: #a5aab0;
      }

      .cls-19 {
        fill: #3b3b47;
      }

      .cls-20 {
        fill: #474747;
      }

      .cls-21 {
        fill: #424347;
      }

      .cls-22 {
        fill: #8cc8db;
      }

      .cls-15, .cls-23 {
        fill: #fff;
        mix-blend-mode: soft-light;
      }

      .cls-24 {
        letter-spacing: -.04em;
      }

      .cls-25 {
        fill: #6ea2ff;
      }
    </style>
  </defs>
  <g class="cls-16">
    <g id="Layer_2" data-name="Layer 2">
      <g id="OBJECTS">
        <g>
          <g>
            <path class="cls-1" d="M732.86,165.71s19.8-8.29,12.89-40.07c-4.37-20.09-26.91-34.82-47.13-30.24-11.82,2.68-20.75,11.25-24.81,22.49-5.05,13.98,1.61,31.35,13.26,40.19,6.43,4.88,45.78,7.62,45.78,7.62Z"/>
            <path class="cls-23" d="M709.63,97.75c-3.49-.37-7.37.08-9.6.57-8.19,1.8-17.57,7.05-20.76,15.32-2.26,5.85,5.84,9.43,19.12,5.28,13.28-4.15,17.46-10,18.41-13.38,1.49-5.31-2.5-7.28-7.17-7.78Z"/>
            <path class="cls-25" d="M691.65,118.76c-3.74-1.52-7.46-3.11-11.18-4.69-1.36-.59-2.73-1.18-4.09-1.78.18-.33.37-.65.57-.97,1.36.4,2.73.8,4.08,1.2,3.87,1.18,7.74,2.35,11.58,3.59,3.86,1.21,7.7,2.45,11.53,3.73,3.84,1.26,7.67,2.53,11.48,3.85l9.07,3.16-9.62.99-8.02.83c-2.67.29-5.35.51-8.02.76-2.84.25-5.68.52-8.51.77,2.97,1.75,5.94,3.51,8.88,5.31,5.12,3.09,10.23,6.19,15.29,9.38,5.09,3.14,10.12,6.38,15.15,9.63,3.17,2.08,6.34,4.17,9.48,6.29-.23.25-.46.48-.68.71-3.33-1.66-6.64-3.34-9.94-5.04-5.3-2.77-10.61-5.55-15.85-8.42-5.27-2.83-10.49-5.75-15.71-8.67-5.24-2.88-10.39-5.92-15.58-8.88l-6.59-3.75,7.6-.74c5.35-.52,10.71-.88,16.06-1.32,2.18-.17,4.37-.35,6.55-.5-.77-.31-1.54-.61-2.3-.91-3.76-1.48-7.5-3-11.23-4.54Z"/>
            <path class="cls-12" d="M745.76,125.64c-.44-2.04-1.08-4.01-1.88-5.93.16.57.3,1.15.43,1.73,1.34,6.15,1.67,11.42,1.35,15.92-1.02,14.06-13.59,24.41-27.61,22.96-12.04-1.24-28.45-3.44-32.4-6.44-5.27-4-9.51-9.74-12.11-16.12,2.27,8.03,7.16,15.46,13.56,20.31,6.43,4.88,45.78,7.62,45.78,7.62,0,0,19.8-8.29,12.89-40.07Z"/>
            <g>
              <path class="cls-22" d="M702.52,120.76s5.19,17.01,15.57,22.56c10.38,5.55,30.74,5.92,30.74,5.92,0,0,3.16-13.68-1.81-30.32l-44.5,1.85Z"/>
              <g>
                <path class="cls-15" d="M725.72,119.8c-3.46,5.44-7.58,12.01-12.46,19.85,1.46,1.46,3.06,2.73,4.82,3.67,1.66.89,3.58,1.64,5.62,2.28,5.43-8.66,11.83-18.78,16.68-26.41l-14.67.61Z"/>
                <path class="cls-15" d="M749.25,129.49c-.35-2.72-.89-5.61-1.69-8.62-4.25,6.63-9.76,15.37-16.66,26.49,2.21.42,4.4.75,6.47,1,3.71-5.92,7.95-12.65,11.89-18.87Z"/>
              </g>
            </g>
          </g>
          <g>
            <g>
              <polygon points="579.6 8.59 588.5 39.19 613.54 39.19 604.6 8.59 579.6 8.59"/>
              <path d="M624.03,7.26s0-9.43-33.59-6.79c-33.59,2.64-47.36,6.79-47.36,6.79,0,0,19.65,4.82,52.64,6.23,28.75,1.22,28.3-6.23,28.3-6.23Z"/>
              <g class="cls-14">
                <path class="cls-11" d="M623.62,37.87c-1.38-6.26-6.85-10.79-13.27-10.95-105.31-2.63-177.76,43.28-177.76,43.28l-171.42,86.67,194.78-83.52s64.34-32.74,148.47-34.14c5.32-.09,9.98,3.57,11.13,8.76,3.81,17.25,12.04,57.7,16.01,101.38,1.05-60.42-4.43-95.51-7.95-111.49Z"/>
              </g>
              <path class="cls-2" d="M604.42,39.22c-84.12,1.39-148.47,34.14-148.47,34.14l-194.78,83.52s153.82-28.36,234.94-29.89c81.12-1.53,135.45,22.38,135.45,22.38-3.97-43.68-12.2-84.13-16.01-101.38-1.15-5.2-5.81-8.85-11.13-8.76Z"/>
              <path class="cls-11" d="M645.59,116.36h12.12c5.81,0,10.88,3.95,12.31,9.58l7.52,29.65h-16.57l-15.38-39.23Z"/>
              <path class="cls-1" d="M856.75,156.22l-13.68,12.82c-2.05,1.64-4.62,2.47-7.24,2.35l-124.91-5.97-42.01-7.77c-2.06-.38-3.56-2.18-3.56-4.28v-3.99l-4.89-22.2c-1.39-6.31-6.98-10.8-13.43-10.8h-222.09l-225.11,56.43-.46,144.88h739.7c3.26,0,5.89-2.64,5.89-5.89v-75.2l22.87,1.43v-82.42l-101.2-3.12c-3.66-.11-7.22,1.23-9.89,3.74Z"/>
              <path class="cls-2" d="M681.77,317.68l-2.09-116.68s-45.68-40.11-230.76-20.13l-81.25,7.46-146.24,47.81v81.55h460.34Z"/>
              <text class="cls-8" transform="translate(708.79 238.56)"><tspan x="0" y="0">B</tspan><tspan class="cls-7" x="18.67" y="0">O</tspan><tspan class="cls-17" x="37.61" y="0">X</tspan><tspan class="cls-10" x="57.62" y="0" xml:space="preserve"> B</tspan><tspan class="cls-7" x="81.35" y="0">O</tspan><tspan class="cls-17" x="100.29" y="0">X</tspan><tspan x="120.3" y="0" xml:space="preserve"> C</tspan><tspan class="cls-24" x="145.92" y="0">L</tspan><tspan x="161.06" y="0">UB</tspan></text>
              <text class="cls-9" transform="translate(496.44 109.16)"><tspan x="0" y="0">25</tspan></text>
              <g>
                <polygon class="cls-1" points="805.1 145.37 813.09 168.59 829.47 168.59 822.04 148.03 805.1 145.37"/>
                <path class="cls-1" d="M791.77,130.14l7.62,17.9h22.66c4.94,0,8.95-4.01,8.95-8.95h0c0-4.94-4.01-8.95-8.95-8.95h-30.27Z"/>
              </g>
              <g>
                <polygon class="cls-20" points="1161.22 236.85 1197.94 278.94 1279.95 283.22 1237.99 231.19 1161.22 236.85"/>
                <path d="M1319.7,282.06l-163.43-12.78c-4.25,0-7.7,3.45-7.7,7.7v34.32c0,4.25,3.45,7.7,7.7,7.7h163.43c4.25,0,7.7-3.45,7.7-7.7v-21.54c0-4.25-3.45-7.7-7.7-7.7Z"/>
              </g>
              <rect x="211.05" y="283.35" width="475.75" height="34.34"/>
              <path d="M686.8,275.54h259.29v38.62c0,1.94-1.58,3.52-3.52,3.52h-255.77v-42.14h0Z"/>
              <g>
                <path class="cls-1" d="M967.84,155.6v82.42l134.18,8.39c170.77-9.06,229.71-19.58,241.18-23.58,1.46-.51,2.51-1.83,2.62-3.35-31.74-22.25-82.1-32.59-145.37-43.7-73.46-12.9-232.61-20.19-232.61-20.19Z"/>
                <path class="cls-4" d="M1225.93,173.52c-75.67-14.37-179.6-21.69-258.09-25.38v7.47s159.15,7.29,232.61,20.19c63.27,11.11,113.63,21.45,145.37,43.7,0-.1.05-.19.05-.29-.05-6.95-11.93-25.16-119.94-45.67Z"/>
                <path class="cls-13" d="M1225.93,173.52c-75.67-14.37-179.6-21.69-258.09-25.38v7.47s159.15,7.29,232.61,20.19c63.27,11.11,113.63,21.45,145.37,43.7,0-.1.05-.19.05-.29-.05-6.95-11.93-25.16-119.94-45.67Z"/>
              </g>
              <path class="cls-5" d="M860.71,144.6c-3.22-.05-6.32,1.11-8.71,3.27l-14.18,12.79c-1.57,1.41-3.63,2.15-5.74,2.05l-118.76-5.82-47.95-7.51v3.99c0,2.1,1.5,3.9,3.56,4.28l42.01,7.77,124.91,5.97c2.62.13,5.19-.71,7.24-2.35l13.68-12.82c2.67-2.51,6.23-3.85,9.89-3.74l101.2,3.12v-7.47c-52.32-2.46-93.35-3.3-107.13-3.54Z"/>
              <path class="cls-13" d="M860.71,144.6c-3.22-.05-6.32,1.11-8.71,3.27l-14.18,12.79c-1.57,1.41-3.63,2.15-5.74,2.05l-118.76-5.82-47.95-7.51v3.99c0,2.1,1.5,3.9,3.56,4.28l42.01,7.77,124.91,5.97c2.62.13,5.19-.71,7.24-2.35l13.68-12.82c2.67-2.51,6.23-3.85,9.89-3.74l101.2,3.12v-7.47c-52.32-2.46-93.35-3.3-107.13-3.54Z"/>
              <path class="cls-1" d="M54.05,72.58h-.24v6.18H0v131.56c0,5.43,3.54,10.23,8.73,11.82l103.37,31.87v-117.91c0-.75.33-1.47.9-1.96l12.85-10.96c1.35-1.15,2.13-2.84,2.13-4.62v-54.69H54.05v8.7Z"/>
              <path class="cls-11" d="M53.8,72.58H6.18C2.77,72.58,0,75.35,0,78.76h53.8v-6.18Z"/>
              <path class="cls-11" d="M123.08,57.38h-63.23c-3.2,0-5.8,2.6-5.8,5.8v.7h73.93v-1.6c0-2.71-2.19-4.9-4.9-4.9Z"/>
              <g>
                <path class="cls-11" d="M686.8,207.04c0-7.87-4.57-15.08-11.77-18.25-23.48-10.35-91.66-25.52-283.01-7.93l-4.08,8.11c31.12-2.95,124.3-10.44,217.1-4.49,0,0,68.79,2.18,68.23,27.76-.37,16.45-.26,69.6-.14,105.43h13.67v-110.64Z"/>
                <path class="cls-11" d="M390.28,181.03c-6.29.58-12.71,1.2-19.27,1.86-10.33,1.03-20.5,3.46-30.18,7.2l-39.67,15.3-52.94,20.42-13.97,5.39h113.32c11.74,0,22.48-6.62,27.76-17.11l12.63-25.11,4.08-8.11c-.59.05-1.16.1-1.75.16Z"/>
              </g>
              <path class="cls-13" d="M1306.86,229.66h-252.35l24.26,18.16s190.57-9.08,228.09-18.16Z"/>
              <rect class="cls-21" x="673.08" y="283.35" width="13.72" height="34.34"/>
              <polygon class="cls-25" points="433.39 283.52 407.12 282.61 479.83 183.05 508.76 182.43 433.39 283.52"/>
              <polygon class="cls-25" points="490.02 283.52 463.75 282.61 536.47 183.05 565.4 182.43 490.02 283.52"/>
              <rect class="cls-25" y="111.57" width="127.98" height="9.59"/>
              <rect class="cls-25" y="135.33" width="112.1" height="9.59"/>
              <polygon class="cls-11" points="0 121.16 127.98 121.16 112.1 135.33 0 135.33 0 121.16"/>
            </g>
            <g>
              <circle class="cls-19" cx="156.78" cy="245.95" r="96.58"/>
              <circle class="cls-6" cx="156.78" cy="245.95" r="89.07"/>
              <path class="cls-3" d="M156.78,309.86c-35.24,0-63.91-28.67-63.91-63.92s28.67-63.91,63.91-63.91,63.91,28.67,63.91,63.91-28.67,63.92-63.91,63.92ZM156.78,186.95c-32.53,0-59,26.47-59,59s26.47,59,59,59,59-26.47,59-59-26.47-59-59-59Z"/>
              <g>
                <path class="cls-18" d="M156.78,292.3c-25.56,0-46.36-20.8-46.36-46.36s20.8-46.35,46.36-46.35,46.36,20.79,46.36,46.35-20.8,46.36-46.36,46.36ZM156.78,207.1c-21.42,0-38.85,17.43-38.85,38.84s17.43,38.85,38.85,38.85,38.84-17.43,38.84-38.85-17.43-38.84-38.84-38.84Z"/>
                <path class="cls-18" d="M156.78,264.46c-10.21,0-18.51-8.3-18.51-18.51s8.3-18.51,18.51-18.51,18.51,8.3,18.51,18.51-8.3,18.51-18.51,18.51ZM156.78,234.95c-6.06,0-11,4.93-11,11s4.93,11,11,11,11-4.94,11-11-4.93-11-11-11Z"/>
                <g>
                  <rect class="cls-18" x="154.9" y="203.35" width="3.76" height="27.85"/>
                  <rect class="cls-18" x="154.9" y="261.62" width="3.76" height="27.85"/>
                </g>
                <g>
                  <rect class="cls-18" x="134.29" y="211.88" width="3.76" height="27.85" transform="translate(-119.78 162.43) rotate(-45)"/>
                  <rect class="cls-18" x="175.5" y="253.09" width="3.76" height="27.85" transform="translate(-136.85 203.64) rotate(-45)"/>
                </g>
                <g>
                  <rect class="cls-18" x="113.71" y="244.53" width="27.85" height="3.76"/>
                  <rect class="cls-18" x="171.99" y="244.53" width="27.85" height="3.76"/>
                </g>
                <g>
                  <rect class="cls-18" x="122.25" y="265.13" width="27.85" height="3.76" transform="translate(-148.87 174.34) rotate(-44.97)"/>
                  <rect class="cls-18" x="163.45" y="223.93" width="27.85" height="3.76" transform="translate(-107.7 191.4) rotate(-44.97)"/>
                </g>
              </g>
            </g>
            <g>
              <circle class="cls-19" cx="1029.3" cy="245.95" r="96.58"/>
              <circle class="cls-6" cx="1029.3" cy="245.95" r="89.07"/>
              <path class="cls-3" d="M1029.3,309.86c-35.24,0-63.91-28.67-63.91-63.92s28.67-63.91,63.91-63.91,63.91,28.67,63.91,63.91-28.67,63.92-63.91,63.92ZM1029.3,186.95c-32.53,0-59,26.47-59,59s26.47,59,59,59,59-26.47,59-59-26.47-59-59-59Z"/>
              <g>
                <path class="cls-18" d="M1029.3,292.3c-25.56,0-46.36-20.8-46.36-46.36s20.8-46.35,46.36-46.35,46.36,20.79,46.36,46.35-20.8,46.36-46.36,46.36ZM1029.3,207.1c-21.42,0-38.85,17.43-38.85,38.84s17.43,38.85,38.85,38.85,38.85-17.43,38.85-38.85-17.43-38.84-38.85-38.84Z"/>
                <path class="cls-18" d="M1029.3,264.46c-10.2,0-18.51-8.3-18.51-18.51s8.3-18.51,18.51-18.51,18.51,8.3,18.51,18.51-8.3,18.51-18.51,18.51ZM1029.3,234.95c-6.06,0-11,4.93-11,11s4.93,11,11,11,11-4.94,11-11-4.94-11-11-11Z"/>
                <g>
                  <rect class="cls-18" x="1027.42" y="203.35" width="3.76" height="27.85"/>
                  <rect class="cls-18" x="1027.42" y="261.62" width="3.76" height="27.85"/>
                </g>
                <g>
                  <rect class="cls-18" x="1006.82" y="211.88" width="3.76" height="27.85" transform="translate(135.77 779.39) rotate(-45)"/>
                  <rect class="cls-18" x="1048.02" y="253.09" width="3.76" height="27.85" transform="translate(118.7 820.6) rotate(-45)"/>
                </g>
                <g>
                  <rect class="cls-18" x="986.24" y="244.53" width="27.85" height="3.76"/>
                  <rect class="cls-18" x="1044.51" y="244.53" width="27.85" height="3.76"/>
                </g>
                <g>
                  <rect class="cls-18" x="994.77" y="265.13" width="27.85" height="3.76" transform="translate(106.64 791.46) rotate(-45)"/>
                  <rect class="cls-18" x="1035.98" y="223.92" width="27.85" height="3.76" transform="translate(147.84 808.53) rotate(-45)"/>
                </g>
              </g>
            </g>
          </g>
        </g>
      </g>
    </g>
  </g>
</svg>