<?xml version="1.0" encoding="UTF-8"?>
<svg id="Layer_2" data-name="Layer 2" xmlns="http://www.w3.org/2000/svg" viewBox="0 0 1404.72 1328.14">
  <defs>
    <style>
      .cls-1 {
        fill: #fff;
        stroke: #000;
        stroke-miterlimit: 10;
      }

      .cls-2 {
        fill: #c1b49a;
      }
    </style>
  </defs>
  <g id="OBJECTS">
    <g>
      <path class="cls-2" d="M1370.49,1326.52c-5.48-2.05-10.28-6-13.31-11.54L656.43,37.51c-6.73-12.26-2.24-27.66,10.03-34.38,12.26-6.73,27.66-2.25,34.39,10.03l700.75,1277.47c6.73,12.26,2.24,27.66-10.03,34.38-6.73,3.69-14.41,4.01-21.07,1.51Z"/>
      <path class="cls-1" d="M1000.03,558.31c-372.47-99.08-357.52,502.63-729.99,403.55C180.36,799.65,90.68,637.43,1.01,475.21,373.47,574.29,358.53-27.43,731,71.65c89.68,162.22,179.36,324.44,269.04,486.66Z"/>
    </g>
  </g>
  <g id="DESIGNED_BY_FREEPIK" data-name="DESIGNED BY FREEPIK">
    <path d="M1.01,475.21c34.46,8.87,77.38,17.88,133.89,4.71,74.45-17.35,121.08-70,174.83-134.25,79.3-94.78,78.83-130.59,147.2-195.07,73.87-69.66,126.22-84.71,142.4-88.4,54.9-12.51,104.45,1.39,131.66,9.45-6.57,138.25-37.13,197.25-77.25,248.48-50.84,64.9-104.07,70.55-153.23,152.6-42.04,70.17-62.99,163.02-72.92,213.2-16.12,81.47-13.83,114.55-38.4,160-33.85,62.64-73.9,96.33-119.16,115.93C182.32,800.62,84.54,637.72,1.01,475.21Z"/>
  </g>
</svg>