<?xml version="1.0" encoding="UTF-8"?>
<svg id="OBJECTS" xmlns="http://www.w3.org/2000/svg" viewBox="0 0 1730.55 1636.09">
  <defs>
    <style>
      .cls-1 {
        fill: #fff;
      }

      .cls-2 {
        fill: #c1b49a;
      }

      .cls-3 {
        fill: #231f20;
      }
    </style>
  </defs>
  <path class="cls-2" d="M1546.6,1543.06c-5.48-2.05-10.28-6-13.31-11.54L832.54,254.05c-6.73-12.26-2.24-27.66,10.03-34.38,12.26-6.73,27.66-2.25,34.39,10.03l700.75,1277.47c6.73,12.26,2.24,27.66-10.03,34.38-6.73,3.69-14.41,4.01-21.07,1.51Z"/>
  <g>
    <path class="cls-1" d="M1176.14,774.85c-372.47-99.08-357.52,502.63-729.99,403.55-89.68-162.22-179.36-324.44-269.04-486.66,372.47,99.08,357.52-502.63,729.99-403.55,89.68,162.22,179.36,324.44,269.04,486.66Z"/>
    <path class="cls-3" d="M401.91,811.04c-44.14,15.93-95.46,18.88-157.54,2.37-22.42-40.55-44.84-81.11-67.26-121.67,62.08,16.51,113.39,13.56,157.54-2.37,22.42,40.55,44.84,81.11,67.26,121.66Z"/>
    <path class="cls-3" d="M583.66,852.47c-33.38,35.4-70.35,64.31-114.49,80.24-22.42-40.55-44.84-81.11-67.26-121.67,44.14-15.93,81.11-44.84,114.49-80.24,22.42,40.56,44.84,81.11,67.26,121.66Z"/>
    <path class="cls-3" d="M743.89,854.96c-29.79,41.89-59.59,83.77-92.97,119.17-22.42-40.55-44.84-81.11-67.26-121.67,33.38-35.4,63.18-77.28,92.97-119.17,22.42,40.55,44.84,81.11,67.26,121.66Z"/>
    <path class="cls-3" d="M884.09,533.89c44.14-15.93,95.46-18.88,157.54-2.37-22.42-40.55-44.84-81.11-67.26-121.67-62.08-16.51-113.39-13.56-157.54,2.37,22.42,40.55,44.84,81.11,67.26,121.66Z"/>
    <path class="cls-3" d="M718.18,1095.8c-33.38,35.4-70.35,64.31-114.49,80.24-22.42-40.55-44.84-81.11-67.26-121.66,44.14-15.93,81.11-44.84,114.49-80.24,22.42,40.55,44.84,81.11,67.26,121.66Z"/>
    <path class="cls-3" d="M1018.6,777.22c44.14-15.93,95.46-18.88,157.54-2.37-22.42-40.55-44.84-81.11-67.26-121.67-62.08-16.51-113.39-13.56-157.54,2.37,22.42,40.55,44.84,81.11,67.26,121.67Z"/>
    <path class="cls-3" d="M836.85,735.79c33.38-35.4,70.35-64.31,114.49-80.24-22.42-40.55-44.84-81.11-67.26-121.66-44.14,15.93-81.11,44.84-114.49,80.24,22.42,40.55,44.84,81.11,67.26,121.66Z"/>
    <path class="cls-3" d="M378.89,1056.74c62.08,16.51,113.39,13.56,157.54-2.37-22.42-40.55-44.84-81.11-67.26-121.66-44.14,15.93-95.46,18.88-157.54,2.37,22.42,40.55,44.84,81.11,67.26,121.67Z"/>
    <path class="cls-3" d="M609.37,611.63c-29.79,41.89-59.59,83.77-92.97,119.17-22.42-40.55-44.84-81.11-67.26-121.66,33.38-35.4,63.18-77.28,92.97-119.17,22.42,40.55,44.84,81.11,67.26,121.67Z"/>
    <path class="cls-3" d="M702.34,492.46c33.38-35.4,70.35-64.31,114.49-80.24-22.42-40.56-44.84-81.11-67.26-121.67-44.14,15.93-81.11,44.84-114.49,80.24,22.42,40.55,44.84,81.11,67.26,121.66Z"/>
    <path class="cls-3" d="M904.11,857.46c-33.38,35.4-63.17,77.28-92.97,119.17-22.42-40.55-44.84-81.11-67.26-121.67,29.79-41.89,59.59-83.77,92.97-119.17,22.42,40.55,44.84,81.11,67.26,121.67Z"/>
    <path class="cls-3" d="M769.59,614.13c-33.38,35.4-63.17,77.28-92.97,119.17-22.42-40.55-44.84-81.11-67.26-121.66,29.79-41.89,59.59-83.77,92.97-119.17,22.42,40.56,44.84,81.11,67.26,121.67Z"/>
  </g>
</svg>