<?xml version="1.0" encoding="UTF-8"?>
<svg xmlns="http://www.w3.org/2000/svg" viewBox="0 0 1440 1533.62">
  <defs>
    <style>
      .cls-1 {
        fill: #f991f4;
      }

      .cls-2, .cls-3, .cls-4, .cls-5, .cls-6, .cls-7, .cls-8, .cls-9 {
        opacity: .5;
      }

      .cls-2, .cls-5, .cls-6, .cls-7, .cls-9 {
        mix-blend-mode: multiply;
      }

      .cls-2, .cls-10 {
        fill: #d99700;
      }

      .cls-3 {
        fill: #ff7271;
      }

      .cls-11, .cls-8, .cls-12 {
        fill: #fff;
      }

      .cls-4, .cls-13 {
        fill: #6b3d6b;
      }

      .cls-5, .cls-14 {
        fill: #231f20;
      }

      .cls-13 {
        opacity: .4;
      }

      .cls-15 {
        fill: #f2c0f1;
      }

      .cls-6 {
        fill: #014675;
      }

      .cls-7, .cls-16 {
        fill: #ffcb53;
      }

      .cls-17 {
        isolation: isolate;
      }

      .cls-18 {
        fill: #8cc8db;
      }

      .cls-19 {
        mix-blend-mode: overlay;
      }

      .cls-19, .cls-20 {
        fill: #240b4a;
      }

      .cls-8, .cls-12 {
        mix-blend-mode: soft-light;
      }

      .cls-9, .cls-21 {
        fill: #565656;
      }

      .cls-22 {
        fill: #6ea2ff;
      }
    </style>
  </defs>
  <g class="cls-17">
    <g id="OBJECTS">
      <g>
        <g>
          <path class="cls-1" d="M535.39,845.41l-5.65,5.04-5.01,4.18c-3.32,2.74-6.63,5.19-9.95,7.73-6.66,4.88-13.42,9.46-20.31,13.75-13.76,8.6-28.05,15.99-42.82,22.21-29.41,12.78-60.91,20.25-92.9,22.78-33.6,3.22-71.98-5.02-104.05-25.33-16.22-9.96-30.73-22.87-43.44-37.4-6.34-7.3-12.25-15.03-17.74-23.25-2.7-4.17-5.39-8.35-7.91-12.87-1.28-2.16-2.54-4.59-3.8-6.99-.61-1.14-1.25-2.43-1.93-3.86-.64-1.35-1.24-2.54-2.32-5.14-10.61-27.04.19-58.67,24.11-70.66,23.92-11.99,51.91.21,62.52,27.25-.35-.8-.15-.23,0,.18.1.34.28.8.53,1.37.45,1.05.84,2.1,1.44,3.28,1.01,2.3,2.28,4.63,3.52,6.99,2.59,4.67,5.5,9.23,8.63,13.55,6.3,8.59,13.45,16.23,21.44,22.13,8.03,5.77,16.45,11.09,25.99,13.87,4.59,1.96,9.7,2.39,14.6,3.8l7.76.75c2.59.28,5.09.7,8.23.55,23.83.29,48.07-2.96,71.54-10.79,11.76-3.74,23.37-8.48,34.55-14.18,5.59-2.84,11.07-5.9,16.41-9.13,2.6-1.66,5.28-3.29,7.73-5,2.38-1.53,5.28-3.76,6.42-4.52l4.5-2.98c16.04-10.64,36.68-4.56,46.1,13.58,8.62,16.61,4.83,37.56-8.19,49.15Z"/>
          <path class="cls-22" d="M443.22,812.93c-5.07,2.02-10.18,3.93-15.34,5.57-6.21,2.07-12.49,3.78-18.79,5.23,12.9,30.33,39.22,53.16,59,66.87,8.97-4.43,17.81-9.15,26.38-14.51,2.84-1.76,5.57-3.8,8.37-5.66-13.17-7.54-45.82-28.54-59.62-57.51Z"/>
          <path class="cls-14" d="M237.26,662.43c-7.4-22.03-12.27-42.34-12.7-67.6-.75-44.51-56.1-4.88-47.68,34.07,6.15,28.43-38.06,23.8-51.76,26.25-35.35,6.34-56.01,35.52-60,71.47-6.4,57.75,65.6,92.53,119.6,90.81,31.76-1.01,55.26-28.36,64.54-56.66,9.03-27.53,3.65-54.99-6.05-81.49-2.12-5.79-4.11-11.37-5.95-16.85Z"/>
          <g>
            <path class="cls-15" d="M997.97,251.75c-14.22-16.91-30.35,0-30.35,0,0,0-16.13-16.91-30.35,0-14.22,16.91,26.44,46.65,30.35,46.65s44.57-29.74,30.35-46.65Z"/>
            <path class="cls-15" d="M1135.24,175.97c-24.1-28.66-51.43,0-51.43,0,0,0-27.33-28.66-51.43,0-24.1,28.65,44.8,79.04,51.43,79.04s75.53-50.39,51.43-79.04Z"/>
            <path class="cls-15" d="M985.69,97.42c-24.1-28.66-51.43,0-51.43,0,0,0-27.33-28.66-51.43,0-24.1,28.65,44.8,79.04,51.43,79.04s75.53-50.39,51.43-79.04Z"/>
          </g>
          <g>
            <path class="cls-1" d="M823.68,792.1c9.53,17.83,21.04,37.02,32.85,53.79,11.81,16.97,24.77,32.81,37.58,44.07l4.72,3.99c1.09.51,2.07,1.04,3,1.68.8.79,2.22.9,3.27,1.45,1.04.55,2.21,1,3.63,1.21,5.02,1.53,11.52,2.12,18.9,1.56,7.31-.47,15.36-1.91,23.57-4.22,4.1-1.17,8.25-2.51,12.31-4.06,2.05-.75,4.02-1.57,5.98-2.4,1.7-.74,4.27-1.91,4.56-2.16,21.35-17.7,50.82-13.92,65.81,8.46,15,22.37,9.84,54.86-11.51,72.57-3.89,3.23-8.05,5.74-12.35,7.56l-10.5,4.36c-4.89,2.04-7.56,2.91-11.13,4.14-3.33,1.09-6.65,2.14-9.95,3.04-6.6,1.89-13.23,3.43-19.97,4.72-13.46,2.54-27.4,3.93-41.96,3.48-14.48-.4-29.86-2.82-45.13-9.12-3.8-1.35-7.56-3.17-11.27-5.34-3.68-2.16-7.46-3.91-10.88-6.74-3.48-2.63-6.92-5.35-10.24-8.12l-7.39-7.38c-18.85-19.91-32.6-40.75-45.13-61.99-12.57-21.47-23.08-42.39-33.39-65.99-8.37-19.14-.55-42.99,17.46-53.25,17.11-9.75,37.26-3.75,46.42,13.27l.75,1.4Z"/>
            <path class="cls-22" d="M805.99,913.84c6.86,10.64,14.36,21.13,22.91,31.41,28.47-22.21,47.22-46.93,58.36-64.92-8.99-9.34-17.86-20.54-26.23-32.36-6.71,13.01-23.73,41.15-55.04,65.87Z"/>
          </g>
          <g>
            <path class="cls-14" d="M781.29,1366.42s41.59,31.4,73.23,41.35c31.64,9.95,36.74,23.89,37.77,32.85,1.02,8.96-53.08,14.93-121.46,14.93s-88.93-10.95-89.95-29.86c-1.02-18.91,17.76-59.27,17.76-59.27,0,0,56.38-25.43,82.66,0Z"/>
            <path class="cls-5" d="M785.88,1442.34c-68.38,0-88.93-10.95-89.95-29.86-.72-13.33,8.38-37.26,13.82-50.26-6.75,2.26-11.12,4.21-11.12,4.21,0,0-18.78,40.36-17.76,59.27,1.02,18.91,21.57,29.86,89.95,29.86s122.48-5.97,121.46-14.93c-.19-1.63-.51-3.43-1.11-5.33-20.84,4.4-59.86,7.05-105.3,7.05Z"/>
          </g>
          <g>
            <path class="cls-14" d="M525.77,1366.42s-41.59,31.4-73.23,41.35c-31.64,9.95-36.74,23.89-37.76,32.85-1.02,8.96,53.07,14.93,121.46,14.93s88.93-10.95,89.95-29.86c1.02-18.91-17.76-59.27-17.76-59.27,0,0-56.38-25.43-82.66,0Z"/>
            <path class="cls-5" d="M521.17,1442.34c68.38,0,88.93-10.95,89.95-29.86.72-13.33-8.38-37.26-13.82-50.26,6.75,2.26,11.12,4.21,11.12,4.21,0,0,18.78,40.36,17.76,59.27-1.02,18.91-21.57,29.86-89.95,29.86s-122.48-5.97-121.46-14.93c.19-1.63.51-3.43,1.1-5.33,20.84,4.4,59.86,7.05,105.3,7.05Z"/>
          </g>
          <path class="cls-1" d="M821.32,1101.37h-328.63s-12.25,216.14,42.33,276.03c0,0,65.9,17.41,81.4-22.43,3.11-16.18,3.38-91.49,17-113.02,9.55-15.11,31.5-15.11,41.06,0,13.62,21.52,13.88,96.84,17,113.02,15.5,39.85,81.39,22.43,81.39,22.43,54.58-59.89,48.44-276.03,48.44-276.03Z"/>
          <path class="cls-1" d="M828.12,796.58c-44.69-60.41-122.28-82.22-157.12-89.23-11.85-2.38-23.82-2.38-35.67,0-34.84,7.01-112.44,28.82-157.13,89.23-25.98,37.71-12.41,245.65,27.08,304.79h295.75c39.49-59.14,53.07-267.07,27.08-304.79Z"/>
          <path class="cls-4" d="M828.12,796.58c-5.39-7.29-11.28-13.98-17.5-20.19,1.01,8.75,1.73,18.34,2.09,28.71,4.54,128.62-81.53,235.45-187.97,235.45h-142.47c6.19,25.56,13.9,47.17,23.01,60.82h295.75c39.49-59.14,53.07-267.07,27.08-304.79Z"/>
          <rect class="cls-14" x="644.25" y="778.42" width="17.82" height="305.33"/>
          <path class="cls-14" d="M656.62,1123.49c-91.14,0-157.6-11.42-161.74-12.14-11.9-2.1-19.97-14.14-18.02-26.92,1.94-12.78,13.26-21.44,25.08-19.35,1.48.26,148.99,25.5,303.38-.03,11.95-2.01,23.08,6.81,24.91,19.6,1.83,12.8-6.34,24.77-18.26,26.74-54.9,9.08-108.4,12.11-155.35,12.11Z"/>
          <path class="cls-5" d="M830.23,1084.63c-.97-6.76-4.58-12.35-9.49-15.88.05.27.15.52.19.79,1.87,12.79-6.28,24.79-18.19,26.78-54.88,9.21-108.37,12.38-155.32,12.49-91.14.22-157.62-11.03-161.77-11.75-3.15-.55-6-1.82-8.5-3.59,1.94,8.98,8.73,16.27,17.73,17.85,4.15.73,70.6,12.14,161.74,12.14,46.95,0,100.45-3.03,155.35-12.11,11.92-1.97,20.1-13.94,18.26-26.74Z"/>
          <g>
            <path class="cls-1" d="M987.09,491.5c0,179.5-75.6,287.5-325.02,287.5s-325.02-108-325.02-287.5,145.52-325.02,325.02-325.02,325.02,145.52,325.02,325.02Z"/>
            <path class="cls-13" d="M931.58,309.78c21.13,43.12,35.26,91.63,33.04,142.84-7.62,175.76-94.11,268.92-325.02,275.4-143.26,4.02-229.16-23.62-276.33-88,39.6,88.78,128.8,138.99,298.8,138.99,249.42,0,325.02-108,325.02-287.5,0-67.31-20.47-129.85-55.51-181.72Z"/>
            <path class="cls-12" d="M678.12,192.62c-27.22-2.92-57.38.6-74.78,4.42-63.79,14.03-136.81,54.91-161.68,119.28-17.6,45.57,45.5,73.43,148.91,41.09,103.4-32.33,135.99-77.89,143.36-104.19,11.6-41.37-19.47-56.72-55.81-60.62Z"/>
            <g>
              <path class="cls-22" d="M986.26,469.39c-12.3,12.11-24.64,24.18-36.79,36.44-32.69,33.1-65.65,65.92-97.76,99.63-32.45,33.35-64.27,67.35-96.02,101.42-21.67,23.67-43.2,47.48-64.5,71.54,3.9-.14,7.79-.3,11.6-.5,22.42-18.74,44.66-37.66,66.8-56.7,35.04-30.67,70.02-61.42,104.36-92.81,34.69-31.04,68.52-62.97,102.62-94.61,3.21-2.99,6.37-6.06,9.57-9.06.63-10.79.94-21.87.94-33.24,0-7.44-.34-14.8-.83-22.11Z"/>
              <path class="cls-22" d="M851.7,460.55l71.19-5.06,61.51-5.17c-1.73-13.68-4.21-27.12-7.59-40.21l-57.53,5.62-70.94,7.85c-7.4.84-14.8,1.65-22.2,2.47l18.78-18.26,54-53.88,36.8-37.7c-2.7-4.21-5.5-8.35-8.38-12.42l-42.73,34.37-58.8,48.6-58.14,49.33-37.37,31.71,50.18-2.55c23.77-1.21,47.49-3.07,71.22-4.7Z"/>
            </g>
            <g>
              <path class="cls-22" d="M498.35,386.76l-58.8-48.6-42.73-34.37c-2.89,4.07-5.68,8.21-8.38,12.42l36.8,37.7,54,53.88,18.78,18.26c-7.4-.82-14.8-1.64-22.2-2.47l-70.94-7.85-57.54-5.62c-3.37,13.09-5.86,26.54-7.59,40.21l61.51,5.17,71.19,5.06c23.74,1.63,47.45,3.49,71.22,4.7l50.18,2.55-37.37-31.71-58.14-49.33Z"/>
              <path class="cls-22" d="M568.46,706.88c-31.75-34.07-63.57-68.07-96.02-101.42-32.1-33.71-65.07-66.52-97.76-99.63-12.15-12.26-24.5-24.33-36.79-36.44-.49,7.32-.83,14.67-.83,22.11,0,11.37.31,22.45.94,33.24,3.2,3.01,6.35,6.07,9.57,9.06,34.11,31.64,67.93,63.57,102.62,94.61,34.35,31.39,69.32,62.14,104.36,92.81,22.13,19.03,44.38,37.96,66.8,56.7,3.81.2,7.7.36,11.6.5-21.29-24.06-42.82-47.88-64.5-71.54Z"/>
            </g>
            <g>
              <path class="cls-18" d="M654.8,421.8h-275.07s14.52,160.26,93.08,212.52c78.56,52.26,285.41,52.26,363.97,0,78.56-52.26,93.08-212.52,93.08-212.52h-275.07Z"/>
              <g>
                <path class="cls-8" d="M692.78,421.8h-123.48c-27.98,44.72-66.25,106.58-119.33,192.51,6.95,7.65,14.52,14.46,22.85,20,17.8,11.84,42.24,20.97,70.23,27.45,49.66-80.26,113.16-182.34,149.73-239.97Z"/>
                <path class="cls-8" d="M765,421.8c-29.49,46.47-77.13,123.08-155.47,249.9,19.77,1.57,40.07,2.12,60.2,1.61,53.23-86.03,121.82-196.23,157.08-251.51h-61.82Z"/>
              </g>
            </g>
          </g>
          <g>
            <rect class="cls-16" x="1125.42" y="1249.05" width="33.05" height="87.5"/>
            <path class="cls-10" d="M1100.15,1211.79s4.64,74.24,41.79,71.99c37.15,2.25,41.79-71.99,41.79-71.99-11.28-12.75-72.3-12.75-83.58,0Z"/>
            <path class="cls-2" d="M1100.15,1211.79s.59,9.32,2.99,21.25c11.62,5,24.51,7.45,38.8,6.59,14.29.87,27.17-1.59,38.8-6.59,2.4-11.93,2.99-21.25,2.99-21.25-11.28-12.75-72.3-12.75-83.58,0Z"/>
            <rect class="cls-21" x="1053.62" y="1336.54" width="176.65" height="119.01"/>
            <path class="cls-9" d="M1213.74,1336.54v39.61c0,35.39-28.69,64.07-64.07,64.07h-96.06v15.33h176.65v-119.01h-16.52Z"/>
            <rect class="cls-10" x="1080.77" y="1362.75" width="122.34" height="66.59"/>
            <rect class="cls-16" x="1094.06" y="1374.83" width="95.76" height="21.22"/>
            <path class="cls-10" d="M1244.35,1202.23c-.41,0-.83-.03-1.25-.08-9.55-1.19-18.23-7.72-22.66-17.03-3.46-7.27-7.31-22.58,5.74-43.46,12.27-19.62,39.06-29.36,64.97-38.77,13.54-4.92,26.32-9.57,34.83-14.99,14.75-9.4,23.34-26.2,21.39-41.8-1.61-12.91-10.24-22.57-24.27-27.2-13.32-4.39-31.05-.65-47.42,10.01-4.61,3-10.76,1.69-13.76-2.91-3-4.6-1.69-10.76,2.91-13.76,10.27-6.68,37.11-21.26,64.5-12.23,21.43,7.07,35.2,22.97,37.78,43.62,2.89,23.07-9.35,47.6-30.44,61.04-10.35,6.6-24.13,11.61-38.73,16.91-21.69,7.88-46.26,16.81-54.9,30.62-5.86,9.38-7.55,18.26-4.64,24.37,1.85,3.88,5.01,5.57,7.16,5.84,5.45.68,9.31,5.65,8.63,11.1-.63,5.03-4.91,8.71-9.85,8.71Z"/>
            <path class="cls-10" d="M1039.54,1202.23c-4.94,0-9.23-3.68-9.85-8.71-.68-5.45,3.18-10.42,8.63-11.1,2.15-.27,5.32-1.96,7.16-5.84,2.91-6.12,1.22-15-4.64-24.37-8.63-13.81-33.21-22.74-54.9-30.62-14.59-5.3-28.38-10.31-38.73-16.91-21.09-13.44-33.32-37.97-30.44-61.04,2.58-20.65,16.35-36.55,37.78-43.62,27.38-9.04,54.23,5.55,64.5,12.23,4.6,3,5.91,9.16,2.91,13.76-2.99,4.6-9.16,5.9-13.76,2.91-16.37-10.66-34.09-14.4-47.42-10.01-14.04,4.63-22.66,14.29-24.27,27.2-1.95,15.6,6.64,32.4,21.39,41.8,8.51,5.42,21.29,10.07,34.83,14.99,25.91,9.41,52.7,19.15,64.97,38.77,13.05,20.88,9.2,36.19,5.74,43.46-4.43,9.31-13.11,15.84-22.66,17.03-.42.05-.83.08-1.24.08Z"/>
            <path class="cls-16" d="M998.42,977.73s15.95,254.95,143.52,247.22c127.57,7.73,143.52-247.22,143.52-247.22-38.73-43.78-248.31-43.78-287.04,0Z"/>
            <path class="cls-7" d="M1267.48,965.14c-6.02,55.75-33.97,237.75-142.06,231.2-37.28,2.26-65.02-17.94-85.62-47.63,21.49,44.35,53.8,79.17,102.15,76.24,127.57,7.73,143.52-247.22,143.52-247.22-4.16-4.7-10.3-8.9-17.98-12.59Z"/>
            <path class="cls-10" d="M1291.58,989.66c-3.22,0-6.42-1.29-8.77-3.84-15.74-17.07-73.67-28.99-140.86-28.99s-125.12,11.92-140.86,28.99c-4.47,4.84-12.02,5.15-16.86.68-4.85-4.47-5.15-12.02-.68-16.86,24.94-27.04,98.18-36.68,158.4-36.68s133.46,9.64,158.4,36.68c4.47,4.84,4.16,12.39-.68,16.86-2.29,2.12-5.19,3.16-8.09,3.16Z"/>
            <g>
              <circle class="cls-10" cx="1141.94" cy="1066.95" r="69.14"/>
              <path class="cls-16" d="M1119.47,1103.56c-2.54,0-3.66-1.12-3.66-3.66v-12.3c0-2.54,1.12-3.66,3.66-3.66h11.39v-33.96h-9.35c-2.55,0-3.66-1.12-3.66-3.66v-12.3c0-2.54,1.12-3.66,3.66-3.66h29.49c2.54,0,3.66,1.12,3.66,3.66v49.92h9.76c2.54,0,3.66,1.12,3.66,3.66v12.3c0,2.54-1.12,3.66-3.66,3.66h-44.94Z"/>
            </g>
            <polygon class="cls-8" points="1128.18 1362.75 1080.77 1410.16 1080.77 1429.34 1089.71 1429.34 1156.3 1362.75 1128.18 1362.75"/>
            <polygon class="cls-8" points="1138.64 1429.34 1203.11 1364.87 1203.11 1362.75 1188.35 1362.75 1121.76 1429.34 1138.64 1429.34"/>
          </g>
          <path class="cls-14" d="M1101.17,960.17s97.96-8.62,82.13-82.9c-15.82-74.28-117.98-80.99-160.24-46.55-42.26,34.44-47.38,60.96-42.08,92.13,5.29,31.17,35.57,81.05,77.39,72.35,41.82-8.71,20.45-34.45,20.45-34.45l22.35-.59Z"/>
          <path class="cls-22" d="M801.32,1318.4c3.18-14.55,8.15-30.49,9.65-46.71-48.31,17.7-105.27,4.63-128.11-2.92,2.55,14.16,4.11,30.86,5.25,46.05,17.19,4.39,39.46,8.35,64.05,8.35,14.91,0,33.23-1.08,49.16-4.77Z"/>
          <path class="cls-22" d="M507.77,1318.77c15.93,3.69,33.08,4.4,47.98,4.4,24.59,0,46.86-3.96,64.06-8.35,1.14-15.17,2.69-31.85,5.24-45.99-22.76,7.59-77.88,20.31-126.41,2.45,1.5,16.21,5.24,32.86,9.13,47.5Z"/>
          <path class="cls-6" d="M745.25,1355.61c-40.18-2.79-42.57-67.39-54.8-99.69-12.23-32.3-36.5-25.3-36.5-25.3,0,0-24.27-7-36.5,25.3-12.23,32.3-14.62,96.9-54.79,99.69-18.77,1.3-32.65.05-42.17-1.64,4.08,9.2,8.86,17.2,14.54,23.43,0,0,65.9,17.42,81.4-22.43,3.11-16.18,3.38-91.49,17-113.02,9.55-15.11,31.51-15.11,41.07,0,13.62,21.52,13.88,96.84,17,113.02,15.5,39.85,81.39,22.43,81.39,22.43,5.68-6.23,10.46-14.23,14.54-23.43-9.52,1.7-23.4,2.95-42.17,1.64Z"/>
        </g>
        <g>
          <g>
            <path class="cls-3" d="M511.03,591.45c0,10.05-15.09,18.2-33.69,18.2s-33.69-8.15-33.69-18.2,15.09-18.2,33.69-18.2,33.69,8.15,33.69,18.2Z"/>
            <path class="cls-3" d="M794.42,591.45c0,10.05,15.09,18.2,33.69,18.2s33.69-8.15,33.69-18.2-15.09-18.2-33.69-18.2-33.69,8.15-33.69,18.2Z"/>
            <circle class="cls-20" cx="528.45" cy="522.06" r="73.22"/>
            <path class="cls-19" d="M527.9,538.9c-18.07-9.14-35.79-27.4-57.29-15.32-6.23,3.5-10.53,8.6-13.58,14.48,7.31,32.73,36.48,57.22,71.42,57.22,30.98,0,57.4-19.27,68.1-46.45-22.99,6.28-46.67,1.18-68.65-9.94Z"/>
            <path class="cls-11" d="M577.54,493.92c0,14.6-11.83,26.43-26.43,26.43s-26.43-11.83-26.43-26.43,11.83-26.43,26.43-26.43,26.43,11.83,26.43,26.43Z"/>
            <path class="cls-11" d="M505.31,548.46c0,7.81-6.33,14.13-14.13,14.13s-14.13-6.33-14.13-14.13,6.33-14.13,14.13-14.13,14.13,6.33,14.13,14.13Z"/>
            <path class="cls-11" d="M502.77,570.85c0-4.56,3.7-8.26,8.26-8.26s8.26,3.7,8.26,8.26-3.7,8.26-8.26,8.26-8.26-3.7-8.26-8.26Z"/>
            <circle class="cls-20" cx="777" cy="522.06" r="73.22"/>
            <path class="cls-19" d="M812.55,554.3c-21.17,11.08-47.79,10.28-68.58-.99-14.99-8.13-26.52-21.67-40.16-31.78,0,.18-.03.35-.03.53,0,40.44,32.78,73.22,73.22,73.22s73.22-32.78,73.22-73.22c0-4.93-.5-9.74-1.43-14.4-11.34,15.41-16.58,36.34-36.24,46.64Z"/>
            <path class="cls-11" d="M826.1,493.92c0,14.6-11.83,26.43-26.43,26.43s-26.43-11.83-26.43-26.43,11.83-26.43,26.43-26.43,26.43,11.83,26.43,26.43Z"/>
            <path class="cls-11" d="M753.87,548.46c0,7.81-6.33,14.13-14.13,14.13s-14.13-6.33-14.13-14.13,6.33-14.13,14.13-14.13,14.13,6.33,14.13,14.13Z"/>
            <path class="cls-11" d="M751.32,570.85c0-4.56,3.7-8.26,8.26-8.26s8.26,3.7,8.26,8.26-3.7,8.26-8.26,8.26-8.26-3.7-8.26-8.26Z"/>
            <path class="cls-20" d="M690.37,561.8c-5.63-4.45-2,25.11-37.65,25.11s-32.01-29.56-37.65-25.11c-5.63,4.45-.89,38.83,37.65,38.83s43.28-34.38,37.65-38.83Z"/>
            <path class="cls-20" d="M749.71,390.87c4.27,6.78,25.74-5.95,42.93,1.94,17.19,7.89,23.64,12.29,26.48,10.61,2.84-1.68-4-26.14-34.13-33.48-30.13-7.34-44.83,5.77-35.28,20.94Z"/>
            <path class="cls-20" d="M555.74,390.87c-4.27,6.78-25.74-5.95-42.93,1.94-17.19,7.89-23.64,12.29-26.48,10.61-2.84-1.68,4-26.14,34.13-33.48,30.13-7.34,44.83,5.77,35.28,20.94Z"/>
          </g>
          <path class="cls-20" d="M480.81,474.62c-7.66-2.09-16.25-21.13-23.22-18.57-6.97,2.55,3.02,20.66,16.95,26,13.93,5.34,6.27-7.43,6.27-7.43Z"/>
          <path class="cls-20" d="M474.12,487.37c-7.94.3-21.83-15.29-27.71-10.77-5.88,4.52,9.06,18.81,23.96,19.74,14.89.93,3.76-8.96,3.76-8.96Z"/>
          <path class="cls-20" d="M830.23,474.62c7.66-2.09,16.25-21.13,23.22-18.57,6.97,2.55-3.02,20.66-16.95,26-13.93,5.34-6.27-7.43-6.27-7.43Z"/>
          <path class="cls-20" d="M836.92,487.37c7.94.3,21.83-15.29,27.71-10.77,5.88,4.52-9.06,18.81-23.96,19.74-14.89.93-3.76-8.96-3.76-8.96Z"/>
        </g>
      </g>
    </g>
  </g>
</svg>